<?xml version="1.0" encoding="UTF-8"?>
<svg id="uuid-e2df9830-a4b7-4e4a-b885-6af2acab062c" data-name="Ebene 1" xmlns="http://www.w3.org/2000/svg" viewBox="0 0 1148.4551896 1028.6269537">
  <defs>
    <style>
      .uuid-c90b13b7-1175-46da-b9f1-b6cc5cbfb8ad {
        fill: #dad9f3;
      }

      .uuid-c90b13b7-1175-46da-b9f1-b6cc5cbfb8ad, .uuid-919eb44f-e194-42f1-b618-6cdf49ebb357, .uuid-05b515a8-9978-42d1-8a6b-2c9c9b01e9c4, .uuid-4c9cfd2f-5660-4ef4-8d02-5110d778679c, .uuid-7a0e871b-1cdf-45b3-8edf-bf3983467ac4, .uuid-55eee605-1ed8-4a56-b580-ddda2340d3ee, .uuid-abb3a3ba-e62a-4c81-a476-b34c19533eb6, .uuid-fad00bb7-e78c-4725-ad48-dc124eb5dd44, .uuid-18cee184-2494-4b7a-98a1-9d3e334153b4, .uuid-f99ca293-c15e-4de7-b449-8a1305eaba2e {
        stroke-miterlimit: 10;
      }

      .uuid-c90b13b7-1175-46da-b9f1-b6cc5cbfb8ad, .uuid-919eb44f-e194-42f1-b618-6cdf49ebb357, .uuid-05b515a8-9978-42d1-8a6b-2c9c9b01e9c4, .uuid-7a0e871b-1cdf-45b3-8edf-bf3983467ac4, .uuid-55eee605-1ed8-4a56-b580-ddda2340d3ee, .uuid-abb3a3ba-e62a-4c81-a476-b34c19533eb6, .uuid-fad00bb7-e78c-4725-ad48-dc124eb5dd44, .uuid-18cee184-2494-4b7a-98a1-9d3e334153b4, .uuid-f99ca293-c15e-4de7-b449-8a1305eaba2e {
        stroke-width: 1.45px;
      }

      .uuid-c90b13b7-1175-46da-b9f1-b6cc5cbfb8ad, .uuid-919eb44f-e194-42f1-b618-6cdf49ebb357, .uuid-4c9cfd2f-5660-4ef4-8d02-5110d778679c, .uuid-7a0e871b-1cdf-45b3-8edf-bf3983467ac4, .uuid-b5bb4ff8-3627-4b3a-9e1f-b0300eab678e, .uuid-55eee605-1ed8-4a56-b580-ddda2340d3ee, .uuid-abb3a3ba-e62a-4c81-a476-b34c19533eb6, .uuid-302b9ff1-0a1d-4640-beb3-1337ff3115b0, .uuid-2f0f1d22-5ccb-4f7b-8688-07227f500bf8, .uuid-fad00bb7-e78c-4725-ad48-dc124eb5dd44, .uuid-18cee184-2494-4b7a-98a1-9d3e334153b4, .uuid-f99ca293-c15e-4de7-b449-8a1305eaba2e {
        stroke: #1d2b47;
      }

      .uuid-919eb44f-e194-42f1-b618-6cdf49ebb357, .uuid-05b515a8-9978-42d1-8a6b-2c9c9b01e9c4, .uuid-4c9cfd2f-5660-4ef4-8d02-5110d778679c, .uuid-7a0e871b-1cdf-45b3-8edf-bf3983467ac4, .uuid-18cee184-2494-4b7a-98a1-9d3e334153b4 {
        stroke-linecap: round;
      }

      .uuid-919eb44f-e194-42f1-b618-6cdf49ebb357, .uuid-b5bb4ff8-3627-4b3a-9e1f-b0300eab678e, .uuid-55eee605-1ed8-4a56-b580-ddda2340d3ee, .uuid-43b8b220-cdab-4987-99b3-89979994d8f8 {
        fill: #fff;
      }

      .uuid-05b515a8-9978-42d1-8a6b-2c9c9b01e9c4 {
        stroke: #49281f;
      }

      .uuid-05b515a8-9978-42d1-8a6b-2c9c9b01e9c4, .uuid-4c9cfd2f-5660-4ef4-8d02-5110d778679c, .uuid-2f0f1d22-5ccb-4f7b-8688-07227f500bf8, .uuid-fad00bb7-e78c-4725-ad48-dc124eb5dd44, .uuid-18cee184-2494-4b7a-98a1-9d3e334153b4 {
        fill: none;
      }

      .uuid-4c9cfd2f-5660-4ef4-8d02-5110d778679c {
        stroke-width: 11.6199999px;
      }

      .uuid-7a0e871b-1cdf-45b3-8edf-bf3983467ac4, .uuid-f99ca293-c15e-4de7-b449-8a1305eaba2e {
        fill: #0d00ad;
      }

      .uuid-b5bb4ff8-3627-4b3a-9e1f-b0300eab678e, .uuid-302b9ff1-0a1d-4640-beb3-1337ff3115b0, .uuid-2f0f1d22-5ccb-4f7b-8688-07227f500bf8 {
        stroke-miterlimit: 9.9999999;
        stroke-width: 1.45px;
      }

      .uuid-abb3a3ba-e62a-4c81-a476-b34c19533eb6, .uuid-302b9ff1-0a1d-4640-beb3-1337ff3115b0 {
        fill: #8480ce;
      }

      .uuid-7a0371c7-903c-465c-8d3e-d97d7263249b {
        fill: #f2f2fb;
      }
    </style>
  </defs>
  <g>
    <path class="uuid-55eee605-1ed8-4a56-b580-ddda2340d3ee" d="M965.8252396,328.8359968l9.75,459.9999695c.2208862,10.7893677-8.3464966,19.7149658-19.1359253,19.9359131-.1313477.0026855-.2626953.0040283-.394104.0040894h-255.2299805l234.5100098-513.3400269,30.5,33.4000549Z"/>
    <path class="uuid-abb3a3ba-e62a-4c81-a476-b34c19533eb6" d="M819.1652665,837.0660078h-312.9299927l69.1199951-500.269989c4.0801392-29.5290222,29.3204346-51.520874,59.1300049-51.519989h293.5799561l-108.8999634,551.789978Z"/>
    <g>
      <path class="uuid-55eee605-1ed8-4a56-b580-ddda2340d3ee" d="M944.7652421,397.1260053l-46.9199829,422.1799927c-1.3996582,10.1816406-10.1026001,17.7658081-20.3800049,17.7600098h-59l71.6900024-518.8900146c2.6026001-18.8585815,18.7227173-32.9039001,37.7600098-32.8999939,23.1300049,0,35.7600098,16,37.7600098,43.3299866"/>
      <path class="uuid-55eee605-1ed8-4a56-b580-ddda2340d3ee" d="M838.1952347,837.0660078l72.8800049-507c1.4014282-9.8757324,9.8653564-17.2091675,19.8400269-17.1900024,9.3781128-.0202637,17.5109253,6.4784546,19.5599976,15.6300049l1.5499878,6.8699951"/>
      <path class="uuid-55eee605-1ed8-4a56-b580-ddda2340d3ee" d="M934.6052689,332.4660017l-68.8200073,504.6000061"/>
      <path class="uuid-55eee605-1ed8-4a56-b580-ddda2340d3ee" d="M939.685225,442.0960065l.7299805,366.6600037"/>
      <path class="uuid-55eee605-1ed8-4a56-b580-ddda2340d3ee" d="M916.4552445,651.9259931l.7199707,156.8300171"/>
    </g>
    <g>
      <path class="uuid-f99ca293-c15e-4de7-b449-8a1305eaba2e" d="M943.3052201,410.286009l-2.8900146,26s-26.8400269,275.1799622-12.3499756,372.4700012h-27.5900269l42.8300171-398.4700012Z"/>
      <circle class="uuid-f99ca293-c15e-4de7-b449-8a1305eaba2e" cx="633.6552567" cy="324.8460065" r="11.9799957"/>
      <circle class="uuid-f99ca293-c15e-4de7-b449-8a1305eaba2e" cx="722.2352128" cy="324.8460065" r="11.9799957"/>
      <circle class="uuid-f99ca293-c15e-4de7-b449-8a1305eaba2e" cx="810.8152299" cy="324.8460065" r="11.9799957"/>
    </g>
    <g>
      <path class="uuid-fad00bb7-e78c-4725-ad48-dc124eb5dd44" d="M633.2952103,324.4760114v-48.6399841c-.0055542-14.0280304,11.3619385-25.40448,25.3900146-25.4100037h.0199585c14.0335693.0000153,25.4099731,11.3764496,25.4099731,25.4100037v9.4400024"/>
      <path class="uuid-fad00bb7-e78c-4725-ad48-dc124eb5dd44" d="M722.5752396,324.4760114v-48.6399841c0-14.0335541,11.3764038-25.4099884,25.4099731-25.4100037,14.0280151-.0055084,25.40448,11.3619843,25.4099731,25.3900146v9.4599915"/>
      <path class="uuid-fad00bb7-e78c-4725-ad48-dc124eb5dd44" d="M811.9052567,324.4760114v-48.6399841c-.0055542-14.0280304,11.3619385-25.40448,25.3900146-25.4100037h.0199585c14.0335693.0000153,25.4099731,11.3764496,25.4099731,25.4100037v9.4400024"/>
    </g>
    <path class="uuid-55eee605-1ed8-4a56-b580-ddda2340d3ee" d="M626.8352494,461.7059919h-34.2600098c-4.6999512-.0003662-8.5097046-3.81073-8.5093384-8.5106812.000061-.4756165.039978-.9503784.1193237-1.4193115l5.8400269-34.5400085c.6888428-4.0901794,4.2322388-7.0838623,8.3800049-7.0799866h34.2999878c4.694397-.0052185,8.5042114,3.7961121,8.5094604,8.4905396.0005493.4790039-.0394287.9571838-.1194458,1.4294739l-5.8400269,34.5400085c-.6907959,4.1069031-4.2554321,7.10849-8.4199829,7.0899963v-.0000305Z"/>
    <g>
      <path class="uuid-c90b13b7-1175-46da-b9f1-b6cc5cbfb8ad" d="M613.7652421,561.1260053h-34.2999878c-4.694397.005249-8.5042114-3.7961426-8.5094604-8.4905396-.0005493-.4790039.0394287-.9571533.1194458-1.4294434l5.8400269-34.5400085c.692688-4.0879822,4.2337646-7.0797119,8.3800049-7.0799866h34.2799683c4.694397.0003052,8.4997559,3.8061218,8.4994507,8.5005493,0,.475647-.039978.95047-.1194458,1.4194336l-5.8099976,34.6199951c-.7234497,4.0583496-4.2576904,7.0105591-8.3800049,7Z"/>
      <path class="uuid-c90b13b7-1175-46da-b9f1-b6cc5cbfb8ad" d="M601.4152665,661.3659955h-34.2999878c-4.694397-.0003052-8.4997559-3.8061523-8.4994507-8.5005493,0-.475647.039978-.9504395.1194458-1.4194336l5.8400269-34.539978c.6882935-4.09198,4.2305298-7.0889282,8.3800049-7.0900269h34.2999878c4.6999512.0012817,8.5089111,3.812439,8.5076294,8.5123901-.0001221.4716187-.0394897.9424438-.1176147,1.4075928l-5.8400269,34.539978c-.692749,4.0935059-4.2382812,7.0897217-8.3900146,7.0900269Z"/>
      <path class="uuid-c90b13b7-1175-46da-b9f1-b6cc5cbfb8ad" d="M588.3552689,787.6960126h-34.2999878c-4.694397.005249-8.5042114-3.7961426-8.5094604-8.4905396-.0005493-.4790039.0394287-.9571533.1194458-1.4294434l5.8400269-34.539978c.6882935-4.09198,4.2305298-7.0889282,8.3800049-7.0900269h34.2999878c4.694397-.005249,8.5042114,3.7961426,8.5094604,8.4905396.0005493.4790039-.0394287.9571533-.1194458,1.4294434l-5.8400269,34.5499878c-.6888428,4.0901489-4.2322388,7.0838623-8.3800049,7.0800171Z"/>
    </g>
    <g>
      <path class="uuid-55eee605-1ed8-4a56-b580-ddda2340d3ee" d="M662.3352494,420.3160078h167.7199707"/>
      <path class="uuid-55eee605-1ed8-4a56-b580-ddda2340d3ee" d="M655.7952103,436.286009h174.2600098"/>
      <path class="uuid-55eee605-1ed8-4a56-b580-ddda2340d3ee" d="M649.9952225,452.26602h173.5200195"/>
      <path class="uuid-55eee605-1ed8-4a56-b580-ddda2340d3ee" d="M650.7152543,519.7859785h167.7199707"/>
      <path class="uuid-55eee605-1ed8-4a56-b580-ddda2340d3ee" d="M644.185225,535.7560102h174.25"/>
      <path class="uuid-55eee605-1ed8-4a56-b580-ddda2340d3ee" d="M638.3752274,551.7359907h173.5299683"/>
      <path class="uuid-55eee605-1ed8-4a56-b580-ddda2340d3ee" d="M639.1052689,619.9759809h167.710022"/>
      <path class="uuid-55eee605-1ed8-4a56-b580-ddda2340d3ee" d="M632.5652299,635.9560224h174.25"/>
      <path class="uuid-55eee605-1ed8-4a56-b580-ddda2340d3ee" d="M626.7552323,651.9259931h173.5299683"/>
      <path class="uuid-55eee605-1ed8-4a56-b580-ddda2340d3ee" d="M623.1252274,746.3160078h167.7200317"/>
      <path class="uuid-55eee605-1ed8-4a56-b580-ddda2340d3ee" d="M616.5952592,762.2859785h174.25"/>
      <path class="uuid-55eee605-1ed8-4a56-b580-ddda2340d3ee" d="M610.7852616,778.2560102h173.5299683"/>
    </g>
  </g>
  <path class="uuid-7a0371c7-903c-465c-8d3e-d97d7263249b" d="M472.415236,256.3760053c11.9458008,31.0410767-3.5308228,65.8892517-34.5700073,77.8399963l-62.6100159,24.1000061-29.2600098-76,126.440033-25.9400024Z"/>
  <path class="uuid-18cee184-2494-4b7a-98a1-9d3e334153b4" d="M472.415236,256.3760053c11.9458008,31.0410767-3.5308228,65.8892517-34.5700073,77.8399963l-62.6100159,24.1000061-29.2600098-76,126.440033-25.9400024Z"/>
  <path class="uuid-7a0371c7-903c-465c-8d3e-d97d7263249b" d="M449.8152299,278.4460126l-34.5700073,9.2000122c-18.0830688,5.3006897-28.4452209,24.2569885-23.1445312,42.3400574.815979,2.7835693,1.983551,5.4517517,3.4745178,7.9399414,6.7245178,11.2305908,19.2827148,17.6223755,32.3200073,16.4500122l18.1000061-1.6300049.25,39.3600159-122.3399963,23.0799866-59.8600159-155.5,129.9199829-50c29.0887756-11.1923218,61.7433777,3.3128815,72.9400024,32.3999939l16,41.6799927-33.0899658-5.3200073Z"/>
  <path class="uuid-18cee184-2494-4b7a-98a1-9d3e334153b4" d="M449.8152299,278.4460126l-34.5700073,9.2000122c-18.0830688,5.3006897-28.4452209,24.2569885-23.1445312,42.3400574.815979,2.7835693,1.983551,5.4517517,3.4745178,7.9399414,6.7245178,11.2305908,19.2827148,17.6223755,32.3200073,16.4500122l18.1000061-1.6300049.25,39.3600159-122.3399963,23.0799866-59.8600159-155.5,129.9199829-50c29.0887756-11.1923218,61.7433777,3.3128815,72.9400024,32.3999939l16,41.6799927-33.0899658-5.3200073Z"/>
  <path class="uuid-7a0371c7-903c-465c-8d3e-d97d7263249b" d="M416.3452286,264.3260175l120.7400208,49.3599854c7.0527344,2.8814087,15.1118774-.4376221,18.0900269-7.4500122,2.7790527-6.5535583.1699219-14.1480713-6.0499878-17.6099854l-111-61.7799988-21.7800598,37.480011Z"/>
  <g>
    <path class="uuid-18cee184-2494-4b7a-98a1-9d3e334153b4" d="M449.9552445,278.4460126l87.1300049,35.2399902c7.0527344,2.8814087,15.1118774-.4376221,18.0900269-7.4500122,2.7790527-6.5535583.1699219-14.1480713-6.0499878-17.6099854l-93.2900085-51.5c-18.9500122-10.4499969-54.2999878-10.9100037-92,14.4900055"/>
    <path class="uuid-18cee184-2494-4b7a-98a1-9d3e334153b4" d="M424.6152482,304.1960126l-32.8299866,12.6400146"/>
    <path class="uuid-919eb44f-e194-42f1-b618-6cdf49ebb357" d="M25.5752396,342.9160139l142.6499939-49.7900085,134.769989,230.8599854-260.519989,104.8099976"/>
    <path class="uuid-7a0e871b-1cdf-45b3-8edf-bf3983467ac4" d="M327.0352311,469.2160017c8.431366,21.8936768-2.4820251,46.4769897-24.3757019,54.9083557l-.004303.0016479c-21.8923645,8.4194336-46.4660034-2.4932861-54.8999939-24.3800049l-17-44.230011,78.1199951-33.4899902,18.1600037,47.1900024Z"/>
  </g>
  <path class="uuid-7a0371c7-903c-465c-8d3e-d97d7263249b" d="M324.2352433,415.4460126l-15.3599854,6.5799866-78.1399994,33.480011-62.5099945-162.3800049,96.019989-33.5200043,43.1700134,29.280014,19.1600037,112.4299927"/>
  <g>
    <g>
      <path class="uuid-18cee184-2494-4b7a-98a1-9d3e334153b4" d="M324.2352433,415.4460126l-15.3599854,6.5799866-78.1399994,33.480011-62.5099945-162.3800049,80.2399902-28.019989,15.7799988-5.5"/>
      <path class="uuid-919eb44f-e194-42f1-b618-6cdf49ebb357" d="M105.8952393,315.1260053l72.0499954,199c11.5001678,27.8391724,43.1095886,41.4202881,71.2200012,30.5999756l9.4500122-3.6400146"/>
      <path class="uuid-b5bb4ff8-3627-4b3a-9e1f-b0300eab678e" d="M244.8915362,194.5302322c8.3228242-15.8593693,27.9263822-21.9689515,43.7857582-13.6461237l290.7898997,152.603371h0l-30.1396384,57.4319058h0l-290.7898997-152.603371c-15.859376-8.3228277-21.9689515-27.9263822-13.646134-43.785755l.0000142-.000027Z"/>
      <path class="uuid-302b9ff1-0a1d-4640-beb3-1337ff3115b0" d="M244.8655672,194.5108363c8.3228242-15.8593693,27.9263822-21.9689515,43.7857515-13.6461273l51.9330882,27.2539188h0l-30.1396313,57.4318923h0l-51.8976751-27.2353344c-15.8696364-8.3032599-22.0033988-27.8992594-13.7001254-43.7688887.0061836-.0118159.0123815-.0236589.0185786-.0354678l.0000135.0000071Z"/>
      <path class="uuid-c90b13b7-1175-46da-b9f1-b6cc5cbfb8ad" d="M557.225264,321.8460065l28.1199951,14.75c3.3391724,1.7453003,6.3074951,4.1226807,8.7399902,7l43.6799927,52.1199951c1.7020264,2.0179749,1.4459229,5.0336609-.5720825,6.7356873-.9827881.8289185-2.2580566,1.2269897-3.5379028,1.1043091l-67.7200317-6.3399963c-3.7531128-.3226318-7.4075928-1.3721008-10.7600098-3.0899963l-28.1099854-14.7600098,30.1600342-57.519989Z"/>
      <path class="uuid-55eee605-1ed8-4a56-b580-ddda2340d3ee" d="M554.8452592,320.6159955l26.8900146,14.0899963c-3.3900146,2.3299866-7.6300049,1.6099854-10.2600098,6.6400146-3.4500122,6.5599976,2.7299805,9.8099976-.7199707,16.3699951-3.4499512,6.5599976-9.6199951,3.3299866-13.0700073,9.8900146-3.4500122,6.5600281,2.7399902,9.8099976-.710022,16.3800049-2.4099731,4.6000061-6.1699829,4.3800049-9.3900146,6.1000061l-26.2700195-13.7900085"/>
      <path class="uuid-f99ca293-c15e-4de7-b449-8a1305eaba2e" d="M637.7652421,395.76602c1.7020264,2.0179749,1.4459229,5.0336609-.5720825,6.7356873-.9827881.8289185-2.2580566,1.2269897-3.5379028,1.1043091l-14.5800171-1.3599854,9.289978-17.7000122,9.4000244,11.2200012Z"/>
      <g>
        <path class="uuid-18cee184-2494-4b7a-98a1-9d3e334153b4" d="M555.3052201,372.0660078l-225.5700073-118.3800049"/>
        <path class="uuid-18cee184-2494-4b7a-98a1-9d3e334153b4" d="M569.5752396,344.8760053l-225.5700073-118.3899994"/>
      </g>
    </g>
    <path class="uuid-05b515a8-9978-42d1-8a6b-2c9c9b01e9c4" d="M320.685225,270.9360029l30.1400146-57.4199982"/>
  </g>
  <path class="uuid-43b8b220-cdab-4987-99b3-89979994d8f8" d="M293.4814268,256.658753l30.134987-57.4230424,8.651092,4.5399988-30.134987,57.4230424-8.651092-4.5399988Z"/>
  <path class="uuid-2f0f1d22-5ccb-4f7b-8688-07227f500bf8" d="M244.8655672,194.5108363c8.3228242-15.8593693,27.9263822-21.9689515,43.7857515-13.6461273l51.9330882,27.2539188h0l-30.1396313,57.4318923h0l-51.8976751-27.2353344c-15.8696364-8.3032599-22.0033988-27.8992594-13.7001254-43.7688887.0061836-.0118159.0123815-.0236589.0185786-.0354678l.0000135.0000071Z"/>
  <path class="uuid-7a0371c7-903c-465c-8d3e-d97d7263249b" d="M282.2052445,306.8560163l113.3699951,31.0700073c6.7245178,11.2305908,19.2827148,17.6223755,32.3200073,16.4500122l18.0899963-1.6300049,38.2999878-3.5100098c13.6556702-1.2521973,25.8331604,8.5775146,27.4899902,22.1900024l.9999695,8.0899963-153.9700012,29.1400146-34.8999939,6.5799866-41.6999512-108.3800049Z"/>
  <g>
    <path class="uuid-18cee184-2494-4b7a-98a1-9d3e334153b4" d="M395.5752396,337.9259931c6.7245178,11.2305908,19.2827148,17.6223755,32.3200073,16.4500122l18.0899963-1.6300049,38.2999878-3.5100098c13.6556702-1.2521973,25.8331604,8.5775146,27.4899902,22.1900024l.9999695,8.0899963-153.9700012,29.1399841-34.8999939,6.5799866"/>
    <path class="uuid-4c9cfd2f-5660-4ef4-8d02-5110d778679c" d="M583.9252152,427.5760175l23.2299805,18.1499939,37.0300293-50.8200073"/>
  </g>
</svg>