<?xml version="1.0" encoding="UTF-8"?>
<svg id="uuid-96c81860-dbaf-4d24-a330-a544f4d84f17" data-name="Ebene 1" xmlns="http://www.w3.org/2000/svg" viewBox="0 0 1140.534809 1049.4504319">
  <defs>
    <style>
      .uuid-c55cde40-bb19-4733-810f-1795eba521d1, .uuid-16c3eeb3-2a6e-49c3-b7b9-35570d7c0fa4, .uuid-f2227218-a8dc-44c2-a4ce-98d82a8281c1, .uuid-b49ff95b-70cd-40c4-a4aa-62840240e762, .uuid-70503775-4625-42b6-bd5e-fa7ba3fa61e0, .uuid-d6c94a9d-d270-4a9b-ad09-c78d6bfa24c1, .uuid-24082049-5ee0-4895-9d64-cde5a0cf7f6b, .uuid-9e9e8d21-9d34-4c30-b054-9209aad56d83, .uuid-1d1ef736-f8ad-4e77-89df-9a07bbc5e54f, .uuid-038e67bb-7dc4-4a54-8b97-128c290b2b5a, .uuid-97a909d8-125e-47f8-87ab-d109d2fd74f7 {
        stroke: #1d2b47;
      }

      .uuid-c55cde40-bb19-4733-810f-1795eba521d1, .uuid-16c3eeb3-2a6e-49c3-b7b9-35570d7c0fa4, .uuid-f2227218-a8dc-44c2-a4ce-98d82a8281c1, .uuid-b49ff95b-70cd-40c4-a4aa-62840240e762, .uuid-70503775-4625-42b6-bd5e-fa7ba3fa61e0, .uuid-d6c94a9d-d270-4a9b-ad09-c78d6bfa24c1, .uuid-9e9e8d21-9d34-4c30-b054-9209aad56d83, .uuid-1d1ef736-f8ad-4e77-89df-9a07bbc5e54f, .uuid-1d00a843-78ee-46df-9836-78cf68e59fee, .uuid-038e67bb-7dc4-4a54-8b97-128c290b2b5a {
        stroke-miterlimit: 10;
        stroke-width: 1.22px;
      }

      .uuid-c55cde40-bb19-4733-810f-1795eba521d1, .uuid-70503775-4625-42b6-bd5e-fa7ba3fa61e0, .uuid-1f389b5c-9323-4bfd-bf63-f1d8e9958abb {
        fill: #fff;
      }

      .uuid-c55cde40-bb19-4733-810f-1795eba521d1, .uuid-d6c94a9d-d270-4a9b-ad09-c78d6bfa24c1, .uuid-24082049-5ee0-4895-9d64-cde5a0cf7f6b, .uuid-1d1ef736-f8ad-4e77-89df-9a07bbc5e54f, .uuid-1d00a843-78ee-46df-9836-78cf68e59fee {
        stroke-linecap: round;
      }

      .uuid-16c3eeb3-2a6e-49c3-b7b9-35570d7c0fa4, .uuid-350a1f93-45c8-4b3e-94e7-ea2c3e9906c8 {
        fill: #dad9f3;
      }

      .uuid-f2227218-a8dc-44c2-a4ce-98d82a8281c1, .uuid-24082049-5ee0-4895-9d64-cde5a0cf7f6b {
        fill: #8480ce;
      }

      .uuid-b49ff95b-70cd-40c4-a4aa-62840240e762, .uuid-d6c94a9d-d270-4a9b-ad09-c78d6bfa24c1, .uuid-17220cd2-ac03-46a9-9d89-c832dcca335a {
        fill: #f2f2fb;
      }

      .uuid-c7a24be6-9d79-489c-bc27-485d5b821c3e, .uuid-038e67bb-7dc4-4a54-8b97-128c290b2b5a, .uuid-97a909d8-125e-47f8-87ab-d109d2fd74f7 {
        fill: #0d00ad;
      }

      .uuid-24082049-5ee0-4895-9d64-cde5a0cf7f6b {
        stroke-miterlimit: 10.031949;
        stroke-width: 1.2238978px;
      }

      .uuid-9e9e8d21-9d34-4c30-b054-9209aad56d83, .uuid-1d1ef736-f8ad-4e77-89df-9a07bbc5e54f, .uuid-1d00a843-78ee-46df-9836-78cf68e59fee {
        fill: none;
      }

      .uuid-1d00a843-78ee-46df-9836-78cf68e59fee {
        stroke: #1a1c35;
      }

      .uuid-97a909d8-125e-47f8-87ab-d109d2fd74f7 {
        stroke-miterlimit: 10.0000002;
        stroke-width: 1.2200001px;
      }
    </style>
  </defs>
  <g>
    <path class="uuid-70503775-4625-42b6-bd5e-fa7ba3fa61e0" d="M731.6931492,686.8311503l-14.6500244,219.8300171"/>
    <path class="uuid-038e67bb-7dc4-4a54-8b97-128c290b2b5a" d="M785.4331395,741.1711771l64.1199951,33c-16.7600098,35.6099854-45.1300049,50.7200317-83.5900269,59.1300049l-44.6799927,9.7800293,8-123.8499756"/>
    <g>
      <path class="uuid-70503775-4625-42b6-bd5e-fa7ba3fa61e0" d="M671.243137,600.7211649h-81.6799927c-13.2200012,0-32.5100098-8.539978-15.1799927-38.5900269l69.8599854-139.5899963"/>
      <path class="uuid-70503775-4625-42b6-bd5e-fa7ba3fa61e0" d="M849.5531346,774.1511576h-128.7000122c-57.0786133,0-103.3499756-46.2713623-103.3499756-103.3499756l3.6699829-70.7200317"/>
      <path class="uuid-70503775-4625-42b6-bd5e-fa7ba3fa61e0" d="M975.953159,155.4111521h-49.1699829c-3.6726685.0000153-6.6500244-2.9772797-6.6500244-6.6499786v-.0000153c.0169678-2.3000183,1.2091675-4.4315491,3.1599731-5.6499939,10.4485474-6.6134338,13.5574951-20.4448929,6.9440918-30.8934326-6.6134644-10.4485321-20.4449463-13.5575027-30.8934326-6.9440689-10.4485474,6.6134338-13.5574951,20.4448929-6.9440918,30.8934402,1.7892456,2.8267822,4.1891479,5.2166901,7.0234375,6.9940643,1.9169922,1.215683,3.0761108,3.3300171,3.0700073,5.6000061,0,3.672699-2.9772949,6.6499939-6.6500244,6.6499939h-34.5300293c-8.1848755-.0055389-14.8244629,6.6251221-14.8300171,14.8099823v34.4400177c0,3.6671753-2.9728394,6.6399994-6.6400146,6.6399994h0c-2.3040771-.0117035-4.440979-1.2047577-5.6599731-3.1600037-6.6177979-10.4392395-20.4452515-13.5371246-30.8844604-6.9193268-10.43927,6.6177979-13.5371704,20.4452515-6.9193726,30.884491,6.6177979,10.4392395,20.4452515,13.5371246,30.8845215,6.9193268,2.8206787-1.7881317,5.2053833-4.1848602,6.9793091-7.0144958,1.2167358-1.9146118,3.3314819-3.0701752,5.5999756-3.0599976,3.6671753-.0000153,6.6400146,2.9728088,6.6400146,6.6399841v34.4900055c0,8.1903687,6.6396484,14.8299866,14.8300171,14.8299866h34.5300293c3.6726685,0,6.6500244-2.9772949,6.6500244-6.6499634v-.0000305c.0064697-2.267395-1.1531372-4.3788757-3.0700073-5.5899963-10.4723511-6.5652466-13.6397095-20.3769379-7.0744629-30.8493195,6.5651855-10.4723663,20.3768921-13.6397247,30.8493042-7.0744934,10.4723511,6.5652466,13.6397095,20.3769531,7.0744629,30.8493195-1.7739258,2.8296204-4.1586304,5.2263794-6.9793091,7.0144958-1.9508057,1.2184448-3.1430054,3.3499756-3.1599731,5.6499939,0,3.672699,2.9772949,6.6499939,6.6500244,6.6499939h52.2299805"/>
    </g>
    <path class="uuid-f2227218-a8dc-44c2-a4ce-98d82a8281c1" d="M839.8731419,228.7711527c-2.2677612.0012817-4.3756104,1.1685028-5.5800171,3.0899963-6.5373535,10.4897919-20.3406372,13.6938629-30.8303833,7.1564941-10.4898071-6.5373688-13.6938477-20.3406067-7.1564941-30.8303986,6.5373535-10.4897919,20.3405762-13.6938629,30.8303833-7.1564941,2.8308716,1.7642212,5.2315674,4.138916,7.0264893,6.9503937,1.2254028,1.9471893,3.359375,3.1348267,5.6599731,3.1499939,3.6704102-.0165253,6.6355591-2.9995575,6.6300049-6.6699982l-.1199951-34.3800049c-.0220337-8.1848297-6.6750488-14.8020782-14.8598633-14.7800293-.0033569.0000153-.0067749.0000153-.0101318.0000305l-34.4199829.1000061c-3.6671143.016571-6.6533813-2.9427795-6.6699219-6.6099243-.000061-.0033569-.000061-.0067139-.000061-.0100708.0079956-2.3051758,1.1970215-4.4453888,3.1500244-5.6699982,10.4179688-6.6511993,13.4715576-20.4885025,6.8203735-30.9064865-6.6511841-10.4179916-20.4884644-13.4715805-30.9064941-6.8203888-10.4179688,6.6511917-13.4715576,20.4885025-6.8203735,30.9064865,1.7949219,2.8114777,4.1956177,5.1861725,7.0264893,6.9503937,1.9230957,1.2076721,3.090271,3.3191528,3.0900269,5.5899963.0110474,3.66716-2.9528198,6.6489258-6.6199341,6.6599884-.0033569,0-.0067139.0000153-.0100708.0000153l-34.5299683.1100006c-8.1848145.0220337-14.802063,6.6750031-14.7800903,14.8598328.000061.0033875.000061.0067749.000061.0101624l.1099854,36.8699951c.984314,2.5849609,3.4639282,4.2924652,6.2299805,4.2899933,2.3034668-.0231781,4.4350586-1.2229004,5.6500244-3.1799927,6.5914917-10.4493256,20.4058228-13.5766907,30.8551636-6.9851685,10.4493408,6.5915222,13.5766602,20.405838,6.9851685,30.8551636-6.5914917,10.4493256-20.4058228,13.5766907-30.8551636,6.9851685-2.8198242-1.7787628-5.2064209-4.1653442-6.9851685-6.9851685-1.230957-1.8917084-3.3431396-3.0232544-5.5999756-3-2.7660522.0133972-5.2350464,1.7376709-6.2000122,4.3300018l.1099854,36.7599945c.0878906,8.1630249,6.7566528,14.7200317,14.9199829,14.6700134l34.4299927-.1000061c3.6616211-.016571,6.6433716,2.9383545,6.6599121,6.5999451.000061.0066833.000061.0133667.000061.02005-.0076904,2.3027344-1.1922607,4.4416809-3.1400146,5.6700134-10.4104004,6.6528015-13.456543,20.4852905-6.8037109,30.8956909,6.652771,10.4104004,20.4852295,13.456543,30.8956909,6.8037109,10.4104004-6.6528015,13.4564819-20.48526,6.8037109-30.8956604-1.7952271-2.8092041-4.1956177-5.1816101-7.0256958-6.9437561-1.9162598-1.2081604-3.0789795-3.3146667-3.0800171-5.5799866-.0166016-3.6671448,2.942749-6.6533813,6.6098633-6.6699829.003418,0,.0067749-.0000305.0101318-.0000305l34.539978-.1000061c8.1865234-.0275574,14.802124-6.6834717,14.7800293-14.8699951l-.1099854-34.5400085c-.0219116-3.667099-3.0123901-6.6221466-6.6795044-6.6002655-.0101929.000061-.0203247.0001526-.0305176.0002594l.000061.0000305Z"/>
  </g>
  <path class="uuid-1f389b5c-9323-4bfd-bf63-f1d8e9958abb" d="M969.413181,358.3111613c-2.270874-.0002747-4.3823242,1.1669006-5.5900269,3.0899963-6.5373535,10.4897766-20.3406372,13.6938477-30.8303833,7.1564941-10.4898071-6.537384-13.6938477-20.3406067-7.1564941-30.8304138,6.5373535-10.4897766,20.3405762-13.6938477,30.8303833-7.1564636,2.8308716,1.7642212,5.2315674,4.138916,7.0264893,6.9503784,1.8988647,3.1372681,5.9815063,4.1411743,9.1187134,2.2422791,2.0125122-1.2180786,3.2302856-3.4100342,3.2012939-5.7622681l-.1099854-34.4200134c-.0164795-8.1793213-6.6604614-14.7966309-14.8397827-14.7801819-.0167236.0000305-.0335083.0000916-.0502319.0001831l-34.4299927.1000061c-3.6671753.0110474-6.6489258-2.9528198-6.6599731-6.6199646v-.0000305c.0039673-2.3037109,1.1893921-4.4443359,3.1400146-5.6700134,10.4197388-6.648468,13.4769287-20.4849701,6.8284912-30.9046936-6.6484375-10.4197388-20.4849854-13.4769592-30.9047241-6.8284912-10.4197388,6.6484528-13.4769287,20.4849701-6.8284912,30.9046936,1.7963867,2.8153076,4.2000122,5.1929321,7.034729,6.9584961,1.9178467,1.2113953,3.0805054,3.3215942,3.0800171,5.5899963.0111084,3.6688232-2.9511719,6.6534729-6.6199951,6.6700134l-34.539978.1000061c-8.1865234.0275574-14.802124,6.6834717-14.7800293,14.8699951l.1099854,36.8699951c.984314,2.5849609,3.4639282,4.2924805,6.2299805,4.2900085,2.3034668-.0231934,4.4350586-1.2229004,5.6500244-3.1799927,6.5914917-10.4558411,20.4111328-13.588501,30.8670044-6.9969788,10.4558105,6.5914917,13.588501,20.4111328,6.9969482,30.8669739-6.5914917,10.4558411-20.4111328,13.588501-30.8669434,6.9969788-2.8251953-1.7810364-5.2159424-4.1717834-6.9970093-6.9969788-1.2230835-1.9065247-3.3348389-3.0566711-5.5999756-3.0499878-2.7660522.0133972-5.2350464,1.7376709-6.2000122,4.3299866l.1199951,36.7600098c.0165405,8.1793213,6.6605835,14.7965698,14.8399048,14.7800598.0066528-.0000305.0133667-.0000305.0200806-.000061l34.4299927-.1000061c3.6671753-.0110474,6.6489258,2.9528198,6.6599731,6.6199646v.0000305c-.0076904,2.3027344-1.1922607,4.4416809-3.1400146,5.6700134-10.4197388,6.648468-13.4769287,20.4849548-6.8284912,30.9046936,6.6484375,10.4197388,20.4849854,13.4769592,30.9047241,6.8284912,10.4197388-6.648468,13.4769287-20.4849548,6.8284912-30.9046936-1.7963867-2.8153076-4.2000122-5.1929321-7.034729-6.9584961-1.9178467-1.2113953-3.0805054-3.3215942-3.0800171-5.5899963-.0166016-3.6671448,2.942749-6.6533813,6.6098633-6.6699829.003418,0,.0067749-.0000305.0101318-.0000305l34.539978-.1000061c8.1865234-.0275574,14.802124-6.6834717,14.7800293-14.8699951l-.1099854-34.5299988c-.0054932-3.6671753-2.9827881-6.6355286-6.6499634-6.6300354-.0033569,0-.0066528.0000305-.0100098.0000305Z"/>
  <g>
    <path class="uuid-9e9e8d21-9d34-4c30-b054-9209aad56d83" d="M981.453159,358.3111613h-12s-4.3900146,1.1600037-5.5900269,3.0899963c-6.5373535,10.4897766-20.3406372,13.6938477-30.8303833,7.1564941-10.4898071-6.537384-13.6938477-20.3406067-7.1564941-30.8304138,6.5373535-10.4897766,20.3405762-13.6938477,30.8303833-7.1564636,2.8308716,1.7642212,5.2315674,4.138916,7.0264893,6.9503784,1.2227173,1.9500122,3.3583374,3.1385803,5.6599731,3.1499939h12.0999756"/>
    <path class="uuid-9e9e8d21-9d34-4c30-b054-9209aad56d83" d="M979.0131566,284.8011515l-52.4299927.1000061c-3.6671753.0110474-6.6489258-2.9528198-6.6599731-6.6199646v-.0000305c.0039673-2.3037109,1.1893921-4.4443359,3.1400146-5.6700134,10.4197388-6.648468,13.4769287-20.4849701,6.8284912-30.9046936-6.6484375-10.4197388-20.4849854-13.4769592-30.9047241-6.8284912-10.4197388,6.6484528-13.4769287,20.4849701-6.8284912,30.9046936,1.7963867,2.8153076,4.2000122,5.1929321,7.034729,6.9584961,1.9178467,1.2113953,3.0805054,3.3215942,3.0800171,5.5899963.0111084,3.6688232-2.9511719,6.6534729-6.6199951,6.6700134l-34.539978.1000061c-8.1865234.0275574-14.802124,6.6834717-14.7800293,14.8699951l.1099854,36.8699951c.984314,2.5849609,3.4639282,4.2924805,6.2299805,4.2900085,2.3034668-.0231934,4.4350586-1.2229004,5.6500244-3.1799927,6.5914917-10.4558411,20.4111328-13.588501,30.8670044-6.9969788,10.4558105,6.5914917,13.588501,20.4111328,6.9969482,30.8669739-6.5914917,10.4558411-20.4111328,13.588501-30.8669434,6.9969788-2.8251953-1.7810364-5.2159424-4.1717834-6.9970093-6.9969788-1.2230835-1.9065247-3.3348389-3.0566711-5.5999756-3.0499878-2.7660522.0133972-5.2350464,1.7376709-6.2000122,4.3299866l.1199951,36.7600098c.0165405,8.1793213,6.6605835,14.7965698,14.8399048,14.7800598.0066528-.0000305.0133667-.0000305.0200806-.000061l34.4299927-.1000061c3.6671753-.0110474,6.6489258,2.9528198,6.6599731,6.6199646v.0000305c-.0076904,2.3027344-1.1922607,4.4416809-3.1400146,5.6700134-10.4197388,6.648468-13.4769287,20.4849548-6.8284912,30.9046936,6.6484375,10.4197388,20.4849854,13.4769592,30.9047241,6.8284912,10.4197388-6.648468,13.4769287-20.4849548,6.8284912-30.9046936-1.7963867-2.8153076-4.2000122-5.1929321-7.034729-6.9584961-1.9178467-1.2113953-3.0805054-3.3215942-3.0800171-5.5899963-.0166016-3.6671448,2.942749-6.6533813,6.6098633-6.6699829.003418,0,.0067749-.0000305.0101318-.0000305l49.0900269-.1000061"/>
    <path class="uuid-70503775-4625-42b6-bd5e-fa7ba3fa61e0" d="M846.6431614,399.9011576l-.1099854-34.4299927c-.0110474-3.6671448,2.9527588-6.6489258,6.6199341-6.6600037h.000061c2.3037109.0039673,4.4443359,1.1894226,5.6699829,3.1400146,6.6484375,10.4197388,20.4849854,13.4769592,30.9047241,6.8284912,10.4196777-6.648468,13.4769287-20.4849854,6.8284912-30.9046936-6.6484985-10.4197388-20.4849854-13.4769592-30.9047241-6.8284912-2.8153076,1.7963562-5.1929321,4.1999817-6.9584961,7.0346985-1.2087402,1.9206848-3.3206787,3.0843201-5.5900269,3.0799866-3.6616211.016571-6.6433716-2.9383545-6.6599121-6.5999451-.000061-.0066833-.000061-.0133667-.000061-.02005l-.1099854-34.5299988c-.0220337-8.184845-6.6750488-14.802063-14.8598633-14.7800293-.0033569,0-.0067749.0000305-.0101318.0000305l-34.5299683.1000061c-3.6671753.0110168-6.6310425,2.9927673-6.6200562,6.6599121.000061.0033569.000061.0067444.000061.0101013-.0043335,2.2693481,1.1593018,4.3812866,3.0800171,5.5899963,10.4915161,6.5345764,13.6992798,20.3369446,7.1647339,30.8284912-6.5346069,10.4915161-20.3369751,13.6992798-30.8284912,7.1647034-10.4915771-6.5345764-13.6992798-20.3369446-7.1647339-30.8284912,1.765564-2.8347168,4.1431885-5.2383423,6.9584961-7.0346985,1.9477539-1.2283325,3.1323242-3.3672791,3.1400146-5.6700134-.0110474-3.6671448-2.9927979-6.631012-6.6599731-6.6199951h0l-34.4299927.1000061c-8.1865234.0275574-14.802124,6.6834717-14.7800293,14.8699951l.1099854,34.4299927c.012085,3.6671448-2.9509277,6.6497803-6.618042,6.6618652-2.3102417.0075989-4.458313-1.1860657-5.671936-3.1518555-6.6512451-10.42453-20.4938354-13.4833679-30.918396-6.8321533-10.4244995,6.6512451-13.4833374,20.493866-6.8321533,30.918396,6.6512451,10.4244995,20.4938965,13.4833679,30.918396,6.8321228,2.8168335-1.7972412,5.1956787-4.2021484,6.9621582-7.0383606,1.2084351-1.9172363,3.3137207-3.0830383,5.5800171-3.0899963,3.6687622-.0055237,6.6489258,2.9612122,6.6599731,6.6300049l.0999756,34.5299988"/>
    <g>
      <path class="uuid-b49ff95b-70cd-40c4-a4aa-62840240e762" d="M537.4231602,317.9111369l-29.9200134-26.7799988-83,97.6799927s-100.2399902-53.1799927-131.8600006-60.9400024c-11.7799988-2.8999939,28.2200012,80.269989,28.2200012,80.269989l63.1999969,27c32.5267944,11.6337891,68.8262024.3320312,89-27.7099915l64.3600159-89.519989Z"/>
      <path class="uuid-d6c94a9d-d270-4a9b-ad09-c78d6bfa24c1" d="M545.0131566,304.6811564l36.75-10.4299927c2.1558228-.6073914,3.4189453-2.8390808,2.8299866-5-.5254211-2.0308533-2.5083313-3.3297119-4.5799866-3l-36.7399902,5.8299866,1.7399902,12.6000061Z"/>
    </g>
  </g>
  <path class="uuid-17220cd2-ac03-46a9-9d89-c832dcca335a" d="M548.5131566,294.9511454l10.1900024-3.6199951,4.8999939-1.730011,20.9200134-7.4200134c2.1011963-.749939,3.2103882-3.0485229,2.4899902-5.1600037-.673645-1.968689-2.7179871-3.1178589-4.75-2.6700134l-36.25,8.1499939,2.5,12.4500427Z"/>
  <path class="uuid-1d1ef736-f8ad-4e77-89df-9a07bbc5e54f" d="M560.2131688,290.8011515l3.3900146-1.2000122,20.9200134-7.4200134c2.1011658-.7499084,3.2104187-3.0484924,2.4900208-5.1600037-.673645-1.968689-2.7179871-3.1178589-4.75-2.6700134l-36.25,8.1499939,2.5400085,12.4500122"/>
  <path class="uuid-17220cd2-ac03-46a9-9d89-c832dcca335a" d="M548.4031712,285.7011454l35.2600098-14.6799927c2.0586548-.8575134,3.0473633-3.2090759,2.2199707-5.2799988-.7680664-1.940979-2.882843-2.9832153-4.8900146-2.4100037l-35.7999878,10.0799866,3.210022,12.2900085Z"/>
  <path class="uuid-1d1ef736-f8ad-4e77-89df-9a07bbc5e54f" d="M558.0131566,281.7111552l25.6900024-10.6900024c2.0586548-.8575134,3.0473633-3.2090759,2.2199707-5.2799988-.7680664-1.940979-2.882843-2.9832153-4.8900146-2.4100037l-35.7999878,10.0799866,3.2099915,12.2900085"/>
  <path class="uuid-17220cd2-ac03-46a9-9d89-c832dcca335a" d="M547.723148,278.6111491l27.5599976-15.5899963c1.9356079-1.0953674,2.6562195-3.526825,1.6300049-5.5-.9701843-1.8717346-3.194397-2.7122803-5.1600037-1.9499969l-27.2000122,10.5099945,3.1700134,12.5299988Z"/>
  <path class="uuid-17220cd2-ac03-46a9-9d89-c832dcca335a" d="M532.8031651,319.1611369c9.5799866-1.4400024,21.3899841-10.0899963,26.2799988-17.6300049l.6099854-.9299927-12.3299866-35.519989-6.1700134,2c-11.7729492,3.8176575-22.2736511,10.7904968-30.3599854,20.1600037l-4.5100098,5.2200012,19.769989,24.2600098"/>
  <g>
    <path class="uuid-1d1ef736-f8ad-4e77-89df-9a07bbc5e54f" d="M534.2431675,319.1611369c8.7600098-2,19.9500122-10.0899963,24.8399963-17.6300049l.6099854-.9299927-5.9500122-17.519989"/>
    <path class="uuid-1d1ef736-f8ad-4e77-89df-9a07bbc5e54f" d="M553.43317,275.3811381l21.8500061-12.3599854c1.9356079-1.0953674,2.6562195-3.526825,1.6300049-5.5-.9701843-1.8717346-3.194397-2.7122803-5.1600037-1.9499969l-30.9299927,11.8199921s-24,9-34.5,25.1099854"/>
    <path class="uuid-f2227218-a8dc-44c2-a4ce-98d82a8281c1" d="M527.1631505,281.3711588c-.282196-2.3231201-1.7407837-4.3372192-3.8599854-5.3299866-11.5647888-5.3605042-16.5943298-19.0811615-11.2338257-30.6459503,5.3605042-11.5647736,19.0811462-16.5943298,30.6459351-11.2338257,11.5647888,5.3605042,16.5943298,19.0811615,11.2338257,30.6459503-1.4491272,3.1263428-3.579895,5.8885193-6.2359314,8.0838318-1.839386,1.5026855-2.7825317,3.8417053-2.5,6.2000122.4778137,3.7527161,3.9072571,6.4076233,7.6600037,5.9299927l35.2200012-4.4500122c8.3721313-1.0597229,14.2999878-8.705719,13.2402344-17.0778198-.000061-.0007324-.0001831-.0014343-.0002441-.0021667l-4.4500122-35.2200012c-.4716187-3.7546234,2.1862183-7.1820221,5.9400024-7.6600037,2.3202515-.2980194,4.6310425.6157379,6.1199951,2.4199982,8.0625,9.8729553,22.6020508,11.3406067,32.4750366,3.2780914,9.8729248-8.0625153,11.3405762-22.602066,3.2780762-32.4750214-8.0625-9.8729553-22.6020508-11.3406067-32.4750366-3.2780914-2.6655884,2.1767731-4.8106079,4.9221191-6.2780762,8.0350189-.9862061,2.1697693-3.0181274,3.6805267-5.3800049,4-3.7467651.4817352-7.1746826-2.1651001-7.6564331-5.9118958-.0011597-.0093689-.0023804-.0187378-.00354-.0281067l-4.4699707-35.3300018c-1.0583496-8.3722839-8.7033386-14.3014221-17.0756226-13.243103-.0081177.0010223-.0162659.0020599-.0243835.0030975l-35.2200012,4.4499969c-3.7525635.4713745-7.177063-2.1876526-7.6499939-5.9400024-.2847595-2.3557129.6591187-4.6927795,2.5-6.1900024,9.8269653-8.1184692,11.2120056-22.6661453,3.0935059-32.4931183-8.1184692-9.8269806-22.6661377-11.211998-32.493103-3.0935211-9.8269958,8.1184769-11.2120056,22.6661377-3.0935364,32.4931183,2.1925049,2.6539001,4.9508972,4.7837372,8.0731201,6.2335205,2.1166992.9958038,3.5741577,3.0083008,3.8599854,5.3300018.4824219,3.7466888-2.1637573,7.1750793-5.9104614,7.6575165-.0065002.0008392-.013031.0016632-.0195312.0024872l-35.3300171,4.4700012c-8.3728027,1.0542755-14.3056335,8.6964264-13.2513733,17.0692139.0004578.0036011.0009155.0071869.0013733.010788l4.4500122,35.2200012c.4776306,3.7527466-2.1772766,7.1821899-5.9299927,7.6600037-2.3601074.2801666-4.6994629-.6668854-6.2000122-2.5099945-8.1227417-9.8234406-22.6710205-11.2021332-32.4944763-3.0793915-9.8234253,8.122757-11.2021179,22.6710205-3.0793762,32.4944763,8.1227417,9.8234406,22.6710205,11.2021332,32.4944763,3.0793762,2.6525574-2.1933289,4.7809448-4.9521484,6.2293701-8.0744629.9927673-2.1192017,3.0068665-3.5778046,5.3299866-3.8600006,3.747406-.4769897,7.171936,2.1741943,7.6489258,5.9215851.0003662.0027924.0007019.0056.0010681.0084076l4.4700012,35.3299866c1.0542603,8.3728027,8.6964111,14.3056335,17.0692139,13.2513733.0036011-.0004578.0071716-.0009155.0107727-.0013733l35.3299866-4.4700012c3.7537231-.4710083,6.4148865-3.895813,5.9439087-7.6495056-.0012817-.0101624-.002594-.0203247-.0039062-.0304871h.0000305Z"/>
  </g>
  <path class="uuid-17220cd2-ac03-46a9-9d89-c832dcca335a" d="M427.9131505,248.3411448l24.3899841-20.6000061c1.7098999-1.4508972,1.9702454-3.9925842.5899963-5.7599945-1.3060608-1.6792755-3.6650085-2.1097412-5.480011-1l-25,15.5200043,5.5000305,11.8399963Z"/>
  <path class="uuid-1d00a843-78ee-46df-9836-78cf68e59fee" d="M434.3831517,243.0811503l17.9200134-15.3399963c1.7098999-1.4508972,1.9702454-3.9925842.5899963-5.7599945-1.3060608-1.6792755-3.6650085-2.1097412-5.480011-1l-34.3999939,20.9300079"/>
  <path class="uuid-17220cd2-ac03-46a9-9d89-c832dcca335a" d="M431.0131566,253.1911509l32-21.4600067c1.8712463-1.2507629,2.3883667-3.7739716,1.1600037-5.6600037-1.1473389-1.7668152-3.4448242-2.3800507-5.3200073-1.4199982l-33.4200134,17,5.5800171,11.5400085Z"/>
  <g>
    <path class="uuid-1d00a843-78ee-46df-9836-78cf68e59fee" d="M439.68317,247.3611491l23.3299866-15.6300049c1.8712463-1.2507629,2.3883667-3.7739716,1.1600037-5.6600037-1.1473389-1.7668152-3.4448242-2.3800507-5.3200073-1.4199982l-33.4200134,17"/>
    <g>
      <path class="uuid-70503775-4625-42b6-bd5e-fa7ba3fa61e0" d="M273.4031559,434.0811503l30.9300079,237.1600342,12.4499969,169.539978,26.8199921,12,25.5299988-1s13.4400024-255.3400269-19.2200012-373.5499878c-49.3099976-39.6300049-76.5100098-44.1499939-76.5100098-44.1499939l.0000153-.0000305Z"/>
      <path class="uuid-70503775-4625-42b6-bd5e-fa7ba3fa61e0" d="M273.1931492,656.8411601l.2100067-222.7600098s28.0699921-10.8099976,77.3899994,28.7799988c24.4200134,97.2200012,22.1300049,229.8000183,20.6799927,314.5499573l-106.8999939,15.9400024,8.6199951-136.5099487Z"/>
      <path class="uuid-9e9e8d21-9d34-4c30-b054-9209aad56d83" d="M306.7231633,474.8311503c17.2899933,68.6099854,14.9199982,243.3900146,13.8899994,303.25"/>
      <path class="uuid-038e67bb-7dc4-4a54-8b97-128c290b2b5a" d="M279.8331639,778.0811503l24.4900055-.0800171v30.6599731l-24.2100067.0700073c-8.4606934.0720825-15.3778534-6.7282715-15.4499054-15.1889648-.0000305-.0037231-.000061-.0073853-.0000916-.0110474-.0666199-8.4511719,6.7190399-15.3620605,15.1699982-15.4500122v.000061Z"/>
    </g>
  </g>
  <path class="uuid-1f389b5c-9323-4bfd-bf63-f1d8e9958abb" d="M228.0131566,598.4811747l21.1999969-194.7600098,66.8700104,65.0700073s10.5,124.1699829-32,198.6199951c-18.5556183,32.1938477-38.8005524,63.3840942-60.6499939,93.4400024l-84.5599976-38,89.1399841-124.3699951Z"/>
  <g>
    <path class="uuid-70503775-4625-42b6-bd5e-fa7ba3fa61e0" d="M317.2631566,491.0811503c5.2599945,56.5200195-9.6900024,136-32.7099915,176.2999878-18.5578308,32.18927-38.8027039,63.3760376-60.6499939,93.4299927l-96.3199997-48,88.6100082-106.7299805,4.1000061-47.6599731c2.3600006-27.4176636,9.398407-54.2285767,20.8099976-79.269989l75.4599915-10.3599854"/>
    <path class="uuid-038e67bb-7dc4-4a54-8b97-128c290b2b5a" d="M317.2631566,491.0811503c5.2599945,56.5200195-9.6900024,136-32.7099915,176.2999878l-13.4700012,22.7800293-2.1699982,34.4099731s45-59.6099854,52.1800079-136.7299805c6.9199982-73.9899902-3.8300018-96.7600098-3.8300018-96.7600098h-.0000153Z"/>
    <path class="uuid-038e67bb-7dc4-4a54-8b97-128c290b2b5a" d="M131.2631566,733.8211405c-6.9849625-4.7827759-8.775116-14.3198242-4-21.3099976,4.7827644-6.9849854,14.3198013-8.7750854,21.3099976-4l18,13.0800171-17.2799988,25.2999878-18.0299988-13.0700073Z"/>
    <path class="uuid-b49ff95b-70cd-40c4-a4aa-62840240e762" d="M130.0131566,776.5911601l19.3199997-29.7000122,17.340004-25.2800293,57.2700043,39.2299805c-6.5599976,9.0700073-14.6000061,19-20.1600037,26.289978-16.8099976,22-26.2799988,33.6199951-26.2799988,33.6199951l-9.1699982,32-38.3200073-76.1599121Z"/>
    <path class="uuid-70503775-4625-42b6-bd5e-fa7ba3fa61e0" d="M409.6231419,380.991154l-.480011,4.1400146-.5400085-4.6900024,1.0200195.5499878Z"/>
    <path class="uuid-16c3eeb3-2a6e-49c3-b7b9-35570d7c0fa4" d="M377.2731663,430.9811442l-56.4100037-22.8399963s-40-83.1699829-28.2200012-80.269989c16.3099976,4,48.6799927,18.8500061,74.4899902,31.4700012l10.1400146,71.6399841Z"/>
  </g>
  <path class="uuid-350a1f93-45c8-4b3e-94e7-ea2c3e9906c8" d="M241.0131566,478.9711649l110-15.8900146-24.5700073-101.7000122c-5.2815247-21.8692932-26.3452301-36.1212158-48.6100006-32.8900146-21.5042419,3.1166992-37.4249878,21.6013489-37.3199921,43.3300171l.5,107.1500244Z"/>
  <path class="uuid-9e9e8d21-9d34-4c30-b054-9209aad56d83" d="M277.8231541,328.4411356c-21.5042419,3.1166992-37.4250031,21.6013489-37.3200073,43.3300171l.5200043,107.2000122,109.9900055-15.8900146-25.5700073-105.7099915"/>
  <path class="uuid-17220cd2-ac03-46a9-9d89-c832dcca335a" d="M443.7531468,379.5611613l-7.7999878-110-40.1199951-1.4400024-5.0799866,120.3800049-94.3999939-28.3099976,6.0899963,61.5,77.4100037,19.1300049c28.7131653,6.099823,56.9346619-12.2319031,63.0344849-40.9450684.9048157-4.2592468,1.2828369-8.6134949,1.1255188-12.9649353l-.2600403-7.3500061Z"/>
  <path class="uuid-9e9e8d21-9d34-4c30-b054-9209aad56d83" d="M443.7531468,379.5611613l-7.7999878-110-40.1199951-1.4400024-5.0799866,120.3800049-89.4199982-26.9200134,8.0500031,61.7600098,70.4700012,17.5100098c28.7130432,6.1004333,56.934906-12.2307129,63.0353394-40.9437561.9071045-4.2694702,1.2848511-8.6343994,1.1246643-12.9962463l-.2600403-7.3500061Z"/>
  <path class="uuid-17220cd2-ac03-46a9-9d89-c832dcca335a" d="M410.4431492,279.4511454l8.1600037-38.0599976c.8471069-3.956665-1.6014709-7.8708038-5.5299988-8.8399963l-2.3399963-.5800018-9.6600037,12.9400024c-2.8927307,3.8733063-4.5483398,8.5299072-4.75,13.3600006l-.8599854,20.2000122,14.9799805.9799805Z"/>
  <path class="uuid-1d00a843-78ee-46df-9836-78cf68e59fee" d="M410.7331578,231.9711497l-9.6600037,12.9400024c-2.8927307,3.8733063-4.5483398,8.5299072-4.75,13.3600006l-.8599854,20.2000122"/>
  <path class="uuid-1d00a843-78ee-46df-9836-78cf68e59fee" d="M410.7331578,231.9711497l2.3399963.5800018c3.9285278.9691925,6.3771057,4.8833313,5.5299988,8.8399963l-2.3399963,10.9299927s13,1.2100067,19.2200012,16.5899963"/>
  <path class="uuid-17220cd2-ac03-46a9-9d89-c832dcca335a" d="M449.4031712,262.2711527l-26.9500122-25.9499969-12.2000122,7.1900024-13.3099976,35.2700043,38.4700012,6.8099976c7.3280334-5.3132629,12.282196-13.2865906,13.7999878-22.2099915l.190033-1.1100159Z"/>
  <path class="uuid-17220cd2-ac03-46a9-9d89-c832dcca335a" d="M434.4631688,259.7911417l9.4599915-5.3999939,4.5499878-2.6000061,19.4400024-11.1000061c1.9537354-1.1142883,2.6489258-3.5920105,1.5599976-5.5599976-1.0166931-1.8430176-3.2614746-2.6200562-5.2000122-1.8000031l-34.5599976,14.5699921,4.7500305,11.8900146Z"/>
  <g>
    <path class="uuid-1d00a843-78ee-46df-9836-78cf68e59fee" d="M445.3331639,253.5911448l3.1400146-1.8000031,19.4400024-11.1000061c1.9537354-1.1142883,2.6489258-3.5920105,1.5599976-5.5599976-1.0166931-1.8430176-3.2614746-2.6200562-5.2000122-1.8000031l-34.5599976,14.5699921"/>
    <path class="uuid-70503775-4625-42b6-bd5e-fa7ba3fa61e0" d="M242.2231633,475.741154l-4.4400024-9.3299866c-1.7100067-3.6000061,1-7.6300049,5.4400024-8l105.0800018-8.4899902c4.6099854-.3699951,8.2000122,3.480011,6.8800049,7.3999939l-3.6300049,10.7600098-109.3300018,7.6599731Z"/>
    <rect class="uuid-97a909d8-125e-47f8-87ab-d109d2fd74f7" x="236.7692862" y="465.5855702" width="120.6100028" height="10.5400087" rx="5.2699878" ry="5.2699878" transform="translate(-43.9154798 30.7600361) rotate(-5.5200001)"/>
    <path class="uuid-1d00a843-78ee-46df-9836-78cf68e59fee" d="M435.4131505,285.8411601c7.339447-5.4129944,12.2877808-13.4666138,13.7999878-22.4599915l.1900024-1.1099854"/>
  </g>
  <path class="uuid-17220cd2-ac03-46a9-9d89-c832dcca335a" d="M435.0131566,269.4711649l34.1400146-17.8500061c1.9927673-1.042923,2.7770996-3.493927,1.7600098-5.5-.9408875-1.8813934-3.1529846-2.7454834-5.1199951-2l-35.0800171,13.2799988,4.2999878,12.0700073Z"/>
  <g>
    <path class="uuid-1d00a843-78ee-46df-9836-78cf68e59fee" d="M449.5131566,262.1511576l19.6799927-10.5299988c1.9927673-1.042923,2.7770996-3.493927,1.7600098-5.5-.9408875-1.8813934-3.1529846-2.7454834-5.1199951-2l-28.519989,10.8000031"/>
    <g>
      <path class="uuid-16c3eeb3-2a6e-49c3-b7b9-35570d7c0fa4" d="M286.6431614,351.2111552l73.1300049,28.0499878,7.9899902,69.6799927,8.3399963,9.6499939-88.5400085-27.9299927"/>
      <path class="uuid-038e67bb-7dc4-4a54-8b97-128c290b2b5a" d="M379.8531529,440.8511393c3.374939.7159119,6.8105469,1.1076965,10.2600098,1.1700134l.4899902,4.3099976c.7207336,6.3070984-3.8079224,12.0042725-10.1149902,12.7250061-6.3070984.7207031-12.0042725-3.8079224-12.7250061-10.1150208h0l-1.2600098-10.9299927,13.3500061,2.8399963Z"/>
      <path class="uuid-b49ff95b-70cd-40c4-a4aa-62840240e762" d="M333.0631443,820.1811259l25.8699951,1.9000244,12.0799866-23c.1700134-6.7600098.3299866-14,.4599915-21.7199707l-67.269989.5499878v42.4099731l.1699982-.1900024,28.6900177.0499878Z"/>
      <path class="uuid-f2227218-a8dc-44c2-a4ce-98d82a8281c1" d="M332.7531468,891.3611796l.2099915-14.2199707c.0210571-1.4026489,1.1751709-2.522644,2.5778198-2.5015869.7620544.0114136,1.4786682.3644409,1.952179.9616089l5.3399963,6.7700195c6.6703796,5.9896851,15.2955017,9.3423462,24.2600098,9.4299927l61.2900085.6400146-.0499878-10.1400146c.0304871-12.8264771-8.2963257-24.1774902-20.5400085-28l-1-.2700195-18.8899841-5c-10.8255615-3.4301147-18.0413208-13.6507568-17.6499939-25,.1499939-4.3800049.3099976-9.6500244.4899902-15.9400024.0800171-2.8733521.1600037-5.8533325.2399902-8.9400024h-24.6199951c-7.3453674,0-13.2999878,5.9545898-13.2999878,13.2999878v7.75h-28.7400055l-.1699982.1900024-.0899963,70.6900024,28.6899719.2799683Z"/>
      <path class="uuid-038e67bb-7dc4-4a54-8b97-128c290b2b5a" d="M333.0131566,877.1411479c.0210571-1.4026489,1.1751709-2.522644,2.5778198-2.5015869.7620544.0114136,1.4786682.3644409,1.952179.9616089l5.3399963,6.7700195c6.6703796,5.9896851,15.2955017,9.3423462,24.2600098,9.4299927l61.2900085.6400146-.0499878-10.1400146c-.0237122-3.6216431-.7012329-7.2092285-2-10.5900269h-122.3000031v19.3400269l28.6899872.3099976.2399902-14.2200317Z"/>
      <g>
        <path class="uuid-9e9e8d21-9d34-4c30-b054-9209aad56d83" d="M333.0631443,820.1811259s.480011,35.4400024,57,39.2700195"/>
        <g>
          <path class="uuid-1d1ef736-f8ad-4e77-89df-9a07bbc5e54f" d="M379.6431614,835.1311381s-5.7600098-4.5100098-11,2.2399902"/>
          <path class="uuid-1d1ef736-f8ad-4e77-89df-9a07bbc5e54f" d="M377.0831639,828.9211771s-5.7600098-4.5100098-11,2.2399902"/>
          <path class="uuid-1d1ef736-f8ad-4e77-89df-9a07bbc5e54f" d="M374.5331456,822.7111552s-5.7600098-4.5100098-11,2.25"/>
          <path class="uuid-1d1ef736-f8ad-4e77-89df-9a07bbc5e54f" d="M381.3631627,825.5011332s13.3999939-16.5100098,16.6799927-9c3.2799988,7.5100098-9.2799988,12.7299805-9,8.3300171.2799988-4.3999634,10.8999939-4.7600098,13.0799866,1.3800049s-10.5400085,6.8699951-19.5799866,3.6799927"/>
          <path class="uuid-1d1ef736-f8ad-4e77-89df-9a07bbc5e54f" d="M304.0631596,852.7511332h6.1999969c4.3724213-.0021973,8.4590302,2.1723633,10.8999939,5.7999878l8.8500061,13.1599731"/>
          <path class="uuid-1d1ef736-f8ad-4e77-89df-9a07bbc5e54f" d="M304.3231541,827.4511454h30.2099915"/>
        </g>
      </g>
      <path class="uuid-f2227218-a8dc-44c2-a4ce-98d82a8281c1" d="M121.0131566,836.1811259l8.5200005-11.3800049c.8412933-1.1225586,2.4332886-1.3505249,3.5558243-.5092163.6081619.4557495.9802666,1.1599731,1.0141754,1.9191895l.3499985,8.6199951c1.8798103,8.7612915,6.8892403,16.5367432,14.0900002,21.8699951l49.2299957,36.5200195,5.9199982-8.2399902c7.5438843-10.3634033,7.4668732-24.4298096-.1900024-34.710022l-.6199951-.789978-12.3399963-15.1599731c-6.7510681-9.1356201-6.5916367-21.649292.3899994-30.6099854,2.6999969-3.4500122,5.9300003-7.6199951,9.7700043-12.6099854,1.7466583-2.2666626,3.5599976-4.6300659,5.4400024-7.0900269l-19.9499969-14.4799805c-5.9431992-4.310791-14.2552948-2.9903564-18.5699997,2.9500122l-4.5500031,6.2700195-23.2200012-16.8699951-.2600021.0499878-41.5800018,57.1500244,23,17.0999146Z"/>
      <path class="uuid-038e67bb-7dc4-4a54-8b97-128c290b2b5a" d="M129.5731579,824.801121c.8412933-1.1225586,2.4332886-1.3505249,3.5558243-.5092163.6081619.4557495.9802666,1.1599731,1.0141754,1.9191895l.3499985,8.6199951c1.8798103,8.7612915,6.8892403,16.5367432,14.0900002,21.8699951l49.2300034,36.5200195,5.9199982-8.2399902c2.1123199-2.9365845,3.6711731-6.2338867,4.6000061-9.7299805l-98.9400024-71.7999878-11.3800011,15.6300049,23,17.0999756,8.5599976-11.3800049Z"/>
      <g>
        <path class="uuid-9e9e8d21-9d34-4c30-b054-9209aad56d83" d="M163.113155,778.7511332s-20.4300003,29,23.0599976,65.2700195"/>
        <g>
          <path class="uuid-1d1ef736-f8ad-4e77-89df-9a07bbc5e54f" d="M192.0131566,818.2111552s-2-7-10.2399979-4.6599731"/>
          <path class="uuid-1d1ef736-f8ad-4e77-89df-9a07bbc5e54f" d="M193.6031529,811.6811259s-2-7-10.2399979-4.6599731"/>
          <path class="uuid-1d1ef736-f8ad-4e77-89df-9a07bbc5e54f" d="M195.1831547,805.1611674s-2-7-10.25-4.6599731"/>
          <path class="uuid-1d1ef736-f8ad-4e77-89df-9a07bbc5e54f" d="M199.0731541,811.4311259s20.5400085-5.5,18.8099976,2.4699707c-1.730011,7.9699707-15,4.8599854-12.1499939,1.4799805,2.8500061-3.3800049,11.6199951,2.5499878,9.7700043,8.7999878-1.8499908,6.25-12.5599976-.6300049-18-8.5200195"/>
          <path class="uuid-1d1ef736-f8ad-4e77-89df-9a07bbc5e54f" d="M135.5831562,767.761143l24.4400024,17.7399902"/>
        </g>
      </g>
    </g>
  </g>
  <path class="uuid-1f389b5c-9323-4bfd-bf63-f1d8e9958abb" d="M251.8774684,465.623806l8.5915002-.7003117,1.4786182,18.1398489-8.5915002.7003117-1.4786182-18.1398489Z"/>
  <path class="uuid-1d1ef736-f8ad-4e77-89df-9a07bbc5e54f" d="M253.3531529,483.7711527l-1.4799957-18.1400146"/>
  <path class="uuid-1d1ef736-f8ad-4e77-89df-9a07bbc5e54f" d="M260.4631535,464.9311564l1.4799957,18.1399841"/>
  <path class="uuid-1f389b5c-9323-4bfd-bf63-f1d8e9958abb" d="M283.9664005,463.2246739l8.5915002-.7003117,1.4786182,18.1398489-8.5915002.7003117-1.4786182-18.1398489Z"/>
  <path class="uuid-1d1ef736-f8ad-4e77-89df-9a07bbc5e54f" d="M285.4431492,481.3711588l-1.4799957-18.1399841"/>
  <path class="uuid-1d1ef736-f8ad-4e77-89df-9a07bbc5e54f" d="M292.5531498,462.5311625l1.4799957,18.1400146"/>
  <path class="uuid-1f389b5c-9323-4bfd-bf63-f1d8e9958abb" d="M335.533148,459.7867416l8.6199951-.6895996,1.4560009,18.2000122-8.6199951.6895996-1.4560009-18.2000122Z"/>
  <g>
    <g>
      <path class="uuid-1d1ef736-f8ad-4e77-89df-9a07bbc5e54f" d="M336.6931492,476.1111491l-1.480011-18.1499939"/>
      <path class="uuid-1d1ef736-f8ad-4e77-89df-9a07bbc5e54f" d="M343.8031651,457.261143l1.480011,18.1400146"/>
      <rect class="uuid-24082049-5ee0-4895-9d64-cde5a0cf7f6b" x="307.897981" y="460.8265757" width="16.8135409" height="19.2212179" rx="5.8686963" ry="5.8686963" transform="translate(-36.5077745 26.7220035) rotate(-4.5739212)"/>
    </g>
    <path class="uuid-9e9e8d21-9d34-4c30-b054-9209aad56d83" d="M180.2431599,730.9411356s64.6900101-68.8300171,73.3100052-98.5300293c8.6199951-29.7000122,20.6000061-119.2600098,20.6000061-119.2600098,0,0,20.1100006-1,23-22"/>
    <path class="uuid-c55cde40-bb19-4733-810f-1795eba521d1" d="M256.4231602,326.3411601s3.3600006-10.5400085,22.5200043-7.6600037c16.2100067,2.4299927,26.1399994,11.6700134,27.7799988,21.0700073"/>
    <path class="uuid-038e67bb-7dc4-4a54-8b97-128c290b2b5a" d="M288.6031529,252.9011576l11.2400055-2.4199982c6.8165894-1.458847,13.5274353,2.876358,15,9.6899872,2.6208344,12.1581726-5.110733,24.1389465-17.2689056,26.7597656-.0003662.0000916-.0007324.0001526-.0010986.0002441l-8.8899994,1.9100037-.0800018-35.9400024Z"/>
  </g>
  <path class="uuid-17220cd2-ac03-46a9-9d89-c832dcca335a" d="M267.8331639,294.3211405l4.3999939,36.3300171,26.8200073,7.1900024,3.4900055,3.8800049-11.1999969-51.980011"/>
  <path class="uuid-1d1ef736-f8ad-4e77-89df-9a07bbc5e54f" d="M302.5431553,341.7211649l-11.1999969-51.980011"/>
  <path class="uuid-c7a24be6-9d79-489c-bc27-485d5b821c3e" d="M295.1331517,307.3411601s-6.8800049,2.1799927-12.7400055,0c3.1199951,7.6600037,15.8600006,14.480011,15.8600006,14.480011l-3.1199951-14.480011Z"/>
  <circle class="uuid-17220cd2-ac03-46a9-9d89-c832dcca335a" cx="286.3731572" cy="290.5711405" r="18.9200058"/>
  <g>
    <path class="uuid-1d1ef736-f8ad-4e77-89df-9a07bbc5e54f" d="M282.7831608,309.1511576c10.2612457,1.9730835,20.1791534-4.7457886,22.1522522-15.007019,1.9730988-10.261261-4.7457886-20.1791687-15.0070343-22.1522522-2.4916382-.4790955-5.0541992-.4521484-7.5352173.0792542"/>
    <path class="uuid-038e67bb-7dc4-4a54-8b97-128c290b2b5a" d="M304.7831608,256.6011546c-.824173-3.70224-4.446991-6.074585-8.1699982-5.3500061-10.5299988,2.1300049-21.5,4.5200043-29.9400024,6.3999939-10.9004669,2.3487091-17.8330383,13.0892792-15.4843292,23.9897308.5933533,2.7537842,1.7563782,5.3529053,3.4143219,7.6302795l2.8600006,3.9200134,12.1900024,16.4200134s9.8300018-2.1199951,7.5800018-14.8699951c-6.5899963-1-5.6999969-10.5299988-1.1799927-10s6.1600037,10.4299927,6.1600037,10.4299927c0,0,1.3699951-.9200134.6300049-7.25-.3277435-3.2093201,1.7301025-6.1794128,4.8500061-7l1.6600037-.3500061c10.8592682-2.3409729,17.7664795-13.0397644,15.4299927-23.8999939l-.0000153-.0700226Z"/>
    <path class="uuid-1d1ef736-f8ad-4e77-89df-9a07bbc5e54f" d="M269.6531559,309.6111491l3.6100006,28.1300049"/>
  </g>
  <path class="uuid-1f389b5c-9323-4bfd-bf63-f1d8e9958abb" d="M301.9331547,340.2311442s-13.9199982-13.8900146-40.7200012-17.2399902c-4.2299957-.3299866-5.5599976,4-5.8399963,7.8900146-.1822968,2.6977539,1.3798981,5.210144,3.8800049,6.2399902,5.4900055,2.2900085,12,4.5499878,12,4.5499878l.6499939-.6499939c3.1955261-3.1969299,7.7459869-4.6403809,12.1999969-3.8699951l17.8300018,3.0799866Z"/>
  <g>
    <g>
      <path class="uuid-1d1ef736-f8ad-4e77-89df-9a07bbc5e54f" d="M294.2631566,338.7911417l-10.1399994-1.6400146c-4.45401-.7703857-9.0044708.6730652-12.1999969,3.8699951l-.6499939.6499939s-6.5299988-2.2600098-12-4.5499878c-2.5001068-1.0298462-4.0623016-3.5422363-3.8800049-6.2399902,0,0,0-5.2099915,3.6300049-8.230011"/>
      <path class="uuid-1d1ef736-f8ad-4e77-89df-9a07bbc5e54f" d="M266.4931523,323.8111613c16.5899963,3.0899963,27.4799957,10.0700073,32.4100037,13.8599854l.5200043.4400024c1.6410828,1.3865051,2.8605652,3.2053223,3.5200043,5.25l3.7799988,11.7200012"/>
      <path class="uuid-d6c94a9d-d270-4a9b-ad09-c78d6bfa24c1" d="M536.0831639,277.7111552l31.9299927-8.6300049.769989,2.2600098c1.3001709,3.7964172-.6535034,7.9385986-4.4100037,9.3500061l-10.3599854,3.9400024s1.5100098,11.0700073-5.480011,17.1199951"/>
    </g>
    <path class="uuid-038e67bb-7dc4-4a54-8b97-128c290b2b5a" d="M619.3431736,637.9711649l1.8300171-37.8900146,50.0700073.6099854-18.1699829,9.0900269c-9.8024292,4.8892822-18.6170654,11.5477295-26,19.6400146l-7.7300415,8.5499878Z"/>
    <g>
      <path class="uuid-9e9e8d21-9d34-4c30-b054-9209aad56d83" d="M713.3831517,497.5311625s38.4699707,20.7600098,86.710022,0"/>
      <path class="uuid-9e9e8d21-9d34-4c30-b054-9209aad56d83" d="M756.7331273,506.7511637v20.6999817"/>
      <path class="uuid-9e9e8d21-9d34-4c30-b054-9209aad56d83" d="M783.7531468,503.9611552l4.5800171,20.1799927"/>
      <path class="uuid-9e9e8d21-9d34-4c30-b054-9209aad56d83" d="M726.663181,502.7311442l-4.5800171,20.1899719"/>
      <path class="uuid-9e9e8d21-9d34-4c30-b054-9209aad56d83" d="M800.0931736,436.4611552h-56.8900146c-20.75.5499878-38.289978,15.5899963-42.6500244,35.8800049l-14.7000122,68.1600342"/>
      <path class="uuid-9e9e8d21-9d34-4c30-b054-9209aad56d83" d="M745.0131566,688.6611674l-13.1300049-7.5800171h-50.4899902c-3.7902832-.0055542-6.8599854-3.0797119-6.8599854-6.8699951v-7c0-3.7886353,3.0713501-6.8599854,6.8599854-6.8599854h84.5v-2.5100098c-.0041504-2.6315308-1.6795044-4.9698486-4.1699829-5.8200073l-40.8599854-13.9400024c-2.9783325-1.0178833-6.2590942-.6124268-8.9000244,1.0999756l-14.4699707,9.3800049-11.7800293-8.9299927c-4.6657104-3.5428467-11.2693481-2.9120483-15.1799927,1.4500122l-3.9000244,5.7800293c-2.711731,4.0199585-1.6511841,9.4770508,2.3687134,12.1887817,1.4537354.9805908,3.1677246,1.503479,4.9212646,1.5012207h7.7000122"/>
      <path class="uuid-9e9e8d21-9d34-4c30-b054-9209aad56d83" d="M856.1531712,448.5811503l3.2399902,124.3599854c.210022,8.0599976,7.5200195,13.789978,14.8900146,11.6699829,3.598938-1.071106,6.4890747-3.7650757,7.8099976-7.2800293l25.7399902-66.1099854c4.0800171-10.5,13.7700195-17.3500061,24.5200195-17.3500061,14.6400146,0,34.4400024,4.6900024,34.4400024,20.1399841l9.1599731,137.4000244h14.4000244c19.1900024,0,19.1199951-12.3200073,25.1300049-30.5499878l32.5299683-163"/>
      <path class="uuid-9e9e8d21-9d34-4c30-b054-9209aad56d83" d="M975.953159,651.4111674l12.8300171,230.8200073"/>
    </g>
    <g>
      <path class="uuid-70503775-4625-42b6-bd5e-fa7ba3fa61e0" d="M905.5431859,517.0811503l4-9.6400146c5.447937-13.0418091,18.1960449-21.5353088,32.3300171-21.5400085,18.9649658-.0069885,34.4852295,15.092041,35,34.0500183l1.2199707,43.2600098c.5615845,20.2124634-6.3411255,39.9237671-19.3900146,55.3699951l-16.3699951,19.3699951"/>
      <path class="uuid-70503775-4625-42b6-bd5e-fa7ba3fa61e0" d="M905.5431859,517.0811503l4-9.6400146c5.447937-13.0418091,18.1960449-21.5353088,32.3300171-21.5400085,18.9649658-.0069885,34.4852295,15.092041,35,34.0500183l1.2199707,43.2600098c.5615845,20.2124634-6.3411255,39.9237671-19.3900146,55.3699951l-16.3699951,19.3699951"/>
      <path class="uuid-70503775-4625-42b6-bd5e-fa7ba3fa61e0" d="M942.0931736,597.5611308l7.6699829-9.0700073c6.1132812-7.236084,9.3458252-16.4710083,9.0800171-25.9400024l-.5700073-20.2600098c-.2224121-8.8986206-7.4986572-15.9973755-16.4000244-16-6.6210938-.0040283-12.5960083,3.9713135-15.1500244,10.0800171l-1.8800049,4.5200195-4.8499756,16c-.8500366,2.7860718.2884521,5.7946777,2.7700195,7.3200073,2.269165,1.3722534,3.4611206,3.9985352,3,6.6099854l-.7000122,3.8599854c-.5557861,3.0478516-3.2119141,5.2619629-6.3099976,5.2600098h-3.2000122"/>
    </g>
  </g>
</svg>