<?xml version="1.0" encoding="UTF-8"?>
<svg id="uuid-99a500ad-4154-4acb-9d0d-8c3796697265" data-name="Ebene 1" xmlns="http://www.w3.org/2000/svg" viewBox="0 0 1140.534809 1049.4504319">
  <defs>
    <style>
      .uuid-73cc2e23-9508-4710-8637-ce9f5dc1bb6b, .uuid-2cbe7bf6-69a4-4da5-9008-7150e0ee8a1d {
        fill: #dad9f3;
      }

      .uuid-73cc2e23-9508-4710-8637-ce9f5dc1bb6b, .uuid-9762d185-3e79-4644-876c-af9252194812, .uuid-e3c8c7fc-cd37-4b95-9358-a895f14adcb1, .uuid-88f91b36-91fa-4c38-adf3-b721ea88616a, .uuid-fab17896-3722-4a32-9945-a8b8f364c739, .uuid-aa3ed85c-1ede-42b0-abf7-7d6f25ca3786, .uuid-dbfd9b78-cb04-4ca3-ac19-583837964eb7, .uuid-3d2e1cf1-48ff-473b-8fc4-6c0ee492fde1, .uuid-376046ae-a5b5-4010-923f-20a0113284f9, .uuid-3b16ed54-0dd5-49ed-91c0-530fde9cce69 {
        stroke-miterlimit: 10;
        stroke-width: 1.6900001px;
      }

      .uuid-73cc2e23-9508-4710-8637-ce9f5dc1bb6b, .uuid-9762d185-3e79-4644-876c-af9252194812, .uuid-e3c8c7fc-cd37-4b95-9358-a895f14adcb1, .uuid-88f91b36-91fa-4c38-adf3-b721ea88616a, .uuid-fab17896-3722-4a32-9945-a8b8f364c739, .uuid-aa3ed85c-1ede-42b0-abf7-7d6f25ca3786, .uuid-dbfd9b78-cb04-4ca3-ac19-583837964eb7, .uuid-3d2e1cf1-48ff-473b-8fc4-6c0ee492fde1, .uuid-3b16ed54-0dd5-49ed-91c0-530fde9cce69 {
        stroke: #1d2b47;
      }

      .uuid-9762d185-3e79-4644-876c-af9252194812, .uuid-517b3065-0050-47c1-b51a-542be59112d7 {
        fill: #f2f2fb;
      }

      .uuid-eb74f967-d9c5-4253-b5b3-a5bf34661475, .uuid-3b16ed54-0dd5-49ed-91c0-530fde9cce69 {
        fill: #0d00ad;
      }

      .uuid-e3c8c7fc-cd37-4b95-9358-a895f14adcb1, .uuid-aa3ed85c-1ede-42b0-abf7-7d6f25ca3786 {
        fill: #8480ce;
      }

      .uuid-88f91b36-91fa-4c38-adf3-b721ea88616a {
        fill: #aface4;
      }

      .uuid-fab17896-3722-4a32-9945-a8b8f364c739, .uuid-00dee97a-b6a3-4171-a7b4-513646beb7be {
        fill: #fff;
      }

      .uuid-aa3ed85c-1ede-42b0-abf7-7d6f25ca3786, .uuid-3d2e1cf1-48ff-473b-8fc4-6c0ee492fde1, .uuid-376046ae-a5b5-4010-923f-20a0113284f9 {
        stroke-linecap: round;
      }

      .uuid-dbfd9b78-cb04-4ca3-ac19-583837964eb7, .uuid-3d2e1cf1-48ff-473b-8fc4-6c0ee492fde1, .uuid-376046ae-a5b5-4010-923f-20a0113284f9 {
        fill: none;
      }

      .uuid-376046ae-a5b5-4010-923f-20a0113284f9 {
        stroke: #1a1c35;
      }
    </style>
  </defs>
  <g>
    <g>
      <path class="uuid-fab17896-3722-4a32-9945-a8b8f364c739" d="M717.1602777,274.8972049V120.8972049h38.3099976v179c-.0220947,16.6845093,13.4854736,30.2278748,30.1699829,30.25h.0100098c16.680603-.0055237,30.2000122-13.5293579,30.2000122-30.2099915V120.9372134h33.8900146v283c.0038452,28.2808228-8.6046753,55.8922729-24.6799927,79.1600037-16.0388184,23.2425537-24.6353149,50.8106384-24.6500244,79.0499878v386.0999756"/>
      <path class="uuid-fab17896-3722-4a32-9945-a8b8f364c739" d="M722.3202508,405.0071903v-132.4100037c-.0054932-11.3455505-9.2044678-20.5400085-20.5499878-20.5400085h-45.3900146c-13.2353516.0000305-23.9724121-10.7146912-24-23.9499969v-106.4499969h-38.2600098v144.7700043c0,13.2216949,10.7183228,23.9400024,23.9400024,23.9400024h45.4000244c11.34552,0,20.5444336,9.1944427,20.5499878,20.5399933v557.3399963"/>
      <path class="uuid-fab17896-3722-4a32-9945-a8b8f364c739" d="M722.3202508,455.3972049v173.8800049"/>
      <path class="uuid-fab17896-3722-4a32-9945-a8b8f364c739" d="M815.8802484,260.9272037v137.7400208"/>
      <path class="uuid-fab17896-3722-4a32-9945-a8b8f364c739" d="M492.4502557,89.2372051c.0073547,19.5398369,15.8535156,35.3740273,35.3933411,35.3666649,4.6710815-.0017624,9.2955627-.9284744,13.6066589-2.7266693,6.4274292,19.9435501,27.8052979,30.9005585,47.7488403,24.4731522,5.1121826-1.6475525,9.8162842-4.3617859,13.8011475-7.96315,9.0369873,18.904747,31.6882935,26.904129,50.5930176,17.8671265,6.4740601-3.0948029,11.9378052-7.9621429,15.756958-14.0371246,15.6081543,16.85186,41.9221802,17.8601074,58.7739868,2.251976.2107544-.1951599.4194336-.3924942.6260376-.5919724,11.0895996,5.7866592,24.3198853,5.7305374,35.3599854-.1500015,3.4378052,20.6697388,22.980835,34.6389771,43.6505737,31.2011566,12.2890625-2.0439148,22.791626-9.9906006,28.0994263-21.2611542,17.4772339,11.5486908,41.0073853,6.7426758,52.5560303-10.7345428.8195801-1.2402649,1.5654907-2.5276337,2.2339478-3.8554535,9.4258423,18.720108,32.2426147,26.2546234,50.9627075,16.8288116,8.5321045-4.2960281,15.130249-11.6517334,18.4772949-20.5988083,19.9467163,6.4175644,41.3192139-4.5499878,47.7367554-24.4967117,1.2125854-3.7688217,1.8277588-7.7042084,1.8232422-11.6632881"/>
      <path class="uuid-fab17896-3722-4a32-9945-a8b8f364c739" d="M440.2802728,99.527206c-15.5412903,0-28.1400146,12.5987053-28.1400146,28.1400032s12.5987244,28.1399994,28.1400146,28.1399994h.8800049c3.8759766,15.0502014,19.2186584,24.1087189,34.2688599,20.2327576,6.0866394-1.5675201,11.4732666-5.1276245,15.3011475-10.1127548,6.2886047,2.409584,13.2334595,2.4805603,19.5700073.1999969,7.0450134,10.4768448,21.2492676,13.2589188,31.7261047,6.2139206,6.3171082-4.2478256,10.1051941-11.3614807,10.1039124-18.9739227"/>
      <path class="uuid-fab17896-3722-4a32-9945-a8b8f364c739" d="M422.9702753,105.4972034s-11.5599976-5.9500008-10.8299866-19.2099991"/>
      <path class="uuid-fab17896-3722-4a32-9945-a8b8f364c739" d="M839.4602655,275.6372104h34.4700317c16.7689819-.0055237,30.3599854-13.6010132,30.3599854-30.3699951V112.0772128h29.4699707v166.3399963c.0055542,16.7673645-13.5826416,30.3644867-30.3499756,30.3700104h-63.9500122"/>
      <path class="uuid-fab17896-3722-4a32-9945-a8b8f364c739" d="M950.7102655,105.447208s-23.5800171,26.5200043-56,3.6800003c-8.8400269,6.6299973-16.210022,2.2099991-17-.7399979"/>
      <path class="uuid-fab17896-3722-4a32-9945-a8b8f364c739" d="M541.6502679,172.5272098s20,28.6399994,52.4299927,6.9400024"/>
      <path class="uuid-fab17896-3722-4a32-9945-a8b8f364c739" d="M632.4302972,180.0572086s17,19,37.5800171,7.1699982c12.5200195,11.7799988,30.9400024,20.6699982,47.1500244,9.6000061"/>
      <path class="uuid-fab17896-3722-4a32-9945-a8b8f364c739" d="M764.3102411,190.9071994s5.1599731,14,24.3099976,11.0500031c9.5800171,13.2599945,16.9500122,12.5299988,27.2600098,8.4700012"/>
      <path class="uuid-fab17896-3722-4a32-9945-a8b8f364c739" d="M869.6502679,179.8572116s8.8400269,17.0699921,34.6199951,11.1100006"/>
      <path class="uuid-fab17896-3722-4a32-9945-a8b8f364c739" d="M776.1002801,578.4371829v196.6799927"/>
      <path class="uuid-fab17896-3722-4a32-9945-a8b8f364c739" d="M515.2802728,742.0272098h-76.2000122c-31.4606934.0275879-56.9500122,25.5393066-56.9500122,57h-3.0799866c-31.4411926.0275879-56.9224548,25.5087891-56.9500122,56.9500122v5.3900146h-7.7000122c-31.4607086.0275879-56.9500122,25.5393066-56.9499969,57v7.7000122"/>
    </g>
    <path class="uuid-73cc2e23-9508-4710-8637-ce9f5dc1bb6b" d="M621.4902948,955.2172122l22.7000122-359.7799683s-43.6300049,7.6400146-122.3500061,71.9100342c-20.6199951,77.1300049-28.7900085,190.3499756-31.1900024,297.7399902"/>
  </g>
  <path class="uuid-2cbe7bf6-69a4-4da5-9008-7150e0ee8a1d" d="M767.8402704,925.5872073l-48.6099854-66.5800171-36.5800171-312.6600037-106.5700073,105.440033s-15.2299805,199.6400146,54.0599976,318.7199707c6.8200073,11.7000122,24.3900146-48.0999756,31.3699951-36.8400269"/>
  <path class="uuid-dbfd9b78-cb04-4ca3-ac19-583837964eb7" d="M761.6602777,918.1772342l-43.2000122-59.1699829-36.5599976-312.6600037-106.5899658,105.4300232"/>
  <path class="uuid-dbfd9b78-cb04-4ca3-ac19-583837964eb7" d="M575.3202508,750.6672244c-.5499878,73.8699951,16.5300293,155.3499756,54.0599976,219.8399658"/>
  <path class="uuid-e3c8c7fc-cd37-4b95-9358-a895f14adcb1" d="M101.9802698,271.7772098h23.4700012c6.7799988,0,13.1800003,3.3800049,18.8399963,9.3999939,14,14.8200073,31.8500061,25.3200073,51.8099976,29.3200073l243.8800201,48.8800049c5.6202087,1.1300964,9.2601624,6.6023254,8.1300659,12.2225647-.8822632,4.3876648-4.477478,7.7157898-8.9200745,8.2574463l-235,28.4700012c-23,2.7900085-44,14-59.7900009,30.9500122-5.6900024,6.0799866-12.1200027,9.5100098-18.9400024,9.5100098h-24.25"/>
  <path class="uuid-fab17896-3722-4a32-9945-a8b8f364c739" d="M116.6502679,291.0172v.75c-9.3899994,16.230011-15.3899994,40.8900146-15.3899994,68.5100098"/>
  <ellipse class="uuid-fab17896-3722-4a32-9945-a8b8f364c739" cx="101.6002639" cy="360.2772098" rx="41.9499979" ry="88.5100098"/>
  <path class="uuid-88f91b36-91fa-4c38-adf3-b721ea88616a" d="M85.7602685,360.6671939c0-31.7099915,8.7799988-58.4599915,20.8099976-66.8899994-2.3402405-1.7389069-5.1649857-2.7037811-8.0800018-2.7599945-16,0-28.9000015,31.1799927-28.9000015,69.6499939s12.9399986,69.6499939,28.9000015,69.6499939c2.9143219-.0601807,5.7378922-1.0246582,8.0800018-2.7600098-12.0299988-8.4100037-20.8099976-35.1900024-20.8099976-66.8900146v.0000305Z"/>
  <ellipse class="uuid-73cc2e23-9508-4710-8637-ce9f5dc1bb6b" cx="106.5702661" cy="360.6671901" rx="20.8099976" ry="66.8899879"/>
  <path class="uuid-9762d185-3e79-4644-876c-af9252194812" d="M209.8202661,403.0172l51-39.519989,121.9199982,166s166.7099915-73.8299866,218.269989-82.6799927c19.2000122-3.2999878-54.3599854,125.4499817-54.3599854,125.4499817l-104.3699951,36c-53.4508667,14.951355-110.3427124-7.2906494-139.4799805-54.5300293l-92.9800262-150.7199707Z"/>
  <g>
    <path class="uuid-fab17896-3722-4a32-9945-a8b8f364c739" d="M410.6502679,555.7672l1.5400085,6.5300293v-7.5800171l-1.5400085,1.0499878Z"/>
    <path class="uuid-fab17896-3722-4a32-9945-a8b8f364c739" d="M471.4102777,608.1472049l75.2399902-35.8800049s76.3499756-133.7000122,57.1400146-130.3999939c-26.5900269,4.5599976-89.5800171,32.730011-132.3800049,50v116.2799988Z"/>
  </g>
  <path class="uuid-00dee97a-b6a3-4171-a7b4-513646beb7be" d="M697.6502679,681.3271976l-178.4799805-5.3200073,20.6499939-166.8599854c4.4248047-35.8759155,35.438446-62.4825745,71.5699768-61.3999939,34.9223022,1.0379333,63.7321777,27.6671143,67.5100098,62.3999939l18.75,171.1799927Z"/>
  <g>
    <path class="uuid-aa3ed85c-1ede-42b0-abf7-7d6f25ca3786" d="M161.2402643,308.6472049v114.8200073c0,9.3099976,6.2599945,16.8599854,14,16.8599854h53.7200012v-148.5399933h-53.7400055c-7.7200012,0-13.9799957,7.5399933-13.9799957,16.8600006Z"/>
    <path class="uuid-fab17896-3722-4a32-9945-a8b8f364c739" d="M218.9702753,297.9372134v.75c-9.3999939,16.2399902-15.3999939,40.8999939-15.3999939,68.519989"/>
    <path class="uuid-dbfd9b78-cb04-4ca3-ac19-583837964eb7" d="M611.3902582,447.7672c34.9154663,1.0366516,63.7229004,27.6550293,67.5100098,62.3800049l18.75,171.1799927-178.4799805-5.3200073,21.480011-173.3399963"/>
    <path class="uuid-3b16ed54-0dd5-49ed-91c0-530fde9cce69" d="M576.6502679,321.0172l-18.4699707-.6600037c-11.1988525-.3936157-20.5984192,8.3614502-21,19.5599976-.7140503,19.9689026,14.8950806,36.7357483,34.8640137,37.4497986.0019531.000061.0039673.0001526.0059814.0002136l14.6099854.519989-10.0100098-56.8699951Z"/>
  </g>
  <path class="uuid-517b3065-0050-47c1-b51a-542be59112d7" d="M621.2002557,380.6671939l3.6500244,70.2099915-45.1900024,14.5599976,3.0599976-85.3800049"/>
  <path class="uuid-3d2e1cf1-48ff-473b-8fc4-6c0ee492fde1" d="M579.6602777,465.4372134l3.0599976-85.3800049"/>
  <path class="uuid-eb74f967-d9c5-4253-b5b3-a5bf34661475" d="M581.6502679,408.9672122s11.5,1.5,20.1500244-3.5799866c-2.7700195,13-21,27.3699951-21,27.3699951l.8499756-23.7900085Z"/>
  <circle class="uuid-517b3065-0050-47c1-b51a-542be59112d7" cx="590.8102411" cy="379.9672122" r="30.4000092"/>
  <path class="uuid-3d2e1cf1-48ff-473b-8fc4-6c0ee492fde1" d="M601.730285,408.3472171c-15.6730347,6.0201721-33.2587891-1.8050232-39.2789917-17.4780579-6.0201416-15.6730042,1.8050537-33.2588196,17.4780884-39.2789612,3.8119507-1.4642334,7.8798218-2.1454468,11.9608765-2.0029907"/>
  <path class="uuid-3b16ed54-0dd5-49ed-91c0-530fde9cce69" d="M552.1102899,331.4171939c.2173462-6.1034546,5.3043823-10.8962708,11.4099731-10.75,17.2700195.3900146,35.2800293,1.0799866,49.1699829,1.6700134,17.9044189.6468811,31.8944092,15.68573,31.2475586,33.5901489-.163269,4.5188599-1.2694702,8.9536743-3.2475586,13.0198364l-3.4099731,7-14.6300049,29.4200134s-16.1500244-.5799866-16.1799927-21.3800049c10.1400146-3.4899902,6-18.2600098-1-16.2000122-7,2.0599976-6.8200073,18.2399902-6.8200073,18.2399902,0,0-2.4199829-1.0700073-3-11.2900085-.3551025-5.2000122-4.4642944-9.3559875-9.6599731-9.769989l-2.7199707-.0899963c-17.8404541-.6402588-31.7854614-15.6193237-31.1500244-33.4599915h-.0100098Z"/>
  <path class="uuid-3d2e1cf1-48ff-473b-8fc4-6c0ee492fde1" d="M622.6302484,405.3672061l2.2199707,45.5100098"/>
  <path class="uuid-e3c8c7fc-cd37-4b95-9358-a895f14adcb1" d="M222.0402673,278.697208h23.4799957c6.7700043,0,13.1699982,3.3899994,18.8300018,9.4100037,14,14.8199921,31.8600006,25.3199921,51.8100128,29.3100128l243.8800049,48.8900146c5.6202393,1.1300964,9.2601929,6.6023254,8.1300659,12.2225342-.8822632,4.3876648-4.477478,7.7158203-8.9200439,8.2574768l-235,28.4700012c-23,2.7900085-44,14-59.7799988,30.9400024-5.6900024,6.0899963-12.1300049,9.519989-18.9400024,9.519989h-24.2599945"/>
  <ellipse class="uuid-fab17896-3722-4a32-9945-a8b8f364c739" cx="221.6602624" cy="367.2072025" rx="41.9499969" ry="88.5100098"/>
  <path class="uuid-88f91b36-91fa-4c38-adf3-b721ea88616a" d="M205.8202661,367.5972171c0-31.7099915,8.7899933-58.4599915,20.8099976-66.8900146-2.339035-1.7424622-5.1638794-2.7108765-8.0800018-2.769989-16,0-28.8899994,31.1900024-28.8899994,69.6600037s12.9300079,69.6499939,28.8899994,69.6499939c2.9161224-.0591125,5.7409668-1.0275269,8.0800018-2.769989-11.9799957-8.4299927-20.8099976-35.1799927-20.8099976-66.8800049Z"/>
  <ellipse class="uuid-73cc2e23-9508-4710-8637-ce9f5dc1bb6b" cx="226.6302637" cy="367.5972171" rx="20.8099976" ry="66.8900146"/>
  <path class="uuid-517b3065-0050-47c1-b51a-542be59112d7" d="M355.8702691,559.7372318l-7.6799927-177,63.7799988-9.5899963,30.1400146,191.2400208,145.539978-62.4899902,1.5100098,99.25-120.0599976,44.7399902c-52.7200012,17.6900024-108-18.9199829-112.3200073-74.3599854l-.9100037-11.7900391Z"/>
  <path class="uuid-dbfd9b78-cb04-4ca3-ac19-583837964eb7" d="M355.8702691,559.7372318l-7.6799927-177,63.7799988-9.5899963,30.1400146,191.2400208,137.8200073-59.3800049-1.539978,100.0499878-109.2900085,40.8300171c-52.7200012,17.6900024-108-18.9199829-112.3200073-74.3599854l-.9100342-11.7900391Z"/>
  <path class="uuid-517b3065-0050-47c1-b51a-542be59112d7" d="M390.7202753,393.8271976l-20-59.25c-2.1001892-6.1642456,1.0993958-12.8785095,7.2099915-15.1300049l3.6300049-1.3500061,17.7900085,18.8800049c5.3135376,5.6602173,8.7983093,12.7901001,10,20.4599915l5.0700073,32.0899963-23.7000122,4.3000183Z"/>
  <g>
    <path class="uuid-376046ae-a5b5-4010-923f-20a0113284f9" d="M381.5602716,318.1472049l17.7900085,18.8800049c5.3135376,5.6602173,8.7983093,12.7901001,10,20.4599915l5.0700073,32.0899963"/>
    <path class="uuid-376046ae-a5b5-4010-923f-20a0113284f9" d="M381.5602716,318.1472049l-3.6300049,1.3500061c-6.1105957,2.2514954-9.3101807,8.9657593-7.2099915,15.1300049l5.7399902,17s-20.5299988,4.3099976-27.6499939,30"/>
    <g>
      <path class="uuid-fab17896-3722-4a32-9945-a8b8f364c739" d="M601.480285,485.7372012l-111.6000061,58.1499939v112.710022l-11.5400085,16.9299927,136.2200317-60.7999878"/>
      <path class="uuid-3b16ed54-0dd5-49ed-91c0-530fde9cce69" d="M469.1002801,645.8871951c-5.2548218,1.7600708-10.6662292,3.0124512-16.1600037,3.7399902v7c0,10.2006836,8.2692871,18.4699707,18.4700012,18.4699707s18.4700012-8.2692871,18.4700012-18.4699707v-17.710022l-20.7799988,6.9700317Z"/>
    </g>
  </g>
  <path class="uuid-517b3065-0050-47c1-b51a-542be59112d7" d="M364.7302545,346.2372012l-38.0799866-34.3899841c-2.6775208-2.4108276-2.9649048-6.5090942-.6499939-9.269989,2.1983643-2.6189575,6.0144653-3.1659546,8.8599854-1.269989l39.2799988,26.2600098-9.4100037,18.6699524Z"/>
  <path class="uuid-517b3065-0050-47c1-b51a-542be59112d7" d="M329.4602655,367.4572025l44.6799927-40.2200012,19.2000122,12.1900024,19.4899902,57.3600159-62.1799927,8.8699951c-11.4945374-8.9212952-19.0338745-21.993042-21-36.4100037l-.1900024-1.7900085Z"/>
  <path class="uuid-376046ae-a5b5-4010-923f-20a0113284f9" d="M354.6502679,337.4372134l-28-25.5899963c-2.6775208-2.4108276-2.9649048-6.5090942-.6499939-9.269989,2.1983643-2.6189575,6.0144653-3.1659546,8.8599854-1.269989l54.1499939,35.4100037"/>
  <path class="uuid-517b3065-0050-47c1-b51a-542be59112d7" d="M359.5102533,353.8672061l-50.2200012-36.1799927c-2.9320679-2.1173096-3.6222229-6.1958923-1.5499878-9.1600037,1.9338989-2.7738647,5.6513977-3.6373901,8.6099854-2l52.75,29.1300049-9.5899963,18.2099915Z"/>
  <path class="uuid-376046ae-a5b5-4010-923f-20a0113284f9" d="M345.8702691,344.0471988l-36.5799866-26.3600159c-2.9320679-2.1173096-3.6222229-6.1958923-1.5499878-9.1600037,1.9338989-2.7738647,5.6513977-3.6373901,8.6099854-2l52.75,29.1300049"/>
  <path class="uuid-517b3065-0050-47c1-b51a-542be59112d7" d="M353.6502679,364.2772098l-15-9.1300049-7.1700134-4.4200134-30.6199951-18.8600159c-3.0731812-1.8913879-4.0575867-5.9002991-2.2099915-9,1.73349-2.8983154,5.3730164-4.0238037,8.4400024-2.6099854l54.7200012,25.2399902-8.1600037,18.7800293Z"/>
  <path class="uuid-376046ae-a5b5-4010-923f-20a0113284f9" d="M336.4702753,353.7372012l-4.9500122-3.0599976-30.6199951-18.8600159c-3.0731812-1.8913879-4.0575867-5.9002991-2.2099915-9,1.73349-2.8983154,5.3730164-4.0238037,8.4400024-2.6099854l54.7200012,25.2399902"/>
  <path class="uuid-376046ae-a5b5-4010-923f-20a0113284f9" d="M350.6502679,406.0672183c-11.5138855-9.0822754-19.0446167-22.2861328-21-36.8200073l-.25-1.7900085"/>
  <path class="uuid-517b3065-0050-47c1-b51a-542be59112d7" d="M352.1202691,379.7971988l-53.8600159-30.5c-3.151062-1.7774048-4.2839355-5.7602844-2.5400085-8.9299927,1.6253662-2.9615173,5.2222595-4.2208862,8.3399963-2.9200134l55.5899963,23.2099915-7.5299683,19.1400146Z"/>
  <g>
    <path class="uuid-376046ae-a5b5-4010-923f-20a0113284f9" d="M329.2902826,367.2571903l-31-18c-3.151062-1.7774048-4.2839355-5.7602844-2.5400085-8.9299927,1.6253662-2.9615173,5.2222595-4.2208862,8.3399963-2.9200134l45.2099915,18.8600159"/>
    <g>
      <path class="uuid-3d2e1cf1-48ff-473b-8fc4-6c0ee492fde1" d="M264.3702691,446.4771915s25.3999939-23.8500061,20.7900085-92.3500061"/>
      <g>
        <path class="uuid-fab17896-3722-4a32-9945-a8b8f364c739" d="M697.6502679,948.2872195v-76.1400146c0-29.3318481,23.7781372-53.1099854,53.1099854-53.1099854v-6.5900269c.0165405-20.6167603,16.7432251-37.3165283,37.3599854-37.2999878,20.6112671,0,37.3200073,16.7087402,37.3200073,37.3200073v8.0900269c28.4813232,0,51.5700073,23.0886841,51.5700073,51.5700073v13.0200195h.7700195c28.4813232,0,51.5700073,23.0886841,51.5700073,51.5700073v11.5699463"/>
        <path class="uuid-fab17896-3722-4a32-9945-a8b8f364c739" d="M338.2602533,985.227222c.0110474-29.3223877,23.7875671-53.0855103,53.1099854-53.0800171h15.3900146v-13.8800049c.0055237-26.7763672,21.713623-48.4799805,48.4899902-48.4799805h16.1600037v-13.8599854c0-26.7747803,21.7052612-48.4799805,48.480011-48.4799805h26.1699829c0-26.7802734,21.7097168-48.4899902,48.4899902-48.4899902h26.9400024c28.475769,0,51.5599976,23.0842285,51.5599976,51.5599976,28.4813232-.0165405,51.5834351,23.0587158,51.5999756,51.5400391v6.1899414h6.1599731c28.4702759-.0054932,51.5545044,23.0697021,51.5599976,51.539978v23.1100464c25.5045166,0,46.1799927,20.6754761,46.1799927,46.1799927v6.9299927"/>
        <path class="uuid-fab17896-3722-4a32-9945-a8b8f364c739" d="M649.2002557,955.2172122c0-20.8321533-16.8878174-37.7200317-37.7199707-37.7200317h-2.3100586v-8.460022c0-15.2999268-12.4000854-27.7045288-27.7000122-27.710022-15.303833,0-27.710022,12.406189-27.710022,27.7099609v13.8500366c-16.1559448.0054932-29.25,13.1040649-29.25,29.2600098v3.0800171"/>
        <path class="uuid-fab17896-3722-4a32-9945-a8b8f364c739" d="M777.730285,868.2471805h2.3099976c15.7235107,0,28.4699707,12.74646,28.4699707,28.4699707v6.1599731h4.6199951c15.7290649-.0220947,28.4978638,12.7108765,28.5200195,28.4399414v.0400391"/>
        <path class="uuid-fab17896-3722-4a32-9945-a8b8f364c739" d="M432.1602777,833.6072269h-5.3900146c-15.7290649,0-28.480011,12.7509155-28.480011,28.4799805v6.1599731h-3.8500061c-15.7235413,0-28.4700012,12.74646-28.4700012,28.4699707"/>
        <path class="uuid-fab17896-3722-4a32-9945-a8b8f364c739" d="M841.6502679,860.5472293l29-37.1400146c.460022-.5800171.9000244-1.1599731,1.3400269-1.7600098,20.1799927-27.1500244,21.8900146-63.8499756,5.1900024-93.2700195l-16.4500122-29c-1.5618896-2.758667-.5917358-6.2611084,2.1669312-7.822998.0341797-.0193481.0685425-.0383911.1030884-.0570068,2.7058105-1.4602661,6.0817871-.5247192,7.6500244,2.1199951l38.75,65.3099976,11.2399902-43.9299927c.6305542-2.3582764,3.0534668-3.7587891,5.4117432-3.1282349,1.5270996.4083252,2.7199097,1.6011353,3.1282349,3.1282349.1511841.5806885.1885376,1.1851196.1099854,1.7800293l-7.5100098,52.5499878c-3.088623,21.6063843-10.5360107,42.3596802-21.8900146,61l-45.2399902,74.0900269"/>
        <path class="uuid-fab17896-3722-4a32-9945-a8b8f364c739" d="M979.0002435,720.477222h-156.5599976c-5.1417847,0-9.3099976-4.1682129-9.3099976-9.3099976-.0054932-18.6893311,15.140686-33.8444824,33.8300171-33.8499756h.0199585v-3.3900146c.0055542-18.6925049,15.1574707-33.8444214,33.8499756-33.8499756h1.6900024c0-14.4864502,11.7435913-26.2299805,26.2300415-26.2299805h5.8999634c14.4863892,0,26.2299805,11.7435913,26.2299805,26.2299805v14.3900146h9.3099976c14.0224609-.0386963,25.4212646,11.2974243,25.4598999,25.3198853.000061.0233765.0001221.0467529.0001221.0701294h4.2299805c11.1934814.0220337,20.2590332,9.0964966,20.2700195,20.289978,0,11.2169189-9.0930786,20.3099976-20.3099976,20.3099976l-.8399658.0199585Z"/>
        <path class="uuid-fab17896-3722-4a32-9945-a8b8f364c739" d="M870.0802606,701.2372318c0-11.4765015,9.3034668-20.7800293,20.7799683-20.7800293h7.7000732v-1.539978c.0054932-11.4725952,9.3074341-20.7700195,20.7800293-20.7700195"/>
      </g>
      <g>
        <path class="uuid-dbfd9b78-cb04-4ca3-ac19-583837964eb7" d="M564.0402826,677.3472171l-.7800293,38.6199951c-.2009888,10.1856079,2.7732544,20.1812134,8.5100098,28.5999756l3.8499756,5.6400146,2.3800049-72.4400024"/>
        <path class="uuid-dbfd9b78-cb04-4ca3-ac19-583837964eb7" d="M621.230285,700.3771854s8.5100098,19.1400146,30.7299805,20.4000244c3.7423096.1965332,6.815918,3.0266113,7.3200073,6.7399902,1.6500244,12.3499756,1.6500244,9.1799927,1.6500244,9.1799927"/>
        <path class="uuid-dbfd9b78-cb04-4ca3-ac19-583837964eb7" d="M529.1602777,700.3771854s-3,13.289978-17.5599976,13.4000244"/>
      </g>
    </g>
  </g>
</svg>