<?xml version="1.0" encoding="UTF-8"?>
<svg id="uuid-9d3c55d4-592f-49be-9b30-b9acdc46ffe3" data-name="Ebene 1" xmlns="http://www.w3.org/2000/svg" viewBox="0 0 1140.534809 1049.4504319">
  <defs>
    <style>
      .uuid-0ccb4f68-066b-493f-b1e9-3657e5c3847e, .uuid-b0f5c3d9-6e00-4d8c-8ff8-a5330e26d9bb, .uuid-3a0503d5-dc38-4f80-a572-1a94f8b625fb, .uuid-999cca84-3374-4049-afe1-6b1ca9f53a5d, .uuid-125fad12-c9a6-4101-840a-d2e51a73b86a, .uuid-6679e71e-ab7b-4bb6-89e5-12363b1d57bb, .uuid-2879c022-c16a-4ebe-8da5-60fcc0f93230, .uuid-24c3f4e5-3fa9-4651-88b5-9d175866707f, .uuid-f8110cca-aac9-4edc-b880-b94b308937f7, .uuid-dec83ffc-bcdd-4760-af1f-831712a14cc5, .uuid-f2e360a7-ee18-43fa-a3d1-4bd3286d7e56, .uuid-e51e534c-586c-4e64-a773-2317e0c85336 {
        stroke-miterlimit: 10;
        stroke-width: 1.38px;
      }

      .uuid-0ccb4f68-066b-493f-b1e9-3657e5c3847e, .uuid-b0f5c3d9-6e00-4d8c-8ff8-a5330e26d9bb, .uuid-3a0503d5-dc38-4f80-a572-1a94f8b625fb, .uuid-999cca84-3374-4049-afe1-6b1ca9f53a5d, .uuid-125fad12-c9a6-4101-840a-d2e51a73b86a, .uuid-6679e71e-ab7b-4bb6-89e5-12363b1d57bb, .uuid-24c3f4e5-3fa9-4651-88b5-9d175866707f, .uuid-f8110cca-aac9-4edc-b880-b94b308937f7, .uuid-dec83ffc-bcdd-4760-af1f-831712a14cc5, .uuid-e51e534c-586c-4e64-a773-2317e0c85336 {
        stroke: #1d2b47;
      }

      .uuid-0ccb4f68-066b-493f-b1e9-3657e5c3847e, .uuid-1609bcba-58bb-41e4-b861-c90f654e557f, .uuid-999cca84-3374-4049-afe1-6b1ca9f53a5d {
        fill: #dad9f3;
      }

      .uuid-b0f5c3d9-6e00-4d8c-8ff8-a5330e26d9bb {
        fill: #fff;
      }

      .uuid-b0f5c3d9-6e00-4d8c-8ff8-a5330e26d9bb, .uuid-3a0503d5-dc38-4f80-a572-1a94f8b625fb, .uuid-999cca84-3374-4049-afe1-6b1ca9f53a5d, .uuid-6679e71e-ab7b-4bb6-89e5-12363b1d57bb, .uuid-2879c022-c16a-4ebe-8da5-60fcc0f93230, .uuid-24c3f4e5-3fa9-4651-88b5-9d175866707f, .uuid-dec83ffc-bcdd-4760-af1f-831712a14cc5, .uuid-f2e360a7-ee18-43fa-a3d1-4bd3286d7e56 {
        stroke-linecap: round;
      }

      .uuid-3a0503d5-dc38-4f80-a572-1a94f8b625fb, .uuid-00c18682-285d-4aa5-9062-2e714bb5c321, .uuid-e51e534c-586c-4e64-a773-2317e0c85336 {
        fill: #0d00ad;
      }

      .uuid-125fad12-c9a6-4101-840a-d2e51a73b86a, .uuid-6679e71e-ab7b-4bb6-89e5-12363b1d57bb, .uuid-2879c022-c16a-4ebe-8da5-60fcc0f93230, .uuid-732b93ae-a02a-4d56-a369-bb1f1f1a597a {
        fill: #f2f2fb;
      }

      .uuid-2879c022-c16a-4ebe-8da5-60fcc0f93230, .uuid-f2e360a7-ee18-43fa-a3d1-4bd3286d7e56 {
        stroke: #1a1c35;
      }

      .uuid-24c3f4e5-3fa9-4651-88b5-9d175866707f {
        fill: #8480ce;
      }

      .uuid-f8110cca-aac9-4edc-b880-b94b308937f7, .uuid-dec83ffc-bcdd-4760-af1f-831712a14cc5, .uuid-f2e360a7-ee18-43fa-a3d1-4bd3286d7e56 {
        fill: none;
      }
    </style>
  </defs>
  <g>
    <g>
      <path class="uuid-24c3f4e5-3fa9-4651-88b5-9d175866707f" d="M576.6229456,34.4704007c-173.5499878,0-314.230011,112.1000061-314.230011,250.3900146,0,114.769989,96.9200134,211.5100098,229.1000061,241.0800171,16.6600037,27.6500244,39.8999939,48.4899902,67,59.1300049l8.6700134,3.4000244c-14.0084534-14.9671021-22.5592957-34.2214966-24.269989-54.6500244,11.0799866.9400024,22.3233337,1.416626,33.730011,1.4299927,173.5500183,0,314.230011-112.1099854,314.230011-250.3900146S750.1729944,34.470416,576.6229761,34.470416l-.0000305-.0000153Z"/>
      <path class="uuid-dec83ffc-bcdd-4760-af1f-831712a14cc5" d="M419.1729334,472.2403897l56.7600098,128.5899963v156.5800171"/>
      <path class="uuid-dec83ffc-bcdd-4760-af1f-831712a14cc5" d="M741.5129603,472.2403897l-50.5999756,114.6200256c-4.069397,9.2109985-6.1708984,19.170105-6.1699829,29.2399902v140"/>
      <path class="uuid-b0f5c3d9-6e00-4d8c-8ff8-a5330e26d9bb" d="M728.562948,741.00043h-295.769989c-10.7032776,0-19.3800049,8.6766968-19.3800049,19.3800049h0v.4799805c-.0055237,10.6977539,8.6622314,19.3744507,19.3599854,19.3800049h.0200195c12.2330933,0,22.1499939,9.9168701,22.1499939,22.1500244h0v142.2800293c0,21.980896,17.8190613,39.7999878,39.7999878,39.7999878h171.8800049c21.980896,0,39.7999878-17.8190918,39.7999878-39.7999878v-142.2800293c0-12.2330933,9.9168701-22.1500244,22.1499634-22.1500244h.000061c10.7033081,0,19.3800049-8.6766968,19.3800049-19.3800049h0v-.4799805c0-10.7033081-8.6766968-19.3800049-19.3800049-19.3800049h-.0100098Z"/>
      <path class="uuid-dec83ffc-bcdd-4760-af1f-831712a14cc5" d="M792.8729456,472.2403897l-50.5999756,114.6200256c-4.069397,9.2109985-6.1708984,19.170105-6.1699829,29.2399902v133.2000122"/>
      <path class="uuid-dec83ffc-bcdd-4760-af1f-831712a14cc5" d="M697.8029383,741.00043c8.539978,0,15.4699707,8.6799927,15.4699707,19.3800049v.4799805c0,10.710022-6.9299927,19.3800049-15.4699707,19.3800049-9.7700195,0-17.6900024,9.9199829-17.6900024,22.1500244v142.2800293c0,22-14.2299805,39.7999878-31.7800293,39.7999878h-137.2200012c-17.5499878,0-31.7799988-17.8200073-31.7799988-39.7999878v-142.2800293c0-12.2299805-7.9100037-22.1500244-17.6799927-22.1500244-8.5499878,0-15.480011-8.6699829-15.480011-19.3800049v-19.8599854"/>
      <g>
        <path class="uuid-b0f5c3d9-6e00-4d8c-8ff8-a5330e26d9bb" d="M660.8729456,741.00043c5.789978,0,10.4899902,8.6799927,10.4899902,19.3800049v.4799805c0,10.710022-4.7000122,19.3800049-10.4899902,19.3800049-6.6199951,0-12,9.9199829-12,22.1500244v142.2800293c0,22-9.6400146,39.7999878-21.539978,39.7999878h-93c-11.8999939,0-21.5400085-17.8200073-21.5400085-39.7999878v-142.2800293c0-12.2299805-5.3599854-22.1500244-12-22.1500244-5.7900085,0-10.4899902-8.6699829-10.4899902-19.3800049v-3.4799805"/>
        <path class="uuid-b0f5c3d9-6e00-4d8c-8ff8-a5330e26d9bb" d="M610.0329187,741.00043h-57.9500122c-2.0899963,0-3.7900085-1.9400024-3.7900085,8.7600098l-5.6700134,7.6199951c-1.519989,22.8599854,7.4200134,22.8599854,9.5100098,22.8599854,2.3999939,0,4.3399963,9.9199829,4.3399963,22.1500244v142.2800293c0,22,3.5,39.7999878,7.7999878,39.7999878h33.6700134c4.3099976,0,7.7999878-17.8200073,7.7999878-39.7999878v-142.2800293c0-12.2299805,1.9400024-22.1500244,4.3400269-22.1500244,2.0900269,0,16-3.8099976,13.3200073-26.6699829l-8-12.5700073c-.0499878-10.7000122-3.2800293,0-5.3699951,0Z"/>
      </g>
    </g>
    <path class="uuid-0ccb4f68-066b-493f-b1e9-3657e5c3847e" d="M436.3929346,608.6104153l53.9400024-1,13.2000122,65.1600342,73.2099915-36.9299927c7.4431152-3.7546997,15.6634521-5.7105103,24-5.710022h13.6199951l-25.7900085,62.7199707-64.3800049,22.8900146c-25.6900024,9.8900146-60.2399902,9.2600098-69.7600098-23.7399902l-18-83.3800049"/>
    <path class="uuid-dec83ffc-bcdd-4760-af1f-831712a14cc5" d="M457.9929407,749.00043c0,4.6300049,7.5,8.3800049,16.7600098,8.3800049h213c9.2600098,0,16.7700195-3.75,16.7700195-8.3800049"/>
    <path class="uuid-3a0503d5-dc38-4f80-a572-1a94f8b625fb" d="M704.5129603,749.00043c0,4.6300049-7.5100098,8.3800049-16.7700195,8.3800049h-213c-5.4200134,0-10.2399902-1.2800293-13.3099976-3.2800293h232"/>
    <path class="uuid-e51e534c-586c-4e64-a773-2317e0c85336" d="M443.1429346,599.3104276l11.1000061-2,1.4299927,16.3800049-9.6799927,1.7800293c-4.4528809.7811279-8.697937-2.1890869-9.4899902-6.6400146-.8030396-4.451355,2.1545105-8.7108765,6.6058655-9.513916.0113831-.0020752.0227661-.0040894.0341492-.0061035h-.0000305Z"/>
    <path class="uuid-125fad12-c9a6-4101-840a-d2e51a73b86a" d="M484.5029505,578.8303861l2.5799866,12.710022,3.25,16.0599976-34.6600037,6.1300049-1.4299927-16.3800049-1.0799866-12.3800049,31.3399963-6.1400146Z"/>
  </g>
  <g>
    <path class="uuid-1609bcba-58bb-41e4-b861-c90f654e557f" d="M555.062948,673.3203763c2.2722168-9.3369751,11.6413269-15.1011963,21-12.9199829l2.3200073-6.6799927c5.8406372-16.9237671,23.6095581-26.6143188,41-22.3599854,16.7683105,4.1085205,27.9563599,19.9312134,26.2399902,37.1099854l-8.5499878,84.8499756-85.8800049-21,13.4899902-39c-7.5557556-3.5297241-11.5788574-11.8937988-9.6199951-20Z"/>
    <path class="uuid-0ccb4f68-066b-493f-b1e9-3657e5c3847e" d="M619.3329676,631.3604153c16.7883301,4.0876465,28.0018311,19.9161987,26.289978,37.1099854l-8.1400146,88.8699951h-94.8599854l22.0799866-64c-8.8182373-3.9963989-12.7270813-14.3847046-8.7306824-23.2029419,3.4779968-7.6743774,11.9237976-11.7887573,20.1106873-9.7970581l2.3200073-6.6799927"/>
    <path class="uuid-1609bcba-58bb-41e4-b861-c90f654e557f" d="M690.9329432,784.4704007l-40.3099976-33.710022,26.5900269-47.4799805-76.5900269-24.0100098,7.3699951-15.0800171,15.3099976-31.5,71.3200073,25.4400024c25.9199829,9.25,40.9400024,36.3800049,28.1599731,70.1699829l-26.1599731,56.1699829"/>
  </g>
  <g>
    <path class="uuid-f8110cca-aac9-4edc-b880-b94b308937f7" d="M623.3029383,632.6903714l71.3200073,25.4400024c25.9199829,9.25,40.9400024,36.3800049,28.1599731,70.1699829l-26.1599731,56.1699829"/>
    <path class="uuid-f8110cca-aac9-4edc-b880-b94b308937f7" d="M690.9329432,784.4403714l-40.3099976-33.6799927,26.5900269-47.4799805-63.25-19.8099976"/>
    <path class="uuid-999cca84-3374-4049-afe1-6b1ca9f53a5d" d="M626.5329187,637.7404202l1.3699951-8.1799927c.2528076-1.6374512-.8696899-3.1697998-2.5071411-3.4226074-.0805664-.0124512-.1615601-.0215454-.2428589-.0274048l-31-1.9199829c-1.5117798-.0848389-2.8498535.9701538-3.1199951,2.460022l-1.8300171,10.3300171"/>
    <g>
      <path class="uuid-e51e534c-586c-4e64-a773-2317e0c85336" d="M693.0429285,772.7003812c4.2735596,2.2245483,5.9523926,7.4799194,3.7600098,11.7700195-2.2252808,4.2967529-7.5101318,5.9793701-11.8099976,3.7600098l-12.3699951-6.0800171,10.0800171-14.789978,10.3399658,5.3399658Z"/>
      <path class="uuid-e51e534c-586c-4e64-a773-2317e0c85336" d="M601.1229456,565.040408l-13.1799927-2.4099731c-4.5061035-.7788086-8.7904053,2.2427368-9.5692139,6.7488403-.1039124.6011353-.1410522,1.211853-.1107788,1.821167.1066589,2.7990723,1.2260132,5.4642334,3.1499939,7.5l-.5299988,3.1400146c-1.0386963,5.9296265,2.9261475,11.5785522,8.8557739,12.6172485.0247192.0043335.0494385.008606.0742188.0127563l11,1.8699951.3099976-31.3000488Z"/>
      <circle class="uuid-e51e534c-586c-4e64-a773-2317e0c85336" cx="638.5529383" cy="584.7204007" r="13.5300293"/>
    </g>
  </g>
  <path class="uuid-732b93ae-a02a-4d56-a369-bb1f1f1a597a" d="M622.3829554,599.1704129l-2.789978,34.7000122-23.1300049,4.1900024,7.0700073-41.7000122"/>
  <path class="uuid-dec83ffc-bcdd-4760-af1f-831712a14cc5" d="M596.4629725,638.0604276l7.0700073-41.7000122"/>
  <path class="uuid-00c18682-285d-4aa5-9062-2e714bb5c321" d="M601.1429651,610.4704007s5.5499878,1.4899902,10.1199951-.4400024c-2.210022,6.2000122-12.0900269,12.0599976-12.0900269,12.0599976l1.9700317-11.6199951Z"/>
  <circle class="uuid-732b93ae-a02a-4d56-a369-bb1f1f1a597a" cx="607.5129603" cy="596.8504056" r="15.0499878"/>
  <g>
    <path class="uuid-dec83ffc-bcdd-4760-af1f-831712a14cc5" d="M611.02297,611.4704007c-8.0845337,1.9306641-16.2034912-3.0579834-18.1341553-11.1425781-1.9307251-8.0845337,3.0579834-16.2034912,11.1425171-18.1341553,1.9633789-.4688721,4.0010376-.5380249,5.9916382-.2032471"/>
    <path class="uuid-e51e534c-586c-4e64-a773-2317e0c85336" d="M633.3529261,597.75043l-10.8200073,14.539978c-.5874634.7675171-1.685791.9134521-2.4533081.3259888-.0737305-.0563965-.1428223-.1185913-.206665-.1859741-1.7000122-1.8099976-4.0700073-5.6799927-3.1500244-12.7299805,5.5200195-1.0700073,4.3900146-8.9199829.5999756-8.3499756s-4.789978,8.8499756-4.789978,8.8499756c0,0-1.1900024-.710022-.8200073-6,.1436768-2.7111816-1.7195435-5.1187744-4.3800049-5.6599731-5.3499756-1.2199707-10.8099976-6.4099731-13.3300171-13.3099976-1.3944702-3.7687988-1.7771606-7.8372192-1.1099854-11.7999878,10.5700073,1.5700073,22.5,3.6099854,31.2600098,5.1599731,12.1599731,2.0599976,18.2299805,15.7199707,11.4500122,25.789978l-2.25,3.3699951Z"/>
    <path class="uuid-dec83ffc-bcdd-4760-af1f-831712a14cc5" d="M621.4729212,611.3903836l-1.8800049,22.4799805"/>
  </g>
  <path class="uuid-1609bcba-58bb-41e4-b861-c90f654e557f" d="M623.4929407,629.7404202s-18.6699829,2.289978-28.5800171-1.9000244c-2.289978,11.4299927-6.0999756,19.4299927,4.5700073,20.1900024,10.6699829.7600098,26.6699829.3800049,24.0100098-18.289978Z"/>
  <g>
    <g>
      <path class="uuid-dec83ffc-bcdd-4760-af1f-831712a14cc5" d="M623.4929407,629.7404202s-18.6699829,2.289978-28.5800171-1.9000244"/>
      <g>
        <path class="uuid-3a0503d5-dc38-4f80-a572-1a94f8b625fb" d="M641.5529383,708.5604276s-11.0599976-18.0900269-23.710022-23.8800049c14,4,25.3200073,7.9299927,25.3200073,7.9299927l-1.6099854,15.9500122Z"/>
        <path class="uuid-3a0503d5-dc38-4f80-a572-1a94f8b625fb" d="M594.9129236,631.2703885l-.7600098,6.0900269"/>
        <path class="uuid-3a0503d5-dc38-4f80-a572-1a94f8b625fb" d="M599.8629358,632.790408l-.7600098,6.0999756"/>
        <path class="uuid-3a0503d5-dc38-4f80-a572-1a94f8b625fb" d="M604.8229578,633.5504178l-.7700195,6.0999756"/>
        <path class="uuid-3a0503d5-dc38-4f80-a572-1a94f8b625fb" d="M611.2929285,634.3104276l-.7600098,6.0999756"/>
        <path class="uuid-3a0503d5-dc38-4f80-a572-1a94f8b625fb" d="M432.8429468,780.25043c12.2119751.0220337,22.1000366,9.9280396,22.1000061,22.1400146v18.6799927c11.5384521-16.6275024,29.4398804-27.7426147,49.4599915-30.710022l68.269989-10.1199951h-139.8300171l.0000305.0100098Z"/>
      </g>
      <path class="uuid-dec83ffc-bcdd-4760-af1f-831712a14cc5" d="M659.9329432,780.2404202h66.6699829"/>
      <path class="uuid-3a0503d5-dc38-4f80-a572-1a94f8b625fb" d="M617.3929651,634.3104276l-.7600098,6.0999756"/>
      <path class="uuid-3a0503d5-dc38-4f80-a572-1a94f8b625fb" d="M623.1129358,633.5504178l-.7700195,6.0999756"/>
      <path class="uuid-dec83ffc-bcdd-4760-af1f-831712a14cc5" d="M493.562948,622.8803738l-45.4100037,7.2000122c-3.8863525.5675049-7.5484314-1.9714355-8.3800049-5.8099976l-1.8800049-8.7000122"/>
    </g>
    <path class="uuid-125fad12-c9a6-4101-840a-d2e51a73b86a" d="M642.0529383,766.0604276l8.5700073-15.2999878,32.0999756,16.5999756-.1799927-.0700073-21.710022,32.3900146-27.5499878-17.9500122,8.7700195-15.6699829Z"/>
  </g>
  <path class="uuid-732b93ae-a02a-4d56-a369-bb1f1f1a597a" d="M644.1229456,786.4704007l-18.5,26.460022c-1.9226685,2.7581787-5.6933594,3.4812622-8.5,1.6300049l-1.7000122-1.0900269,18.9199829-33.4000244,9.7800293,6.4000244Z"/>
  <path class="uuid-f2e360a7-ee18-43fa-a3d1-4bd3286d7e56" d="M634.3429163,780.0703763l-18.9199829,33.4000244,1.6699829,1.0900269c2.8066406,1.8512573,6.5773315,1.1281738,8.5-1.6300049l5.3200073-7.5900269s8.0800171,7.2199707,20.9400024,2.3200073"/>
  <path class="uuid-2879c022-c16a-4ebe-8da5-60fcc0f93230" d="M652.8729456,807.1303738l6.8699951,31.210022c.3685913,1.8029785-.7598877,3.5731812-2.5499878,4-1.6964722.3952026-3.4189453-.5478516-4-2.1900024l-10.2700195-29.3699951,9.9500122-3.6500244Z"/>
  <path class="uuid-732b93ae-a02a-4d56-a369-bb1f1f1a597a" d="M649.5329187,812.8203763l.1799927,9,.0800171,4.3499756.3699951,18.5700073c.0283813,1.8622437-1.4386597,3.4048462-3.2999878,3.4699707-1.743103.0586548-3.2510986-1.2037354-3.5-2.9299927l-4.3200073-30.8099976,10.4899902-1.6499634Z"/>
  <path class="uuid-f2e360a7-ee18-43fa-a3d1-4bd3286d7e56" d="M649.732931,823.2103909l.0599976,3,.3699951,18.5700073c.0283813,1.8622437-1.4386597,3.4048462-3.2999878,3.4699707-1.743103.0586548-3.2510986-1.2037354-3.5-2.9299927l-4.3200073-30.8499756,10.4899902-1.6799927"/>
  <path class="uuid-732b93ae-a02a-4d56-a369-bb1f1f1a597a" d="M642.6229456,816.1503934l-3,31.8200073c-.1642456,1.8604126-1.7983398,3.2400513-3.6599731,3.0900269-1.739563-.1322632-3.0987549-1.5561523-3.1500244-3.2999878l-.8800049-31.1099854,10.6900024-.500061Z"/>
  <path class="uuid-f2e360a7-ee18-43fa-a3d1-4bd3286d7e56" d="M641.7829187,824.790408l-2.1599731,23.1799927c-.1642456,1.8604126-1.7983398,3.2400513-3.6599731,3.0900269-1.739563-.1322632-3.0987549-1.5561523-3.1500244-3.2999878l-.8800049-31.1099854,10.6199951-.5"/>
  <path class="uuid-732b93ae-a02a-4d56-a369-bb1f1f1a597a" d="M634.982931,816.6004056l-4.5599976,26.0800171c-.3215332,1.8334351-2.0359497,3.0839233-3.8800049,2.8300171-1.7548828-.2301025-3.0509644-1.7508545-3-3.5200195l.6799927-24.3900146,10.7600098-1Z"/>
  <path class="uuid-732b93ae-a02a-4d56-a369-bb1f1f1a597a" d="M655.6729334,819.8704251l-31.4199829.2199707v-17.1199951l11-25.0599976,26.6900024,20.289978c.9095459,7.4551392-1.140564,14.9696045-5.710022,20.9299927l-.5599976.7400513Z"/>
  <g>
    <g>
      <g>
        <path class="uuid-f2e360a7-ee18-43fa-a3d1-4bd3286d7e56" d="M662.1129358,798.0604276c.8480835,7.5186768-1.2564697,15.072876-5.8699951,21.0700073l-.5700073.7399902"/>
        <path class="uuid-f2e360a7-ee18-43fa-a3d1-4bd3286d7e56" d="M623.6629236,798.8403958l11.5999756-20.9299927"/>
        <path class="uuid-f2e360a7-ee18-43fa-a3d1-4bd3286d7e56" d="M633.9229334,823.4704007l-3.5,19.25c-.3215332,1.8334351-2.0359497,3.0839233-3.8800049,2.8300171-1.7548828-.2301025-3.0509644-1.7508545-3-3.5200195l.5900269-33.4000244"/>
      </g>
      <path class="uuid-f8110cca-aac9-4edc-b880-b94b308937f7" d="M701.6229456,773.7703885l1.9500122-4.2000122c1.9873047-4.2659302.3143311-9.3417969-3.8200073-11.5900269l-40.7399902-22.1699829"/>
    </g>
    <g>
      <path class="uuid-e51e534c-586c-4e64-a773-2317e0c85336" d="M503.4729517,672.8004178l3.4200134,13.3300171,6.4700012-18.3300171-9.8900146,5Z"/>
      <path class="uuid-e51e534c-586c-4e64-a773-2317e0c85336" d="M676.4529627,703.2803983l13.3300171,3.0499878-18.539978,7.6099854,5.2099609-10.6599731Z"/>
    </g>
  </g>
  <path class="uuid-732b93ae-a02a-4d56-a369-bb1f1f1a597a" d="M442.6229456,576.9204129l12.6000061-28,19.0899963,8.1300049,8.5,17.7399902-23.519989,16.4899902c-6.9873962-2.2271118-12.8220825-7.1067505-16.25-13.5900269l-.4200134-.7699585Z"/>
  <g>
    <path class="uuid-6679e71e-ab7b-4bb6-89e5-12363b1d57bb" d="M436.6229456,574.2304105c.3709412,3.095459,2.7741699,5.5560913,5.8599854,6l9.5400085,1.3900146c1.6488953.2774658,3.2233887-.7942505,3.5700073-2.4299927.3180847-1.5510864-.5761414-3.0944824-2.0799866-3.5900269l-16.5400085-8.3599854-.3500061,6.9899902Z"/>
    <path class="uuid-6679e71e-ab7b-4bb6-89e5-12363b1d57bb" d="M436.9329432,566.6704129c-.0933838,2.7040405,1.661438,5.1262207,4.2600098,5.8800049l12.3200073,3.5800171c1.717804.5692749,3.5798645-.3111572,4.230011-2,.6018982-1.6159058-.1091614-3.4258423-1.6499939-4.2000122l-18.3399963-11.460022-.8200378,8.2000122Z"/>
    <path class="uuid-dec83ffc-bcdd-4760-af1f-831712a14cc5" d="M459.3329371,591.3104276c-7-2.2299805-9.8399963-4.2399902-14.4599915-10.6599731"/>
  </g>
  <path class="uuid-732b93ae-a02a-4d56-a369-bb1f1f1a597a" d="M437.7029322,558.4704007c-.2487488,2.8154297,1.3066101,5.4812012,3.8800049,6.6500244l13.1900024,6c1.6397095.7808838,3.6032715.1219482,4.4400024-1.4899902.7900085-1.5300293-.2900085-5.5900269-1.7200012-6.539978l-18.8699951-15.3900146-.9200134,10.7699585Z"/>
  <path class="uuid-732b93ae-a02a-4d56-a369-bb1f1f1a597a" d="M453.0129603,560.0703763l-27.1499939-18.6699829c-1.4949646-1.0294189-1.9099426-3.0557861-.9400024-4.5900269.931366-1.4508057,2.8032532-1.9714966,4.3500061-1.210022l27.2200012,13.7999878-3.480011,10.6700439Z"/>
  <g>
    <path class="uuid-dec83ffc-bcdd-4760-af1f-831712a14cc5" d="M466.312948,554.1503934l-37-18.5499878c-1.5467529-.7614746-3.4186401-.2407837-4.3500061,1.210022-.9699402,1.5342407-.5549622,3.5606079.9400024,4.5900269l16.7200012,11.0700073"/>
    <path class="uuid-dec83ffc-bcdd-4760-af1f-831712a14cc5" d="M438.3529566,549.5903958l-.6499939,8.9000244c-.2487488,2.8154297,1.3066101,5.4812012,3.8800049,6.6500244l13.1900024,6c1.6397095.7808838,3.6032715.1219482,4.4400024-1.4899902.7936401-1.5316162.3066101-3.4151001-1.1300049-4.3699951l-12.1799927-7.5999756"/>
    <path class="uuid-6679e71e-ab7b-4bb6-89e5-12363b1d57bb" d="M459.3329371,582.3004178c-2.5100098-11.1300049,4.8900146-19.8900146,4.8900146-19.8900146l-8.9100037-1.5900269c-3.2290039-.5756836-5.4139099-3.6159668-4.9299927-6.8599854l.2799988-1.9299927,17.1000061.2999878c2.5960693.0402832,5.0084229,1.34729,6.4599915,3.5l5.5799866,9.4199829c2.5062561,4.225769,4.2019348,8.8821411,5,13.7299805l1.3900146,8.3599854"/>
    <g>
      <path class="uuid-dec83ffc-bcdd-4760-af1f-831712a14cc5" d="M476.1829432,740.6503934v16.7299805"/>
      <path class="uuid-dec83ffc-bcdd-4760-af1f-831712a14cc5" d="M520.6729334,740.6503934v16.7299805"/>
      <path class="uuid-dec83ffc-bcdd-4760-af1f-831712a14cc5" d="M367.812948,472.2403897l50.6000061,114.6200256c4.0786438,9.2094727,6.193573,19.1677856,6.2099915,29.2399902v120.3699951"/>
    </g>
    <path class="uuid-3a0503d5-dc38-4f80-a572-1a94f8b625fb" d="M355.3129175,460.0803861h446.0000305c6.5335083,0,11.8300171,5.2942505,11.8300171,11.8250122v-.0000305c0,6.5307617-5.2965088,11.8250122-11.8300171,11.8250122h-446.0000305c-6.5335388,0-11.8299866-5.2942505-11.8299866-11.8250122v.0000305c0-6.5307617,5.2964478-11.8250122,11.8299866-11.8250122Z"/>
    <g>
      <path class="uuid-b0f5c3d9-6e00-4d8c-8ff8-a5330e26d9bb" d="M729.3429163,744.5703763v-7.8800049c0-4.9705811,4.0294189-9,9-9h.8900146c4.9705811,0,9,4.0294189,9,9v23.4299927"/>
      <path class="uuid-b0f5c3d9-6e00-4d8c-8ff8-a5330e26d9bb" d="M432.0129603,744.5703763v-7.8800049c0-4.9705811-4.0294495-9-9-9h-.8900146c-4.9705505,0-9,4.0294189-9,9v23.4299927"/>
      <path class="uuid-b0f5c3d9-6e00-4d8c-8ff8-a5330e26d9bb" d="M399.1529444,165.9304074h170.210022c6.6881714,0,12.1099854,5.4218292,12.1099854,12.1100006h0c0,6.6881714-5.421814,12.1100006-12.1099854,12.1100006h-170.210022c-6.6881714,0-12.1099854-5.4218292-12.1099854-12.1100006h0c0-6.6881714,5.421814-12.1100006,12.1099854-12.1100006Z"/>
      <path class="uuid-b0f5c3d9-6e00-4d8c-8ff8-a5330e26d9bb" d="M399.1529444,225.4404019h380.5500183c6.6881714,0,12.1099854,5.4218292,12.1099854,12.1100006h0c0,6.6881714-5.421814,12.1100006-12.1099854,12.1100006h-380.5500183c-6.6881714,0-12.1099854-5.4218292-12.1099854-12.1100006h0c0-6.6881714,5.421814-12.1100006,12.1099854-12.1100006Z"/>
      <rect class="uuid-b0f5c3d9-6e00-4d8c-8ff8-a5330e26d9bb" x="387.042959" y="284.9404019" width="404.769989" height="24.2200012" rx="12.1099853" ry="12.1099853"/>
      <rect class="uuid-b0f5c3d9-6e00-4d8c-8ff8-a5330e26d9bb" x="387.042959" y="344.4504117" width="316.2099915" height="24.2200012" rx="12.1099854" ry="12.1099854"/>
    </g>
    <g>
      <path class="uuid-999cca84-3374-4049-afe1-6b1ca9f53a5d" d="M709.562948,862.4704007l50.2000122,25.8099976c16.1036377,8.2839355,22.4428101,28.0539551,14.1589355,44.1575928-2.0239258,3.9343262-4.8230591,7.418396-8.2289429,10.2424316-13.9512939,11.5460815-34.6210327,9.5962524-46.1671143-4.3550415-3.2943115-3.9806519-5.6013184-8.6834106-6.7329102-13.7249756l-12.9299927-57.7199707c-.2200317-.9966431-.8377686-1.8600464-1.710022-2.3900146l-6.6500244-4.0999756c-2.3984985-1.4766846-3.145813-4.6181641-1.6691284-7.0166626.4368286-.7095337,1.0407715-1.3012085,1.7591553-1.7233276l7.3300171-4.2999878c2.4284058-1.427063,5.553833-.6152954,6.980896,1.8130493.3595581.6118774.5874634,1.2919922.6691284,1.9969482l1,8.3800049c.1364136,1.2462158.8818359,2.34375,1.9899902,2.9299927v-.000061Z"/>
      <path class="uuid-999cca84-3374-4049-afe1-6b1ca9f53a5d" d="M453.3229578,871.4704007l-50.2099915,25.7999878c-16.1008301,8.2773438-22.4430237,28.0397339-14.1656799,44.140564,2.0266418,3.9421387,4.8317261,7.432312,8.2456665,10.2594604,13.9351807,11.5482788,34.5935669,9.6132812,46.1418152-4.3218994,3.3051147-3.9882812,5.6177368-8.703186,6.7481995-13.7581177l12.9299927-57.7199707c.2270813-.9960327.8427124-1.8601074,1.7099915-2.4000244l6.6600037-4.0900269c2.4013672-1.4720459,3.1546936-4.6121216,1.6826172-7.0134888-.4388733-.7159424-1.0477905-1.312439-1.7726135-1.7365112l-7.3399963-4.2999878c-2.4317627-1.4212646-5.5552673-.6021118-6.9765625,1.8296509-.3566895.6102905-.5826416,1.2880859-.6634521,1.9903564l-1,8.3800049c-.1332397,1.249939-.8790894,2.3518066-1.9899902,2.9400024Z"/>
      <path class="uuid-999cca84-3374-4049-afe1-6b1ca9f53a5d" d="M584.6829432,866.1303738l26.1900024,50c8.3948975,16.039856,2.1974487,35.8481445-13.8423462,44.243042-3.923645,2.0535278-8.2227173,3.2907715-12.6376648,3.6369629-18.0485229,1.414856-33.8266907-12.069397-35.2415466-30.1179199-.40448-5.1596069.4184875-10.3416748,2.4015503-15.1220703l22.6600037-54.6300049c.400177-.9391479.400177-2.0008545,0-2.9400024l-3.0799866-7.1799927c-1.1144104-2.586792.0792236-5.5872803,2.6660461-6.7016602.7695618-.331543,1.6089478-.4683228,2.4439392-.3983154l8.4700012.710022c2.8070984.2318726,4.8946838,2.6954346,4.6628113,5.5025635-.0584106.7070923-.2637329,1.3942261-.6027832,2.0174561l-4,7.4099731c-.631073,1.0983887-.664917,2.4411621-.0899963,3.5700073l-.0000305-.000061Z"/>
    </g>
    <path class="uuid-dec83ffc-bcdd-4760-af1f-831712a14cc5" d="M455.5329493,868.2304105s40.8299866,39.4400024,119.1999817-3.8400269c2.6600037-1.4699707,5.6499939-2.210022,8.1499939-.4799805,26.6499939,18.3400269,94.8899841,24.8699951,125.1999817-3.289978"/>
  </g>
</svg>