<?xml version="1.0" encoding="UTF-8"?>
<svg id="uuid-2a1ab9fd-f9ce-45ac-bfbe-9aad4f66171f" data-name="Ebene 1" xmlns="http://www.w3.org/2000/svg" viewBox="0 0 1140.534809 1049.4504319">
  <defs>
    <style>
      .uuid-2916cad7-12b1-49dc-a77f-25bc380bf851, .uuid-6818872c-52ee-41ba-b872-087b3a0cde0d, .uuid-8f4f1ddf-4efe-49be-bdb9-7d9f70ac8fc1, .uuid-46db081c-3c8e-4216-a7c3-f56b3be059fd, .uuid-7813b119-87e4-4ebe-9019-13123c87ea54, .uuid-36655f1a-7a77-4bca-8a02-7f8fac1e841c, .uuid-4af03828-235c-47f1-8149-a493aee0f1af, .uuid-001f4666-bc84-4cfd-af64-8a49a3b13a31, .uuid-f5b5fd9c-09fd-436f-8306-54db52e6a306, .uuid-0b487bb8-88ff-494f-b76d-913cb4a74f58, .uuid-e37fadb4-6de1-43b4-bd99-46eaac1a3bb9, .uuid-0b23b803-e337-4e00-b96d-6111e0304206 {
        stroke-miterlimit: 10;
        stroke-width: 1.46px;
      }

      .uuid-2916cad7-12b1-49dc-a77f-25bc380bf851, .uuid-6818872c-52ee-41ba-b872-087b3a0cde0d, .uuid-8f4f1ddf-4efe-49be-bdb9-7d9f70ac8fc1, .uuid-46db081c-3c8e-4216-a7c3-f56b3be059fd, .uuid-7813b119-87e4-4ebe-9019-13123c87ea54, .uuid-36655f1a-7a77-4bca-8a02-7f8fac1e841c, .uuid-4af03828-235c-47f1-8149-a493aee0f1af, .uuid-001f4666-bc84-4cfd-af64-8a49a3b13a31, .uuid-f5b5fd9c-09fd-436f-8306-54db52e6a306, .uuid-0b487bb8-88ff-494f-b76d-913cb4a74f58, .uuid-0b23b803-e337-4e00-b96d-6111e0304206, .uuid-705d9518-07a8-479d-8599-2a612d86bad1 {
        stroke: #1d2b47;
      }

      .uuid-2916cad7-12b1-49dc-a77f-25bc380bf851, .uuid-b9c16bbd-2806-4669-a8d2-b644c59ccbd0 {
        fill: #dad9f3;
      }

      .uuid-6818872c-52ee-41ba-b872-087b3a0cde0d, .uuid-f2b62a00-8429-4113-92f0-7ec4c2770cb4, .uuid-0b23b803-e337-4e00-b96d-6111e0304206, .uuid-705d9518-07a8-479d-8599-2a612d86bad1 {
        fill: #0d00ad;
      }

      .uuid-6818872c-52ee-41ba-b872-087b3a0cde0d, .uuid-4af03828-235c-47f1-8149-a493aee0f1af, .uuid-001f4666-bc84-4cfd-af64-8a49a3b13a31, .uuid-0b487bb8-88ff-494f-b76d-913cb4a74f58, .uuid-e37fadb4-6de1-43b4-bd99-46eaac1a3bb9 {
        stroke-linecap: round;
      }

      .uuid-8f4f1ddf-4efe-49be-bdb9-7d9f70ac8fc1, .uuid-4af03828-235c-47f1-8149-a493aee0f1af, .uuid-99a955e9-b847-417c-920c-1b0b2ba6d383 {
        fill: #f2f2fb;
      }

      .uuid-46db081c-3c8e-4216-a7c3-f56b3be059fd {
        fill: #fff;
      }

      .uuid-7813b119-87e4-4ebe-9019-13123c87ea54, .uuid-001f4666-bc84-4cfd-af64-8a49a3b13a31, .uuid-47497ec9-e889-4128-864e-21d3efea6df9 {
        fill: #8480ce;
      }

      .uuid-36655f1a-7a77-4bca-8a02-7f8fac1e841c {
        fill: #aface4;
      }

      .uuid-f5b5fd9c-09fd-436f-8306-54db52e6a306, .uuid-0b487bb8-88ff-494f-b76d-913cb4a74f58, .uuid-e37fadb4-6de1-43b4-bd99-46eaac1a3bb9 {
        fill: none;
      }

      .uuid-e37fadb4-6de1-43b4-bd99-46eaac1a3bb9 {
        stroke: #1a1c35;
      }

      .uuid-705d9518-07a8-479d-8599-2a612d86bad1 {
        stroke-miterlimit: 10.0000001;
        stroke-width: 1.4600001px;
      }
    </style>
  </defs>
  <rect class="uuid-46db081c-3c8e-4216-a7c3-f56b3be059fd" x="214.9254745" y="55.4252511" width="683.3800049" height="507.7700195" rx="45.3699951" ry="45.3699951"/>
  <path class="uuid-0b23b803-e337-4e00-b96d-6111e0304206" d="M611.0654587,182.1852456H214.925444v343.8100128h396.1400146c12.6047668-.0055237,22.8199768-10.2252502,22.8199768-22.8299866V205.0152779c0-12.6047668-10.215271-22.8244781-22.8200073-22.8300018l.0000305-.0000305Z"/>
  <path class="uuid-2916cad7-12b1-49dc-a77f-25bc380bf851" d="M214.9254745,126.2552529v-37.1199989c0-18.6199989,14.6600037-33.7099991,32.75-33.7099991h617.8699951c18.0900269,0,32.7600098,15.0900002,32.7600098,33.7099991v37.1199989H214.9254745Z"/>
  <rect class="uuid-46db081c-3c8e-4216-a7c3-f56b3be059fd" x="137.275473" y="163.0452462" width="476.1000137" height="343.7999878" rx="31.1600037" ry="31.1600037"/>
  <path class="uuid-2916cad7-12b1-49dc-a77f-25bc380bf851" d="M137.275473,229.7552529v-43.8899994c.005518-12.6047516,10.2252426-22.8200073,22.8300018-22.8200073h430.4500046c12.6031494,0,22.8200073,10.2168579,22.8200073,22.8199921v43.8900146H137.275473Z"/>
  <g>
    <circle class="uuid-0b23b803-e337-4e00-b96d-6111e0304206" cx="249.5354751" cy="90.04525" r="7.2400036"/>
    <circle class="uuid-0b23b803-e337-4e00-b96d-6111e0304206" cx="274.9654678" cy="90.04525" r="7.2400036"/>
    <circle class="uuid-0b23b803-e337-4e00-b96d-6111e0304206" cx="300.4054703" cy="90.04525" r="7.2400036"/>
    <circle class="uuid-0b23b803-e337-4e00-b96d-6111e0304206" cx="165.3054718" cy="194.0452462" r="7.2400017"/>
    <circle class="uuid-0b23b803-e337-4e00-b96d-6111e0304206" cx="190.7354721" cy="194.0452462" r="7.2400017"/>
    <circle class="uuid-0b23b803-e337-4e00-b96d-6111e0304206" cx="216.1654724" cy="194.0452462" r="7.2400017"/>
  </g>
  <path class="uuid-36655f1a-7a77-4bca-8a02-7f8fac1e841c" d="M979.8454574,140.2952538l-39.8599854,92.8199997,16.7700195,8.8999939,54.5300293-85c3.9699097-6.2326355,2.1355591-14.503418-4.0971069-18.4732971-.2939453-.1872635-.5951538-.3629608-.9028931-.5267029l-7.8900146-4.1900024c-6.5164795-3.4727402-14.6143188-1.0053101-18.0870361,5.5111465-.1669922.3133469-.3214111.6332169-.4629517.9588547l-.000061.0000076Z"/>
  <circle class="uuid-36655f1a-7a77-4bca-8a02-7f8fac1e841c" cx="936.8054794" cy="262.0752449" r="14.8499908"/>
  <g>
    <path class="uuid-0b23b803-e337-4e00-b96d-6111e0304206" d="M887.2054428,356.0552559c1.5446167-7.499939-2.1156006-15.1069031-8.9400024-18.5799866.2719116-.8036499.4857788-1.6257324.6400146-2.4599915,1.75-9.2900085-3.9400024-18.1499939-12.710022-19.8099976-2.939209-.5487061-5.9743042-.2361755-8.7399902.8999939l-1.2199707-5.6799927-34.9400024-14.6000061-30.8200073,28.7200012-10.3300171,28.7399902,88.8200073,16.7399902c8.4799805,1.1199951,16.5499878-4.9700012,18.2399902-13.9700012Z"/>
    <path class="uuid-0b23b803-e337-4e00-b96d-6111e0304206" d="M835.8854965,303.0052376l-14.5900269-7.1799927-30.8200073,28.7200012-10.3400269,28.7399902,50.0700073,9.4400024"/>
    <ellipse class="uuid-705d9518-07a8-479d-8599-2a612d86bad1" cx="782.8992846" cy="338.4410593" rx="15.0800172" ry="14.2399904" transform="translate(305.3544688 1045.1408466) rotate(-79.3299999)"/>
  </g>
  <path class="uuid-46db081c-3c8e-4216-a7c3-f56b3be059fd" d="M862.6254867,515.4252511l-175.4100342,209.8300171-116.0700073,156-33.2399902-4.9099731-24-16.6400146s143.7399902-254.6799927,247.8300171-348.7099915c71.8599854-7.9400024,100.8900146,4.4299927,100.8900146,4.4299927v-.0000305Z"/>
  <path class="uuid-2916cad7-12b1-49dc-a77f-25bc380bf851" d="M726.1054672,730.4952584l130.4799805-182.8200073s-14.4099731-60-86.2999878-52c-83.2600098,78.8399658-162.4199829,208.1799927-213,290.8699951l93.3800049,81,75.4400024-137.0499878Z"/>
  <path class="uuid-f5b5fd9c-09fd-436f-8306-54db52e6a306" d="M805.4554428,534.2552376c-58.7199707,55.6299744-163.7800293,225.7400208-199.5,284.0799866"/>
  <path class="uuid-0b23b803-e337-4e00-b96d-6111e0304206" d="M645.3054794,843.4252511l-23.5700073-15.1599731-18.7999878,29.6099854,23.3099976,14.9299927c8.130127,5.2607422,18.9852295,2.9375,24.25-5.1900024,5.225708-8.1168823,2.9055176-18.9312134-5.1900024-24.1900024Z"/>
  <path class="uuid-2916cad7-12b1-49dc-a77f-25bc380bf851" d="M787.4854721,544.0552559c-39.75,51.3099976-74.1099854,137.1600342-76.6400146,190.210022-1.8518677,42.4545898-1.4545898,84.977417,1.1900024,127.3900146l122.3900146,12.8400269-20-157.4699707,25.3099976-48.5100098c14.5599976-27.9099731,31-57.5200195,31-127.0899963l-6.210022-25.7200012-21.9299927-.5899963-40.789978,7.8200073"/>
  <path class="uuid-0b23b803-e337-4e00-b96d-6111e0304206" d="M787.4854721,544.0552559c-39.75,51.3099976-74.1099854,137.1600342-76.6400146,190.210022l-1,30.25-19,34.539978s-6.8300171-85.1500244,33.5700073-164c38.7600098-75.6300049,63.0700073-91,63.0700073-91Z"/>
  <path class="uuid-0b23b803-e337-4e00-b96d-6111e0304206" d="M818.0155014,892.4252511c9.6759033-.3312378,17.2512207-8.4436035,16.9199829-18.1195068v-.0004883c-.3527222-9.6602783-8.4589844-17.211792-18.1199951-16.8800049l-25.4400024,1.5499878,1.2199707,35,25.4200439-1.5499878Z"/>
  <path class="uuid-8f4f1ddf-4efe-49be-bdb9-7d9f70ac8fc1" d="M793.0054916,934.5052681l-.4099731-40.5200195-1.2199707-35-79.3400269,2.710022c.7600098,12.7700195,2.4299927,27.2800293,3.3200073,37.7399902,2.7000122,31.5900269,4.7199707,48.5800171,4.7199707,48.5800171l-10.789978,36.5100098,83.7199707-50.0200195Z"/>
  <path class="uuid-8f4f1ddf-4efe-49be-bdb9-7d9f70ac8fc1" d="M568.0654587,851.3652535l-26.1300049-14,2.4299927-29.5800171c4-6.6199951,8.2900085-13.7299805,12.8900146-21.2399902l64.5799866,41.8200073-18.7799988,29.6099854-7.2000122,11.3499756-.0499878-.2999878-27.7399902-17.6599731Z"/>
  <path class="uuid-46db081c-3c8e-4216-a7c3-f56b3be059fd" d="M524.7354721,920.2552681l8.4700012-13.8300171c.8387451-1.3709106.4073181-3.1622314-.963623-4.0009766-.7407837-.453186-1.6452942-.5518799-2.4663696-.269043l-9.2999878,3.25c-10.1123657,1.6877441-20.4932251-.3670654-29.2000122-5.7800293l-59.5499878-37,6.2799988-9.7600098c7.8474426-12.3866577,22.8438721-18.2231445,37-14.4000244l1.1000061.3300171,21.3099976,6.75c12.5567932,3.3201904,25.7898865-2.1135864,32.3899841-13.2999878,2.5400085-4.3099976,5.6099854-9.5,9.2999878-15.6799927l5.2600098-8.7800293,23.7900085,15.1300049c7.0865479,4.5002441,9.183136,13.8932495,4.6828918,20.9797363-.004303.0067749-.0085754.0135498-.0128784.0202637l-4.7600098,7.4799805,27.7399902,17.6400146.0499878.2999878-43.2900085,68.2600098-27.8299866-17.3399048Z"/>
  <path class="uuid-0b23b803-e337-4e00-b96d-6111e0304206" d="M533.2054733,906.4252511c.8387451-1.3709106.4073181-3.1622314-.963623-4.0009766-.7407837-.453186-1.6452942-.5518799-2.4663696-.269043l-9.2999878,3.25c-10.1123657,1.6877441-20.4932251-.3670654-29.2000122-5.7800293l-59.5499878-37,6.2799988-9.7600098c2.2367249-3.4865112,5.0899963-6.5363159,8.4200134-9l118,75-11.8399963,18.6799927-27.8500061-17.289978,8.4699707-13.8299561Z"/>
  <path class="uuid-46db081c-3c8e-4216-a7c3-f56b3be059fd" d="M568.0654587,851.3652535s-22.2099915,33.9199829-79.1100159,2.9299927"/>
  <g>
    <path class="uuid-0b487bb8-88ff-494f-b76d-913cb4a74f58" d="M513.9454635,837.2152291s8.3299866-.8200073,9.269989,8.9299927"/>
    <path class="uuid-0b487bb8-88ff-494f-b76d-913cb4a74f58" d="M520.2254623,832.7852364s8.3200073-.8099976,9.2600098,8.9400024"/>
    <path class="uuid-0b487bb8-88ff-494f-b76d-913cb4a74f58" d="M526.5054611,828.3652535s8.3200073-.8200073,9.2600098,8.9299927"/>
    <path class="uuid-0b487bb8-88ff-494f-b76d-913cb4a74f58" d="M518.1954635,826.8552437s-2.7999878-24.1500244-10.5499878-18.9500122,1.1400146,18,3.5499878,13.539978c2.4099731-4.460022-7.6099854-11.289978-13.480011-6.6900024-5.8700256,4.5999756,6,13.0900269,16.6400146,15.5700073"/>
    <path class="uuid-0b487bb8-88ff-494f-b76d-913cb4a74f58" d="M576.0654587,900.6052437l-6-3.8099976c-4.2180481-2.6881104-9.4984741-3.0969238-14.0799866-1.0900269l-16.6199951,7.2700195"/>
    <path class="uuid-0b487bb8-88ff-494f-b76d-913cb4a74f58" d="M591.3454574,876.0252266l-29.1499939-18.539978"/>
  </g>
  <path class="uuid-46db081c-3c8e-4216-a7c3-f56b3be059fd" d="M765.0454696,997.4852486l-1.2299805-16.210022c-.1228027-1.602478-1.5213623-2.8019409-3.1237793-2.6791992-.871521.0667725-1.6668701.5217896-2.1661987,1.2391968l-5.6199951,8.0999756c-7.187439,7.2955322-16.7851562,11.7247314-27,12.460022l-69.9299927,5-.6599731-11.5800171c-.921814-14.6292114,7.7772827-28.157959,21.4699707-33.3900146l1.0900269-.3800049,21.210022-7c12.116333-4.6856689,19.6383057-16.8573608,18.4099731-29.789978-.4799805-5-1-11-1.6900024-18.1599731-.293335-3.2666626-.5900269-6.6633301-.8900146-10.1900024l28.1300049-1.7299805c8.3852539-.5128784,15.6002808,5.8651733,16.1199951,14.25l.539978,8.8499756,32.8099976-2,.210022.2000122,5,80.6799927-32.6800537,2.3300171Z"/>
  <path class="uuid-0b23b803-e337-4e00-b96d-6111e0304206" d="M763.8154892,981.2752266c-.1228027-1.602478-1.5213623-2.8019409-3.1237793-2.6791992-.871521.0667725-1.6668701.5217896-2.1661987,1.2391968l-5.6199951,8.0999756c-7.187439,7.2955322-16.7851562,11.7247314-27,12.460022l-69.9299927,5-.6599731-11.5800171c-.225647-4.1360474.2959595-8.2789917,1.539978-12.2299805l139.5599976-8.5599976,1.3200073,22.0999756-32.7299805,2.3599854-1.1900635-16.2099609Z"/>
  <path class="uuid-46db081c-3c8e-4216-a7c3-f56b3be059fd" d="M759.7354721,916.2552681s1.9299927,40.5-62.3200073,48.8300171"/>
  <g>
    <g>
      <path class="uuid-0b487bb8-88ff-494f-b76d-913cb4a74f58" d="M707.5854477,936.5852242s6.2600098-5.5499878,12.7399902,1.789978"/>
      <path class="uuid-0b487bb8-88ff-494f-b76d-913cb4a74f58" d="M710.0654892,929.3152657s6.2600098-5.5499878,12.75,1.789978"/>
      <path class="uuid-0b487bb8-88ff-494f-b76d-913cb4a74f58" d="M712.5454696,922.0552559s6.2600098-5.5499878,12.75,1.789978"/>
      <path class="uuid-0b487bb8-88ff-494f-b76d-913cb4a74f58" d="M704.9354843,925.7052804s-16.4500122-17.9000244-19.6599731-9.1500244,11.460022,13.8699951,10.8200073,8.8699951c-.6400146-5-12.7800293-4.6599731-14.8400269,2.5-2.0599976,7.1599731,12.5100098,7.0999756,22.6099854,2.8300171"/>
      <path class="uuid-0b487bb8-88ff-494f-b76d-913cb4a74f58" d="M793.0254501,922.5352364l-34.4799805,2.1199951"/>
    </g>
    <path class="uuid-f5b5fd9c-09fd-436f-8306-54db52e6a306" d="M772.5155014,859.5852242s-20.1799927-106.1599731-10.2800293-140.0700073c9.8999634-33.9100342,53.3300171-127.7399902,53.3300171-127.7399902,0,0-18.8300171-13.2700195-8.6699829-35.3499756"/>
  </g>
  <path class="uuid-47497ec9-e889-4128-864e-21d3efea6df9" d="M556.4354843,286.1852456l41.0800171-20.5,62.0599976,132.8100128s122.5700073-27.2200012,159.7999878-26.2399902c13.8699951.3599854-51.2999878,78.8699951-51.2999878,78.8699951l-77.8699951,10.6700134c-39.3927612,3.0193176-76.0236206-20.4114075-89.7999878-57.4400024l-43.9700317-118.1700287Z"/>
  <path class="uuid-99a955e9-b847-417c-920c-1b0b2ba6d383" d="M597.5154709,265.6852456l-41.0799866,20.5,4.3200073,11.6299896,42.1400146-20.6199951-5.3800354-11.5099945Z"/>
  <path class="uuid-47497ec9-e889-4128-864e-21d3efea6df9" d="M819.3754867,372.2552376c-33.1300049-13.9100037-159.7999878,26.2399902-159.7999878,26.2399902l-47.8399963-102.4400024-69.5899963,22,47.7900085,100c30.2200012,61.8299866,75.809967,60.8800049,127.3500061,50l50.8200073-16.9100037s64.0599976-73.519989,51.2700195-78.8900146l-.000061.0000305Z"/>
  <g>
    <path class="uuid-e37fadb4-6de1-43b4-bd99-46eaac1a3bb9" d="M620.7354721,316.3252449l-49.3500061,24.519989c-8.0924377,4.0063477-17.9004211.6938782-21.9067688-7.3985596-.0314941-.0635986-.062561-.1274109-.0932312-.1914368l-1.8900146-4"/>
    <path class="uuid-e37fadb4-6de1-43b4-bd99-46eaac1a3bb9" d="M819.3754867,372.2552376c-33.1300049-13.9100037-159.7999878,26.2399902-159.7999878,26.2399902l-47.8399963-102.4400024-69.5899963,22,47.7900085,100c30.2200012,61.8299866,75.809967,60.8800049,127.3500061,50l50.8200073-16.9100037s64.0599976-73.519989,51.2700195-78.8900146l-.000061.0000305Z"/>
    <path class="uuid-6818872c-52ee-41ba-b872-087b3a0cde0d" d="M547.2554611,304.4252511c-5.1638184,2.5291748-7.3029785,8.7631531-4.7799988,13.9299927,2.5328369,5.1600342,8.7658081,7.2943726,13.9299927,4.769989l11.6499939-5.7000122-7.3200073-19.6100159-13.4799805,6.6100464Z"/>
  </g>
  <path class="uuid-99a955e9-b847-417c-920c-1b0b2ba6d383" d="M602.8954757,277.1952553l-42.1399841,20.6200104,7.2999878,19.6099854,43.6499939-21.3699951-8.8099976-18.8600006Z"/>
  <path class="uuid-47497ec9-e889-4128-864e-21d3efea6df9" d="M870.8754867,541.2552376l4-122.5299988c.8135376-24.8441467-16.8071289-46.4881592-41.2999878-50.730011-25.3495483-4.396759-49.8787842,11.2280884-56.6099854,36.0599976l-.1799927.6400146c-2.2502441,8.0654907-8.9326782,14.1216736-17.1799927,15.5700073-14.5765991,2.6932373-24.2099609,16.6932373-21.5167236,31.2698364,1.9350586,10.4730225,9.8794556,18.8111572,20.2467041,21.2501526l-17.5999756,52.2799988,130.1399536,16.1900024Z"/>
  <g>
    <path class="uuid-0b487bb8-88ff-494f-b76d-913cb4a74f58" d="M787.9654526,383.8052559c-5.2056274,5.7927856-8.973999,12.730011-11,20.25l-.1799927.6400146c-2.2502441,8.0654907-8.9326782,14.1216736-17.1799927,15.5700073-14.5765991,2.6932373-24.2099609,16.6932373-21.5167236,31.2698364,1.9350586,10.4730225,9.8794556,18.8111572,20.2467041,21.2501526l-17.5999756,52.2799988,130.1500244,16.1900024,4-122.5299988"/>
    <path class="uuid-0b487bb8-88ff-494f-b76d-913cb4a74f58" d="M560.7354721,297.8152657l-13.480011,6.6099854c-5.1638184,2.5291748-7.3029785,8.7631531-4.7799988,13.9299927,2.5328369,5.1600342,8.7658081,7.2943726,13.9299927,4.769989l55.3300171-26.769989"/>
    <path class="uuid-0b487bb8-88ff-494f-b76d-913cb4a74f58" d="M597.4154648,265.5052529l16.3399963,34.9399872"/>
  </g>
  <rect class="uuid-b9c16bbd-2806-4669-a8d2-b644c59ccbd0" x="660.9854721" y="279.5552559" width="197.7600098" height="29.2999878" rx="8.6700134" ry="8.6700134"/>
  <rect class="uuid-b9c16bbd-2806-4669-a8d2-b644c59ccbd0" x="660.9854721" y="335.9552498" width="81.3499756" height="24.8999939" rx="5.1300049" ry="5.1300049"/>
  <path class="uuid-0b487bb8-88ff-494f-b76d-913cb4a74f58" d="M556.2554611,286.3052559l12.0299988,30.6400146"/>
  <path class="uuid-99a955e9-b847-417c-920c-1b0b2ba6d383" d="M540.9354843,277.9152565l19.3099976-41.0999908,28.0599976,12.4799957,12.1700134,26.4600067-35.2000122,23.8599854c-10.2834473-3.4724731-18.8003845-10.8301392-23.730011-20.5l-.6099854-1.1999969Z"/>
  <g>
    <path class="uuid-4af03828-235c-47f1-8149-a493aee0f1af" d="M532.0354599,273.8052559c.4585571,4.6054993,3.9604797,8.3249969,8.5299988,9.0599976l14.0899963,2.2700043c2.431366.4530945,4.7857971-1.0973969,5.3299866-3.5099945.5149536-2.2930145-.7774048-4.6063538-3-5.3699951l-24.25-12.7599945-.6999817,10.3099823Z"/>
    <path class="uuid-4af03828-235c-47f1-8149-a493aee0f1af" d="M532.7354721,262.6152535c-.2030029,4.0006866,2.3396912,7.627243,6.1700134,8.8000031l18.1499939,5.5800018c2.5380859.8835449,5.3206177-.3973083,6.2999878-2.8999939.9263306-2.3777771-.0865479-5.0715942-2.3500061-6.25l-26.8699951-17.3300018-1.3999939,12.0999908Z"/>
    <path class="uuid-0b487bb8-88ff-494f-b76d-913cb4a74f58" d="M565.2754806,299.6152535c-10.2799988-3.4700012-14.4599915-6.5100098-21.1499939-16.1199951"/>
  </g>
  <path class="uuid-99a955e9-b847-417c-920c-1b0b2ba6d383" d="M534.0254806,250.5252572c-.4316406,4.1606445,1.80896,8.1408234,5.5899963,9.9299927l19.3800049,9.1499939c2.4122314,1.1886749,5.3325806.2564545,6.6099854-2.1100006,1.2099915-2.2400055-.2900085-8.2700043-2.3900146-9.7200012l-27.5499878-23.1999969-1.6399841,15.9500122Z"/>
  <path class="uuid-99a955e9-b847-417c-920c-1b0b2ba6d383" d="M556.6554855,253.2252541l-39.7600098-28.2599945c-2.1880188-1.5621948-2.749054-4.5749512-1.269989-6.8200073,1.4034424-2.1329346,4.188446-2.8658447,6.4599915-1.6999969l40,21.0699921-5.4299927,15.7100067Z"/>
  <g>
    <g>
      <path class="uuid-0b487bb8-88ff-494f-b76d-913cb4a74f58" d="M576.4754623,244.7752572l-54.3900146-28.3500061c-2.2715454-1.1658478-5.0565491-.4329376-6.4599915,1.6999969-1.4790649,2.2450562-.9180298,5.2578125,1.269989,6.8200073l24.5700073,16.7899933"/>
      <path class="uuid-0b487bb8-88ff-494f-b76d-913cb4a74f58" d="M535.1954635,237.3652535l-1.1700134,13.1600037c-.4316406,4.1606445,1.80896,8.1408234,5.5899963,9.9299927l19.3800049,9.1499939c2.4122314,1.1886749,5.3325806.2564545,6.6099854-2.1100006,1.2054138-2.2421722.5337524-5.0320587-1.5599976-6.4799957l-17.8500061-11.5899963"/>
      <path class="uuid-4af03828-235c-47f1-8149-a493aee0f1af" d="M565.4954819,286.2752572c-3.4500122-16.5400085,7.7000122-29.3300018,7.7000122-29.3300018l-13.1499939-2.5200043c-4.7627258-.9352875-7.9258728-5.4787292-7.1499939-10.2700043l.4700012-2.8399963,25.2999878.8300018c3.8387146.1293945,7.3747253,2.1174774,9.480011,5.3300018l4.4299927,7.4700012c2.3772278,4.0210876,4.3246155,8.2812347,5.8099976,12.7100067"/>
      <path class="uuid-001f4666-bc84-4cfd-af64-8a49a3b13a31" d="M801.6054672,378.4252511l3.4000244-17.2200012c.2437134-2.3289795,2.3293457-4.0193787,4.6582642-3.7756348.0875854.0091553.1748657.0210571.2617188.0356445l40.710022,5.3099976c2.5010986.2680359,4.3230591,2.4953918,4.0900269,5l-1.0900269,9.2399902"/>
    </g>
    <g>
      <circle class="uuid-0b23b803-e337-4e00-b96d-6111e0304206" cx="797.6954941" cy="313.3952523" r="14.2399902"/>
      <circle class="uuid-0b23b803-e337-4e00-b96d-6111e0304206" cx="807.3954452" cy="287.0752488" r="17.2600079"/>
    </g>
  </g>
  <path class="uuid-99a955e9-b847-417c-920c-1b0b2ba6d383" d="M849.9854721,319.9152413l-4.9299927,49.7999878-33.3499756,5.4200134,11.2600098-59.7600098"/>
  <path class="uuid-0b487bb8-88ff-494f-b76d-913cb4a74f58" d="M811.7054428,375.1352425l11.2600098-59.7600098"/>
  <path class="uuid-f2b62a00-8429-4113-92f0-7ec4c2770cb4" d="M819.1454452,335.6152535s7.9400024,2.2799988,14.5700073-.3800049c-3.3400269,8.8500061-17.7000122,17-17.7000122,17l3.1300049-16.6199951Z"/>
  <circle class="uuid-99a955e9-b847-417c-920c-1b0b2ba6d383" cx="828.6654648" cy="316.1752511" r="21.6400146"/>
  <g>
    <path class="uuid-0b487bb8-88ff-494f-b76d-913cb4a74f58" d="M833.3254989,337.3052559c-11.6717529,2.5703125-23.2172852-4.8078918-25.7875977-16.4796753s4.8079224-23.2172852,16.4796753-25.7875977c2.8475952-.6270752,5.7924805-.6722107,8.6578979-.1327209"/>
    <path class="uuid-6818872c-52ee-41ba-b872-087b3a0cde0d" d="M861.3154892,324.8352547c7.1379395,1.3396912,14.010376-3.3606873,15.3500366-10.4985962,1.0614624-5.6553955-1.6772461-11.3440552-6.7600098-14.0414124,4.7355347-7.9274902,2.1479492-18.1929016-5.779541-22.9284363-1.6814575-1.004425-3.5263062-1.7056122-5.4504395-2.0715637-.3900146-.0700073-.7700195-.1199951-1.1500244-.1699982-2.7883301-8.8031769-12.1850586-13.679184-20.9882202-10.8908844-3.0687256.9719849-5.791687,2.8091583-7.8417969,5.2908783-3.2288208-5.7876892-10.538147-7.8620758-16.3258667-4.633255-2.1785889,1.2154083-3.9242554,3.0795898-4.9941406,5.333252-5.4507446-.0568237-9.9155273,4.3158112-9.9723511,9.766571-.0501099,4.8080292,3.3717651,8.9525452,8.102356,9.8134155l2.0700073.3900146c3.0087891.5706177,4.9867554,3.4704895,4.4199829,6.480011-.5662842,3.0124207,1.416687,5.9135437,4.4290771,6.4798279l.0009155.0001831,10.4400024,2c3.6134644.8405457,6.0648193,4.2026367,5.7600098,7.8999939-.6500244,7.2600098.9299927,8.269989.9299927,8.269989,0,0,1.5900269-11.4100037,6.7399902-12.1099854s6.460022,10.1400146-1,11.5100098c-2.2000122,14.6400146,9.0999756,16.769989,9.0999756,16.769989l5.3900146,1"/>
    <path class="uuid-7813b119-87e4-4ebe-9019-13123c87ea54" d="M848.3454574,337.4452401l-3.289978,32.269989"/>
    <g>
      <path class="uuid-001f4666-bc84-4cfd-af64-8a49a3b13a31" d="M827.9354843,268.3252449s2.1699829,3.2400055,2.2999878,5.5"/>
      <path class="uuid-0b487bb8-88ff-494f-b76d-913cb4a74f58" d="M835.4354843,291.4952584c3.2977905-3.5775757,8.8713379-3.8043823,12.4489136-.5066223,2.1484375,1.9803772,3.1751709,4.8971252,2.7410889,7.7866211"/>
    </g>
  </g>
  <path class="uuid-47497ec9-e889-4128-864e-21d3efea6df9" d="M849.7354721,366.4952584s-21.460022,4.8599854-40.1900024-5.4100037l-4.7299805,28.6900024,43.25,12.8999939,1.6699829-36.1799927Z"/>
  <path class="uuid-0b487bb8-88ff-494f-b76d-913cb4a74f58" d="M849.7354721,366.4952584s-21.460022,4.8599854-40.1900024-5.4100037"/>
  <path class="uuid-99a955e9-b847-417c-920c-1b0b2ba6d383" d="M999.9454941,472.4952584l34-121.4199829-42.6500244-17-51.8699951,127.6600037-78.4799805-60.1700134-18.4799805,41.3300171,65,71c28.555603,17.6459351,66.0093384,8.8019104,83.6552734-19.7536926,2.6293945-4.2549744,4.7234497-8.8182373,6.2347412-13.5863037l2.5899658-8.0600281Z"/>
  <path class="uuid-47497ec9-e889-4128-864e-21d3efea6df9" d="M1021.8854965,454.4252511l-13.289978,32.6099854c-17.9000244,40.6699829-67.4099731,47.6099854-101.0800171,26.7999878l-80.7800293-64.0400085,26.5800171-72.1900024,18.4199829,6.8200073c8.8444214,2.6616211,16.9047241,7.443573,23.4799805,13.9299927l50.2600098,49.5799866,29.8300171-74.5100098,73.2700195,13.5599976-26.6900024,67.4400635Z"/>
  <path class="uuid-6818872c-52ee-41ba-b872-087b3a0cde0d" d="M1036.2354721,391.8352547l-12.6400146-3.8200073,5.6099854-20,13.0599976,3.9400024c5.5447388,1.5200195,8.807373,7.2471313,7.2873535,12.7918396s-7.2471313,8.8073425-12.7918701,7.287323c-.1663818-.0455933-.331604-.0953369-.4954834-.1491699l-.0299683-.0499878Z"/>
  <path class="uuid-99a955e9-b847-417c-920c-1b0b2ba6d383" d="M975.3054794,373.4152413l7.8599854-19.3699951,46.039978,13.9200134-5.6099854,20.0499878-48.289978-14.6000061Z"/>
  <g>
    <g>
      <path class="uuid-0b487bb8-88ff-494f-b76d-913cb4a74f58" d="M975.3054794,373.4252511l-29.8599854,74.5299988-52.1799927-51.1499939c-5.3499756-5.1300049-12.7999878-9.1400146-19.75-11.7200012l-20.1699829-7.4700012"/>
      <path class="uuid-0b487bb8-88ff-494f-b76d-913cb4a74f58" d="M996.0354599,319.8752633l-20.7399902,53.8300171.1099854-.2600098,60.8300171,18.3900146c5.4623413,1.7936707,11.3444824-1.1803284,13.1381836-6.6426697,1.7936401-5.4623108-1.1803589-11.3444824-6.6427002-13.1381531-.1638794-.053833-.3291016-.1035461-.4954834-.1491699l-13.0599976-3.9400024"/>
      <path class="uuid-0b487bb8-88ff-494f-b76d-913cb4a74f58" d="M1023.5954574,388.0152474l10.3099976-35.7999878"/>
      <path class="uuid-0b487bb8-88ff-494f-b76d-913cb4a74f58" d="M968.8454574,391.4952584l50.3599854,16.230011c8.8620605,4.5043945,19.6977539.9717712,24.2021484-7.8902893.2487183-.4893188.4748535-.9897461.6778564-1.4997253"/>
      <path class="uuid-0b487bb8-88ff-494f-b76d-913cb4a74f58" d="M1048.5754989,386.9752388l-26.6900024,67.4500122-13.289978,32.6099854c-17.9000244,40.6699829-67.4099731,47.6099854-101.0800171,26.7999878l-58-45.9500122"/>
    </g>
    <path class="uuid-4af03828-235c-47f1-8149-a493aee0f1af" d="M1034.0654892,334.8952523l39.5800171-20.8800049c2.302063-1.2295837,3.1923218-4.0783997,2-6.3999939-1.1129761-2.1932983-3.7086792-3.1839905-6-2.2900085l-40.6900024,15.5799866,5.1099854,13.9900208Z"/>
  </g>
  <path class="uuid-99a955e9-b847-417c-920c-1b0b2ba6d383" d="M1037.1454452,326.1752511l9.8200073-8,4.7199707-3.8399963,20.1699829-16.3999939c2.0302734-1.647522,2.355835-4.6223755.7299805-6.6700134-1.5115967-1.9161377-4.225769-2.3821716-6.289978-1.0799866l-36.8499756,23.2399902,7.7000122,12.75Z"/>
  <path class="uuid-0b487bb8-88ff-494f-b76d-913cb4a74f58" d="M1048.4254745,317.0052376l3.2600098-2.6499939,20.1699829-16.3999939c2.0302734-1.647522,2.355835-4.6223755.7299805-6.6700134-1.5115967-1.9161377-4.225769-2.3821716-6.289978-1.0799866l-36.8499756,23.2200012,7.7000122,12.730011"/>
  <path class="uuid-99a955e9-b847-417c-920c-1b0b2ba6d383" d="M1034.405455,315.7352486l31.3300171-31.8999939c1.8336792-1.8608551,1.8336792-4.8491516,0-6.7100067-1.7175293-1.7402954-4.4728394-1.9000854-6.3800049-.3699951l-34,27.1800079,9.0499878,11.7999878Z"/>
  <path class="uuid-0b487bb8-88ff-494f-b76d-913cb4a74f58" d="M1042.9254745,307.0752449l22.8099976-23.2400055c1.8336792-1.8608551,1.8336792-4.8491516,0-6.7100067-1.7175293-1.7402954-4.4728394-1.9000854-6.3800049-.3699951l-34,27.1799927,9.0599976,11.7999878"/>
  <path class="uuid-99a955e9-b847-417c-920c-1b0b2ba6d383" d="M1028.0254501,307.2152596l23.710022-28.4700012c1.6655273-2.0015411,1.4490356-4.9620667-.4899902-6.6999969-1.8365479-1.651886-4.6234741-1.651886-6.460022,0l-25.4500122,22.780014,8.6900024,12.3899841Z"/>
  <path class="uuid-99a955e9-b847-417c-920c-1b0b2ba6d383" d="M1050.2254623,326.4252511l-28.1799927-33.7799988-23.2399902,18.5799866-10.4099731,28.3999939,44.3400269,13.0499878c8.7807007-5.76474,14.954834-14.7387695,17.2000122-25l.289917-1.2499695Z"/>
  <path class="uuid-0b487bb8-88ff-494f-b76d-913cb4a74f58" d="M1032.7354721,352.6752511c8.7807007-5.76474,14.954834-14.7387695,17.2000122-25l.2800293-1.269989-13.7800293-16.7999878"/>
  <path class="uuid-0b487bb8-88ff-494f-b76d-913cb4a74f58" d="M998.8054794,311.1752511l-10.4099731,28.3999939"/>
  <path class="uuid-99a955e9-b847-417c-920c-1b0b2ba6d383" d="M1004.1054672,344.2152596l11.5100098-43.7200012c1.194397-4.5646362-1.4673462-9.2493896-6-10.5599976l-2.6799927-.7900085-18.5900269,50.4299927,15.7600098,4.6400146Z"/>
  <path class="uuid-0b487bb8-88ff-494f-b76d-913cb4a74f58" d="M988.3954452,339.5752449l18.5900269-50.4299927,2.6799927.7900085c4.5326538,1.3106079,7.194397,5.9953613,6,10.5599976l-3.3099976,12.5499878s15,2.1000061,21.4199829,20.2799988"/>
  <path class="uuid-0b487bb8-88ff-494f-b76d-913cb4a74f58" d="M1032.9454941,301.3252449l18.789978-22.5800018c1.6655273-2.0015411,1.4490356-4.9620667-.4899902-6.6999969-1.8365479-1.651886-4.6234741-1.651886-6.460022,0l-29,25.75"/>
  <g>
    <path class="uuid-46db081c-3c8e-4216-a7c3-f56b3be059fd" d="M832.8154892,78.8652497h28.4699707"/>
    <path class="uuid-46db081c-3c8e-4216-a7c3-f56b3be059fd" d="M832.8154892,93.5152512h28.4699707"/>
    <path class="uuid-46db081c-3c8e-4216-a7c3-f56b3be059fd" d="M832.8154892,108.1652489h28.4699707"/>
  </g>
  <path class="uuid-36655f1a-7a77-4bca-8a02-7f8fac1e841c" d="M448.635466,274.0752449l-12.1600037-12.1499939c-4.79422-4.8048706-12.5758057-4.8135223-17.3806763-.0193176-.0064392.006424-.0128784.0128632-.0193176.0193176l-62.4199982,62.4199829-62.4300079-62.4199982c-4.7942047-4.8048706-12.5758057-4.8135223-17.3806763-.0193176-.0064392.006424-.0128784.0128632-.0193176.0193176l-12.1499939,12.1499939c-4.8048859,4.7942047-4.8135376,12.5757904-.0193329,17.380661.0064392.0064697.0128784.0129089.0193329.0193481l62.4199982,62.4299927-62.4199982,62.4199829c-4.8076324,4.8070679-4.8081055,12.6013184-.0010376,17.4089661.000351.0003357.0006866.0007019.0010376.0010376l12.1499939,12.1499939c4.8063202,4.8013611,12.5936737,4.8013611,17.3999939,0l62.4299927-62.4599915,62.4199829,62.4200134c4.8063354,4.8013611,12.5936584,4.8013611,17.3999939,0l12.1600037-12.1499939c4.8025208-4.8097534,4.8025208-12.6002502,0-17.4100037l-62.4299927-62.4199829,62.4299927-62.4299927c4.7748108-4.8016968,4.7748108-12.5583038,0-17.3600006l.0000305-.0000153Z"/>
  <rect class="uuid-b9c16bbd-2806-4669-a8d2-b644c59ccbd0" x="660.9854721" y="186.5352517" width="197.7600098" height="58.5999908" rx="12.2599945" ry="12.2599945"/>
</svg>