<?xml version="1.0" encoding="UTF-8"?>
<svg id="uuid-baa3a0b3-ef69-4e49-ab4e-add0edbe3b86" data-name="Ebene 1" xmlns="http://www.w3.org/2000/svg" viewBox="0 0 1140.534809 1049.4504319">
  <defs>
    <style>
      .uuid-b60943f9-4a75-43d4-8ec9-b2a991078912, .uuid-f6a6052e-bee4-4ae9-8f93-4fa5db3eef8b {
        fill: #dad9f3;
      }

      .uuid-b60943f9-4a75-43d4-8ec9-b2a991078912, .uuid-addcef37-0b03-4bed-b05f-77b0b91b3cf4, .uuid-97f4f1af-ba2e-4026-a967-bdcd82b09d9e, .uuid-eb610e47-a817-4a0e-843d-d276ea32ec5b, .uuid-44df7499-7e92-4432-8a05-1bdb1242bb01, .uuid-6f094d2f-8bde-4ded-8168-8933c92a2453, .uuid-124ef87c-9679-4c63-96c2-96c3530cc599, .uuid-641d0ee4-5e17-4b61-98c6-08b050a7791a, .uuid-80f96521-be0a-4516-8faa-4333d726bff8, .uuid-338077b5-f51c-4428-a953-5e2255f8680c, .uuid-782d701f-6c34-40da-b4b2-5c40003d0613 {
        stroke-miterlimit: 10;
        stroke-width: 1.4px;
      }

      .uuid-b60943f9-4a75-43d4-8ec9-b2a991078912, .uuid-addcef37-0b03-4bed-b05f-77b0b91b3cf4, .uuid-97f4f1af-ba2e-4026-a967-bdcd82b09d9e, .uuid-eb610e47-a817-4a0e-843d-d276ea32ec5b, .uuid-44df7499-7e92-4432-8a05-1bdb1242bb01, .uuid-124ef87c-9679-4c63-96c2-96c3530cc599, .uuid-641d0ee4-5e17-4b61-98c6-08b050a7791a, .uuid-782d701f-6c34-40da-b4b2-5c40003d0613 {
        stroke: #1d2b47;
      }

      .uuid-addcef37-0b03-4bed-b05f-77b0b91b3cf4, .uuid-44df7499-7e92-4432-8a05-1bdb1242bb01, .uuid-6f094d2f-8bde-4ded-8168-8933c92a2453, .uuid-b398928e-16ea-4894-aaac-9fa4ddc34baa {
        fill: #f2f2fb;
      }

      .uuid-253a2e8e-d954-46f3-9afe-ccbc35ce3145, .uuid-782d701f-6c34-40da-b4b2-5c40003d0613 {
        fill: #0d00ad;
      }

      .uuid-97f4f1af-ba2e-4026-a967-bdcd82b09d9e, .uuid-f9d6fb4e-affc-4fd8-bd49-96ce89eb4873 {
        fill: #fff;
      }

      .uuid-eb610e47-a817-4a0e-843d-d276ea32ec5b {
        fill: #8480ce;
      }

      .uuid-44df7499-7e92-4432-8a05-1bdb1242bb01, .uuid-6f094d2f-8bde-4ded-8168-8933c92a2453, .uuid-641d0ee4-5e17-4b61-98c6-08b050a7791a, .uuid-338077b5-f51c-4428-a953-5e2255f8680c {
        stroke-linecap: round;
      }

      .uuid-6f094d2f-8bde-4ded-8168-8933c92a2453, .uuid-338077b5-f51c-4428-a953-5e2255f8680c {
        stroke: #1a1c35;
      }

      .uuid-124ef87c-9679-4c63-96c2-96c3530cc599, .uuid-641d0ee4-5e17-4b61-98c6-08b050a7791a, .uuid-80f96521-be0a-4516-8faa-4333d726bff8, .uuid-338077b5-f51c-4428-a953-5e2255f8680c {
        fill: none;
      }

      .uuid-80f96521-be0a-4516-8faa-4333d726bff8 {
        stroke: #fff;
      }
    </style>
  </defs>
  <path class="uuid-eb610e47-a817-4a0e-843d-d276ea32ec5b" d="M513.9610227,750.1004056l8.2600098-31.2399902c1.7793274-6.7224731,8.2616882-11.0882568,15.1600037-10.210022l46.3199768,5.9000244c5.4559326.6956787,10.821106-1.8309326,13.7600098-6.4799805,4.9006348-7.6782837,10.4940186-14.8917236,16.710022-21.5499878,3.6876831-3.9608154,4.7623901-9.6922607,2.7600098-14.7199707l-17.4199829-43.460022c-2.5769043-6.4554443.0223389-13.8214722,6.0800171-17.2299805l28.1599731-15.8499756c6.0632324-3.4051514,13.7105713-1.7979126,17.8900146,3.7600098l28.1400146,37.460022c3.2589111,4.30896,8.7141724,6.3468628,14,5.2299805,7.6116333-1.5803223,15.335144-2.5632935,23.0999756-2.9400024,5.2955322-.2474976,9.9713135-3.5322266,12-8.4299927l17.9000244-43.460022c2.638855-6.4283447,9.6300049-9.9089355,16.3499756-8.1400146l31.25,8.2700195c6.71698,1.7791748,11.0783691,8.2571411,10.2000122,15.1500244l-5.9000244,46.3300171c-.671814,5.4411011,1.8509521,10.7824707,6.4799805,13.7199707,7.6757812,4.9004517,14.888916,10.4902344,21.5499878,16.7000122,3.9517822,3.723938,9.7005615,4.8269043,14.75,2.8300171l43.460022-17.3800049c6.4528809-2.583313,13.821228.0125122,17.2299805,6.0700073l15.8499756,28.1699829c3.4084473,6.0595093,1.800354,13.706604-3.7600098,17.8800049l-37.460022,28.1500244c-4.3134766,3.255249-6.3493042,8.7153931-5.2199707,14,1.5720825,7.6127319,2.5516968,15.3358154,2.9299927,23.0999756.2450562,5.2963257,3.5306396,9.9732666,8.4299927,12l43.460022,17.9000244c6.3859863,2.6586304,9.8341064,9.6187744,8.0800171,16.3099976l-8.2700195,31.2399902c-1.7711792,6.7237549-8.2531128,11.092041-15.1500244,10.210022l-46.3300171-5.9000244c-5.4423218-.6793213-10.7875366,1.8452148-13.7199707,6.4799805-4.8971558,7.6780396-10.4871826,14.8914795-16.7000122,21.5499878-3.6911621,3.9586792-4.7697754,9.6903687-2.7700195,14.7199707l17.4000244,43.5c2.578125,6.458374-.020874,13.8277588-6.0800171,17.2399902l-28.1699829,15.7600098c-6.0578003,3.4059448-13.7011719,1.8029175-17.8800049-3.75l-28.1500244-37.460022c-3.2527466-4.3171997-8.7133789-6.3571167-14-5.2299805-7.6116333,1.5803223-15.335144,2.5632935-23.0999756,2.9400024-5.2963257.2450562-9.9732666,3.5306396-12,8.4299927l-17.9000244,43.4500122c-2.6504517,6.4273682-9.6472778,9.9022827-16.3699951,8.1300049l-31.2399902-8.2700195c-6.7197876-1.7831421-11.0836792-8.2627563-10.210022-15.1599731l5.9000244-46.3200073c.6843872-5.4431152-1.8413696-10.7908936-6.4799805-13.7199707-7.6765137-4.9031372-14.8897095-10.4963379-21.5499878-16.710022-3.9588013-3.6837158-9.6851196-4.7581177-14.710022-2.7600098l-43.4400024,17.4299927c-6.4553528,2.581665-13.8244934-.0187378-17.230011-6.0800171l-15.8500061-28.1799927c-3.4059753-6.0578003-1.8029175-13.7011719,3.75-17.8800049l37.460022-28.1500244c4.3109741-3.2573853,6.3494263-8.7139893,5.2299805-14-1.5803223-7.6082764-2.5632935-15.3284912-2.9400024-23.0900269-.2433472-5.2939453-3.5245361-9.9702759-8.4200134-12l-43.4599915-17.8900146c-6.4298096-2.6472778-9.9028625-9.6489868-8.1199951-16.3699951h.000061Z"/>
  <circle class="uuid-124ef87c-9679-4c63-96c2-96c3530cc599" cx="724.2110227" cy="789.0204495" r="93.6699829"/>
  <circle class="uuid-253a2e8e-d954-46f3-9afe-ccbc35ce3145" cx="724.2110227" cy="789.0204495" r="38.5"/>
  <path class="uuid-782d701f-6c34-40da-b4b2-5c40003d0613" d="M217.2610257,715.3204373l5.1999969-19.5800171c1.1091614-4.2068481,5.1643219-6.9402466,9.4799957-6.3900146l29,3.6900024c3.4031525.4266357,6.7463989-1.1514893,8.5800018-4.0499878,3.0701294-4.8078613,6.571228-9.3264771,10.4600067-13.5,2.3174438-2.4729614,2.9921112-6.0646973,1.7299957-9.210022l-10.8800049-27.210022c-1.6113892-4.0432739.0170288-8.6550293,3.8099976-10.789978l17.6300049-9.9199829c3.7998199-2.1200562,8.5818939-1.1029663,11.1900024,2.3800049l17.6199951,23.460022c2.0361328,2.6940918,5.4460449,3.9684448,8.75,3.2700195,4.7652283-.9859009,9.5997009-1.6010742,14.4599915-1.8400269,3.3180847-.1539307,6.2483826-2.2114258,7.519989-5.2800293l11.2000122-27.2000122c1.6560364-4.02771,6.0402222-6.204895,10.25-5.0900269l19.5599976,5.1799927c4.2068481,1.1091919,6.9402161,5.1643066,6.3900146,9.4799805l-3.6900024,29c-.4281921,3.4061279,1.1498108,6.7531128,4.0499878,8.5900269,4.8076782,3.0546265,9.3234558,6.5460815,13.4899902,10.4299927,2.4774475,2.3157349,6.0689392,2.9935303,9.2200012,1.7399902l27.1799927-10.8699951c4.0402832-1.6149292,8.6517639.0148926,10.7799988,3.8099976l9.9299927,17.6300049c2.1302795,3.7973633,1.12146,8.585083-2.3599854,11.2000122l-23.4500122,17.6199951c-2.6940613,2.0361328-3.9683838,5.4460449-3.269989,8.75.9859009,4.7652588,1.6010742,9.5997314,1.8399963,14.460022.1490479,3.3197632,2.2081604,6.2524414,5.2799988,7.5200195l27.2000122,11.2000122c4.02771,1.6560669,6.204834,6.0402222,5.0899963,10.25l-5.1799927,19.5599976c-1.1134338,4.208313-5.171875,6.94104-9.4899902,6.3900146l-29-3.6900024c-3.3956909-.4384155-6.7400818,1.1188965-8.5899963,4-3.0668945,4.8101196-6.5682068,9.3290405-10.4599915,13.5-2.3128662,2.4752808-2.9869995,6.0641479-1.730011,9.210022l10.8900146,27.210022c1.60672,4.043396-.0205994,8.6519775-3.8099976,10.789978l-17.6300049,9.9199829c-3.7949829,2.1324463-8.5822144,1.1279907-11.2000122-2.3499756l-17.6199951-23.460022c-2.0393677-2.6957397-5.4530334-3.9700317-8.7600098-3.2700195-4.7639771,1.0006104-9.5985413,1.6291504-14.4599915,1.8800049-3.3152466.1552734-6.2419434,2.2129517-7.5100098,5.2800293l-11.2099915,27.2000122c-1.6520691,4.0262451-6.0329285,6.2038574-10.2399902,5.0900269l-19.5599976-5.1799927c-4.2068329-1.1091919-6.9402161-5.1643066-6.3899994-9.4799805l3.6900024-29c.4261475-3.4082642-1.1560059-6.7557373-4.0599976-8.5900269-4.8049927-3.065979-9.3203583-6.5638428-13.4900055-10.4500122-2.4731445-2.3162842-6.0622711-2.9943848-9.2100067-1.7399902l-27.1800079,10.8699951c-4.0432739,1.6113892-8.6550293-.0170288-10.7899933-3.8099976l-9.9199982-17.6300049c-2.132431-3.7949829-1.1279602-8.5822144,2.3500061-11.2000122l23.4499969-17.6199951c2.6977997-2.0336914,3.976181-5.4440308,3.2799988-8.75-.9859009-4.7652588-1.6010742-9.5997314-1.8399963-14.460022-.1539307-3.3181152-2.21138-6.2484131-5.2799988-7.5200195l-27.1999969-11.2000122c-4.0183563-1.6549683-6.1934814-6.0266113-5.0899963-10.2299805h-.0000153Z"/>
  <circle class="uuid-80f96521-be0a-4516-8faa-4333d726bff8" cx="348.8910192" cy="739.6904324" r="58.6400127"/>
  <circle class="uuid-f9d6fb4e-affc-4fd8-bd49-96ce89eb4873" cx="348.8910153" cy="739.6904324" r="24.0999908"/>
  <g>
    <path class="uuid-97f4f1af-ba2e-4026-a967-bdcd82b09d9e" d="M481.821008,307.8504056c5.5799866,2.1499939,35.519989,16.2600098,41.6000061,18.8699951,31.5,13.5100098,68.4499817,33.1600037,96.8799744,59.480011,38.2399902,35.3899841,74.3499756,94.8299866,90,127.269989l-89.6500244,35.6699829-60.4599915-101-126.230011-72.1900024,23.7099915-72.3399963"/>
    <path class="uuid-782d701f-6c34-40da-b4b2-5c40003d0613" d="M688.9810422,508.1204251c7.3067627-4.3849792,16.784729-2.016571,21.1699829,5.2900085,4.3876343,7.3071899,2.024231,16.7875061-5.2800293,21.1799927l-12,7.2200012c-4-7.730011-8.8300171-17-14.4899902-27.3099976l10.6000366-6.3800049Z"/>
    <path class="uuid-addcef37-0b03-4bed-b05f-77b0b91b3cf4" d="M673.7910398,618.6304349l-24.2299805-23.6599731-28.9099731-45.8300171,57.7000122-34.6400146c5.6599731,10.3399963,10.5300293,19.5799866,14.4899902,27.3099976,7.9400024,15.460022,12.2800293,24.8599854,12.2800293,24.8599854l56.1400146,12.0700073-87.4700928,39.8900146Z"/>
    <path class="uuid-eb610e47-a817-4a0e-843d-d276ea32ec5b" d="M677.1910031,561.3804349c-1.8093872-4.9433594.1091309-10.477356,4.5900269-13.2399902l11.3200073-7c2.4699707,4.539978,4.6900024,8.6500244,6.6300049,12.2700195l.1699829.3099976c5.3781738,10.0310059,17.2321777,14.6879272,28,11l14.0599976-4.8400269c13.4810181-4.6479492,28.43396-.6525879,37.7999878,10.0999756l3.3699951,3.8800049-109.3699951,62.5800171-24.25-41.4799805,20.4099731-12.5800171c7.1046143-4.3839111,10.1434326-13.1618042,7.2700195-21Z"/>
    <path class="uuid-97f4f1af-ba2e-4026-a967-bdcd82b09d9e" d="M734.8610471,562.3403958l7.1500244-2.460022c13.4810181-4.6479492,28.43396-.6525879,37.7999878,10.0999756l3.3699951,3.8800049-109.4199829,62.5800171-10.4299927-18.1300049,13.3400269-7.8300171c2.515564-1.1015015,5.3118896-1.3916016,8-.8300171l4,.8200073c3.1658936.6565552,6.4625854.1337891,9.2700195-1.4699707l41.9500122-23.9099731c3.5448608-2.0560913,4.751709-6.5964966,2.6956787-10.1412964-.0407715-.0702515-.0826416-.1398315-.1256714-.2086792l-7.6000977-12.4000244Z"/>
    <g>
      <path class="uuid-124ef87c-9679-4c63-96c2-96c3530cc599" d="M677.1510251,561.4304227s6.6699829,41.0999756,61.3200073,6.7700195"/>
      <g>
        <path class="uuid-641d0ee4-5e17-4b61-98c6-08b050a7791a" d="M724.1710446,561.790408s-7.0499878,1.1500244-5.6799927,9.4000244"/>
        <path class="uuid-641d0ee4-5e17-4b61-98c6-08b050a7791a" d="M718.0210202,559.5204495s-7,1.1500244-5.6799927,9.4000244"/>
        <path class="uuid-641d0ee4-5e17-4b61-98c6-08b050a7791a" d="M711.8709958,557.2404202s-7,1.1500244-5.6799927,9.4000244"/>
        <path class="uuid-641d0ee4-5e17-4b61-98c6-08b050a7791a" d="M718.3910153,554.1804227s-3-20.5499878,4.5499878-18,3,15.0900269,0,11.9500122,3.7999878-11,9.6500244-8.4699707c5.8500366,2.5300293-2,12.0999756-10.3099976,16.4899902"/>
      </g>
      <path class="uuid-124ef87c-9679-4c63-96c2-96c3530cc599" d="M707.3109983,603.6404446l-23.4799805-4.5900269c-5.2373047-1.0338135-10.6711426-.213623-15.3699951,2.3200073l-11.5900269,6.2299805"/>
    </g>
    <path class="uuid-97f4f1af-ba2e-4026-a967-bdcd82b09d9e" d="M697.1710446,488.6404141l-4.3400269-7.25c-4.6300659-7.7653198-14.6785278-10.3069458-22.4438477-5.6768494-.1876831.1118774-.3731079.2275391-.5561523.3468628l-66.9299927,43.4599915"/>
    <path class="uuid-124ef87c-9679-4c63-96c2-96c3530cc599" d="M490.3410275,362.1104153s104,32.75,151.5800171,132.1000061"/>
    <path class="uuid-b60943f9-4a75-43d4-8ec9-b2a991078912" d="M460.6710141,263.3704251l-28-74.5299988,9.6000061-2.8000031c10.9884949-3.2014618,22.7306213-2.6490021,33.3699951,1.5700073l65.9100037,26.1300049,1.5899963,78.5800018-82.4700012-28.9500122Z"/>
    <path class="uuid-782d701f-6c34-40da-b4b2-5c40003d0613" d="M536.3910153,269.6804227l24.6000061,7.2200012c.6499939.1900024,1.3099976.3600006,2,.5299988l-.3500061,3.730011c-.5644226,6.1687927-5.2346802,11.1723633-11.3500061,12.1600037-7.4029236,1.2030029-14.3793945-3.8230591-15.5823669-11.2259521-.1844482-1.1351013-.223999-2.2890167-.1176453-3.4340515l.8000183-8.980011Z"/>
    <g>
      <path class="uuid-addcef37-0b03-4bed-b05f-77b0b91b3cf4" d="M541.551019,213.7404202l26.3500061,10.1100006,7.5599976,2.8899994,13.8599854-116.8000031,38.9500122,4.3700027-.539978,107.6399918-.2800293,7.1799927c-1.1195068,28.6361847-25.241272,50.9428558-53.8774414,49.8233337-3.5806274-.1399841-7.1371155-.6504822-10.6125488-1.5233307-.6600037-.1699982-1.3200073-.3399963-2-.5299988l-24.6000061-7.2200012,5.1900024-55.9399872Z"/>
      <path class="uuid-44df7499-7e92-4432-8a05-1bdb1242bb01" d="M625.1209958,105.8404187l28.4299927-25.5100021c1.661438-1.4900589,1.8173218-4.0385094.3499756-5.7200012-1.3704224-1.5687904-3.7025757-1.8533058-5.4099731-.6599998l-30.460022,21.3500023,7.0900269,10.5400009Z"/>
    </g>
  </g>
  <path class="uuid-b398928e-16ea-4894-aaac-9fa4ddc34baa" d="M636.7310422,95.4304227l-30.3599854-22.1200027-15.3800049,20.2099991-2.710022,25.6800003,39.4400024,1.6399994c6.0582886-6.6138382,9.2885132-15.3354797,9-24.2999954l.0100098-1.1100006Z"/>
  <path class="uuid-641d0ee4-5e17-4b61-98c6-08b050a7791a" d="M627.7210324,120.8404187c6.0582886-6.6138382,9.2885132-15.3354797,9-24.2999954v-1.1100006l-14.9000244-11"/>
  <path class="uuid-641d0ee4-5e17-4b61-98c6-08b050a7791a" d="M590.991052,93.520419l-2.710022,25.6800003"/>
  <path class="uuid-b398928e-16ea-4894-aaac-9fa4ddc34baa" d="M602.2510007,119.7404202l.4400024-38.5900002c.046936-4.0126076-3.1008301-7.3374367-7.1099854-7.5099983l-2.3900146-.0900002-4.9099731,45.6099968,13.9699707.5800018Z"/>
  <g>
    <path class="uuid-641d0ee4-5e17-4b61-98c6-08b050a7791a" d="M588.28103,119.2004193l4.9099731-45.6100006,2.3900146.0900002c4.0091553.1725616,7.1569214,3.4973907,7.1099854,7.5099983l-.1199951,11.0800018s12.8900146-1.3799973,21.9400024,12.3499985"/>
    <path class="uuid-641d0ee4-5e17-4b61-98c6-08b050a7791a" d="M617.2110227,78.270419l10.9000244-22.6000004c.9681396-2.0022907.1768188-4.4116325-1.789978-5.4499989-1.8634033-.9888458-4.1726685-.4104424-5.3499756,1.3400002l-18.6699829,27.3400002"/>
    <path class="uuid-97f4f1af-ba2e-4026-a967-bdcd82b09d9e" d="M403.571008,575.3704251c76.6900024,20,136-52.0899963,113.5299988-111.5700073l-57.1499939-147-76.8699951,15.6199951c.3099976,7.0499878-3.8900146,31.4200134,1.9200134,49.9100037,15.5400085,49.4100037,51.5700073,112.730011,51.5700073,112.730011l-92-32.3500061-46.5,83.6299744,105.4999695,29.0300293Z"/>
    <path class="uuid-782d701f-6c34-40da-b4b2-5c40003d0613" d="M318.4610227,536.6104153c-2.9085999,8.2255249-11.9337769,12.5366821-20.1600037,9.6300049-8.2255402-2.9086304-12.5366821-11.9337769-9.6300049-20.1600037l6.1999969-17.5299988c8.0800018,3.8699951,17.7899933,8.4599915,28.7299957,13.5299988l-5.1399841,14.5299988Z"/>
    <path class="uuid-addcef37-0b03-4bed-b05f-77b0b91b3cf4" d="M253.8710263,430.8404263l60.8800049,21.3999939,29.7999878,10.5-22.7999878,64c-10.4799957-3.6900024-25.2400055-12.4400024-39.8800049-16.9500122-16.75-5.1600037-15.7200012-2.7200012-15.7200012-2.7200012l-46.4700012,33.6700134,34.1900024-109.8999939Z"/>
    <path class="uuid-eb610e47-a817-4a0e-843d-d276ea32ec5b" d="M297.9610227,490.5604276c4.5722504,2.6199646,6.6638031,8.0998535,5,13.1000061l-4.2299957,12.6099854c-4.8000031-1.8999939-9.1399994-3.6400146-12.9499969-5.1700134l-.3300018-.1300049c-10.5745697-4.2644653-22.6810608-.2275391-28.5800018,9.5299988l-7.6900024,12.7200012c-7.3773956,12.203125-21.4205017,18.7103882-35.5,16.4500122l-5.0700073-.8099976,43.9100037-118.1199951,45.1900024,16.3200073-7.6100006,22.6799927c-2.6692505,7.926178.6186218,16.6352844,7.8600006,20.8200073Z"/>
    <path class="uuid-97f4f1af-ba2e-4026-a967-bdcd82b09d9e" d="M253.0610288,526.7404202l-3.9199982,6.4700012c-7.3773956,12.2030945-21.420517,18.7103577-35.5,16.4499817l-5.0700073-.8099976,43.9499969-118.1099854,19.6300049,7.2399902-5.2400055,14.5599976c-1.2261505,2.4528809-3.1826324,4.465271-5.6000061,5.7600098l-3.5800018,1.9200134c-2.8521729,1.5207825-5.0500793,4.0316467-6.1799927,7.0599976l-16.8999939,45.230011c-1.4383087,3.8431396.5111847,8.1246033,4.3543243,9.5629272.0813751.0304565.1632843.0594788.2456818.0870667l13.8099976,4.5799866Z"/>
    <g>
      <path class="uuid-124ef87c-9679-4c63-96c2-96c3530cc599" d="M297.9610227,490.4904202s-31.4400024-27.2999878-51.4299927,34.0700073"/>
      <g>
        <path class="uuid-641d0ee4-5e17-4b61-98c6-08b050a7791a" d="M261.6210263,520.3304166s4.6699982-5.3999939-1.6600037-10.8599854"/>
        <path class="uuid-641d0ee4-5e17-4b61-98c6-08b050a7791a" d="M267.801019,518.1404141s4.6699982-5.3999939-1.6600037-10.8599854"/>
        <path class="uuid-641d0ee4-5e17-4b61-98c6-08b050a7791a" d="M273.9810269,515.9504117s4.6699982-5.3999939-1.6600037-10.8599854"/>
        <path class="uuid-641d0ee4-5e17-4b61-98c6-08b050a7791a" d="M270.9310239,522.4804105s15.4499969,13.8599854,8,16.7000122-12-9.6700134-7.6900024-9.1499939,4.1100006,10.8600159-2,12.6899719c-6.1100006,1.8299561-6.1900024-10.6099854-2.6399994-19.2799988"/>
      </g>
    </g>
  </g>
  <path class="uuid-b398928e-16ea-4894-aaac-9fa4ddc34baa" d="M433.4610227,218.4404172c-7.3500061,1.4100037-15.2900085-2.7700043-16.7000122-10.1300049l-2.0799866-15.8300018,10-1.4100037c5.7480164-1.1023712,11.6619568-1.0036469,17.3699951.2899933l2.1499939,11.2100067c1.4107666,7.3469391-3.3951416,14.4483948-10.7399902,15.8699951v.0000153Z"/>
  <path class="uuid-124ef87c-9679-4c63-96c2-96c3530cc599" d="M442.051019,191.3604153l2.1499939,11.2100067c1.4107666,7.3469391-3.3951416,14.4483948-10.7399902,15.8699951-7.3500061,1.4100037-15.3800049-3.2299957-16.7900085-10.5899963l-1.8800049-17.2599945"/>
  <path class="uuid-f6a6052e-bee4-4ae9-8f93-4fa5db3eef8b" d="M382.5910275,335.8104276l114.6000061-22-28.4599915-98.0700073c-6.1185303-21.0983887-27.2955933-34.0680847-48.8699951-29.9299927-20.8432312,3.9931641-35.5573425,22.7345581-34.4899902,43.9299927l-2.7800293,106.0700073Z"/>
  <g>
    <path class="uuid-b60943f9-4a75-43d4-8ec9-b2a991078912" d="M431.0110105,173.5404233l13.6799927,2.6999969c2.5995178.4969177,4.7245483,2.365448,5.5499878,4.8800049l2.1600037,6.7700043c.2832642,1.067627-.3526001,2.1627502-1.4202576,2.4459991-.4244385.1126099-.874176.0823822-1.2797546-.0859985l-16.8200073-7.1399994-1.8699646-9.5700073Z"/>
    <path class="uuid-124ef87c-9679-4c63-96c2-96c3530cc599" d="M419.8610166,185.8104276c-20.8432312,3.9931641-35.5573425,22.7345581-34.4899902,43.9299927l-2.7799988,106.0800171,114.6000061-22-28.4599915-98.0800018"/>
    <path class="uuid-b60943f9-4a75-43d4-8ec9-b2a991078912" d="M443.1510251,182.8704251l-.1199951,15-14.6700134-12.3300018-27.8999939-1.1799927-.0899963-1.3099976c-.2710571-3.8286438,2.4849243-7.2067719,6.2900085-7.7100067l22.9299927-3"/>
    <path class="uuid-b60943f9-4a75-43d4-8ec9-b2a991078912" d="M394.7610105,263.5804166c-26.9100037-3.4299927-31-3.8800049-75.0499878-9.5099945l41.2000122-75.0500031,52.3200073,7.3099976"/>
    <path class="uuid-782d701f-6c34-40da-b4b2-5c40003d0613" d="M334.28103,245.6704129c-2.291748,5.7521667-8.1888733,9.2213135-14.3299866,8.4299927-7.4350281-.942337-12.6983795-7.7335358-11.7560425-15.1685638.1452637-1.1461334.4362946-2.2690277.8660431-3.3414307l2.2299957-5.6000061c5.7200012,1.2799988,15.3299866,3.3999939,26.9299927,5.8300018l-3.9400024,9.8500061Z"/>
    <path class="uuid-addcef37-0b03-4bed-b05f-77b0b91b3cf4" d="M255.1310208,223.3304166c11.9943085-31.513092,43.3989105-51.2816772,76.9999847-48.4700012l1.1000061.1600037,27.6600037,4-22.6900024,56.8000031c-11.6000061-2.4299927-21.2099915-4.5500031-26.9299927-5.8300018-3.6199951-.8099976-5.6799927-1.2899933-5.6799927-1.2899933l-53.8000031,113.0399933-34.9400024-17.769989,38.2799988-100.6400146Z"/>
  </g>
  <path class="uuid-b398928e-16ea-4894-aaac-9fa4ddc34baa" d="M240.6110166,332.6304349l-12.4299927,35.9199829c-1.2742615,3.7157288.61586,7.7742004,4.2799988,9.1900024l2.1900024.8399963,18.8099976-41.0599976-12.8500061-4.8899841Z"/>
  <path class="uuid-338077b5-f51c-4428-a953-5e2255f8680c" d="M253.4610227,337.520419l-18.7900085,41.0899963-2.2100067-.8699951c-3.6955261-1.4003296-5.6090088-5.4841919-4.3200073-9.2200012l3.5700073-10.3200073s-12.4499969-2.7099915-16.6600037-18.3600159"/>
  <path class="uuid-6f094d2f-8bde-4ded-8168-8933c92a2453" d="M214.9010251,338.540408l-34.5,15c-2.0178223.8704834-2.955513,3.2058105-2.0999985,5.230011.7859192,1.8985901,2.8825531,2.8928833,4.8499985,2.2999878l35.0899963-10.4700012-3.3399963-12.0599976Z"/>
  <path class="uuid-b398928e-16ea-4894-aaac-9fa4ddc34baa" d="M211.7710202,345.6504239l-8.7400055,6.0899963-4.1999969,2.9200134-18,12.4700012c-1.7963409,1.2598572-2.2425003,3.7316284-1,5.5400085,1.1445312,1.7078247,3.397316,2.2699585,5.2100067,1.2999878l32.4199982-17.1600037-5.6900024-11.1600037Z"/>
  <path class="uuid-338077b5-f51c-4428-a953-5e2255f8680c" d="M201.7310269,352.6204251l-2.8999939,2-18,12.4700012c-1.7963409,1.2598572-2.2425003,3.7316284-1,5.5400085,1.1445312,1.7078247,3.397316,2.2699585,5.2100067,1.2999878l32.4199982-17.1199951-5.6399994-11.1600037"/>
  <path class="uuid-b398928e-16ea-4894-aaac-9fa4ddc34baa" d="M213.4010251,354.5704068l-28.3200073,24.7600098c-1.6599503,1.4399414-1.8474884,3.9493103-.4199982,5.6199951,1.3250275,1.571106,3.6250458,1.8823853,5.3200073.7200012l30.2599945-20.6300049-6.8399963-10.4700012Z"/>
  <path class="uuid-338077b5-f51c-4428-a953-5e2255f8680c" d="M205.7110227,361.3004178l-20.6300049,18c-1.6599503,1.4399414-1.8474884,3.9493103-.4199982,5.6199951,1.3250275,1.571106,3.6250458,1.8823853,5.3200073.7200012l30.2599945-20.6300049-6.8399963-10.4700012"/>
  <path class="uuid-b398928e-16ea-4894-aaac-9fa4ddc34baa" d="M218.2110227,362.1204251l-21.75,22.3599854c-1.5149689,1.5786743-1.5149689,4.0713196,0,5.6499939,1.4367065,1.4985046,3.769577,1.6792908,5.4199982.4200134l22.7799988-17.480011-6.4499969-10.9499817Z"/>
  <path class="uuid-b398928e-16ea-4894-aaac-9fa4ddc34baa" d="M200.8110288,344.6604337l21.4799957,30.0799866,16.3000031-11.8299866,16.3099976-27.769989-37.7599945-11.3999939c-7.7288361,4.2829285-13.4724731,11.4230042-16,19.8899841l-.3300018,1.0299988Z"/>
  <g>
    <g>
      <path class="uuid-338077b5-f51c-4428-a953-5e2255f8680c" d="M217.1710294,323.4704312c-7.7439117,4.3836975-13.4810791,11.6053467-16,20.1399841l-.3200073,1.0499878"/>
      <path class="uuid-338077b5-f51c-4428-a953-5e2255f8680c" d="M242.9510282,360.6704129l11.9499969-25.5100098"/>
      <path class="uuid-338077b5-f51c-4428-a953-5e2255f8680c" d="M212.4610227,367.8504056l-16,16.6300049c-1.5149689,1.5786743-1.5149689,4.0713196,0,5.6499939,1.4367065,1.4985046,3.769577,1.6792908,5.4199982.4200134l31.4400024-23.6199951"/>
    </g>
    <path class="uuid-782d701f-6c34-40da-b4b2-5c40003d0613" d="M428.4610227,106.8104199l11-2c6.7035828-1.2586365,13.1582336,3.1553726,14.4168701,9.8589554.0044556.0236664.0088196.047348.0131226.0710449,2.1813354,11.9413376-5.7215576,23.3929138-17.6600037,25.5899963l-8.769989,1.5599976,1-35.0799942Z"/>
  </g>
  <path class="uuid-b398928e-16ea-4894-aaac-9fa4ddc34baa" d="M406.9610227,146.6004208l4,42.5399933,28.4500122,4.7599945-9.3699951-51.0500031"/>
  <path class="uuid-641d0ee4-5e17-4b61-98c6-08b050a7791a" d="M439.4110349,193.9104184l-9.3599854-51.0599976"/>
  <path class="uuid-253a2e8e-d954-46f3-9afe-ccbc35ce3145" d="M433.2210324,160.1404141s-6.7799988,1.9100037-12.4299927-.3800049c2.8099976,7.5700073,15,14.6000061,15,14.6000061l-2.5700073-14.2200012Z"/>
  <circle class="uuid-b398928e-16ea-4894-aaac-9fa4ddc34baa" cx="425.1710141" cy="143.5004205" r="18.4699984"/>
  <g>
    <path class="uuid-641d0ee4-5e17-4b61-98c6-08b050a7791a" d="M421.1110166,161.5304135c9.9550476,2.2503815,19.8494873-3.9954834,22.0998535-13.9505234,2.2503967-9.9550323-3.9954834-19.8494797-13.9505005-22.0998535-2.437561-.5510178-4.9615479-.6019211-7.419342-.1496201"/>
    <path class="uuid-782d701f-6c34-40da-b4b2-5c40003d0613" d="M444.1510251,110.9004239c-.6648865-3.6496735-4.1431885-6.0844727-7.7999878-5.4599991-10.3500061,1.7600021-21.1199951,3.7600021-29.4200134,5.3499985-10.7070007,1.9633789-17.795105,12.2347488-15.8317261,22.9417572.4960022,2.7049103,1.5525513,5.2760925,3.1017151,7.5482407l2.6700134,3.9199982,11.4100037,16.3799973s9.6600037-1.7700043,7.8399963-14.2799988c-6.3999939-1.1999969-5.2399902-10.4499969-.8500061-9.8300018,4.3899841.6199951,5.7099915,10.3700027,5.7099915,10.3700027,0,0,1.3500061-.8600006.8299866-7.0599976-.2481079-3.1552353,1.8544617-6.0153885,4.9400024-6.7200012l1.6300049-.3000031c10.6640015-1.9529495,17.725708-12.1810074,15.7727356-22.8450089l-.0027466-.0149918.0000305.0000076Z"/>
    <path class="uuid-641d0ee4-5e17-4b61-98c6-08b050a7791a" d="M408.28103,161.5804166l2.6799927,27.5599976"/>
  </g>
  <path class="uuid-f6a6052e-bee4-4ae9-8f93-4fa5db3eef8b" d="M442.9110349,197.9304227l-6.7799988-10.1900024c-2.440155-3.6812744-6.4052429-6.0713501-10.7999878-6.5099945l-19.230011-1.9299927c-2.4022522-.2397156-4.6434631,1.2377319-5.3699951,3.5399933-1.1372375,3.6313324.884613,7.4970245,4.5159302,8.6342621.0279846.0087585.0559998.017334.0840759.0257416l13,3.8999939c3.3592224,1.0103607,6.9412842-.6644287,8.3200073-3.8899994"/>
  <g>
    <path class="uuid-124ef87c-9679-4c63-96c2-96c3530cc599" d="M400.6910337,180.3904141c-1.3800049,5.75,1,10,4.6400146,11.1000061l13,3.8999939c3.3592224,1.0103607,6.9412842-.6644287,8.3200073-3.8899994l1.4400024-4.0599976"/>
    <path class="uuid-124ef87c-9679-4c63-96c2-96c3530cc599" d="M406.1010373,179.2904233l19.230011,1.9299927c4.3947449.4386444,8.3598328,2.8287201,10.7999878,6.5099945l4.0700073,6.1100006c1.8087158,2.7039642,3.1600952,5.6871643,4,8.8300018l7.230011,27.3699951"/>
    <path class="uuid-124ef87c-9679-4c63-96c2-96c3530cc599" d="M247.7610257,477.3904141l21-11.5100098c4.671051-2.5615234,8.3080597-6.6650696,10.2899933-11.6099854l4.9100037-12.2099915"/>
    <path class="uuid-124ef87c-9679-4c63-96c2-96c3530cc599" d="M377.821008,474.4104337l-22.1499939,72.1299744c-2.467926,8.0449219-10.8878174,12.6669922-19,10.4299927l-29-8"/>
    <path class="uuid-124ef87c-9679-4c63-96c2-96c3530cc599" d="M432.9010251,369.5304288l41.6799927,115.7200012c2.8887939,8.0166626,2.7608337,16.8107605-.3599854,24.7399902-6.4423828,16.3664246-24.0061951,25.4347839-41.0800171,21.2099915l-67.6300049-16.730011"/>
    <path class="uuid-124ef87c-9679-4c63-96c2-96c3530cc599" d="M441.4010251,353.2604092s-4.3099976,23.5799866-24,18.1799927"/>
    <path class="uuid-124ef87c-9679-4c63-96c2-96c3530cc599" d="M472.4610227,318.790408l17.8299866,44.5400085c3.2495728,9.6953735,5.1638184,19.7880859,5.6900024,30l1,18.5899963"/>
  </g>
</svg>