<?xml version="1.0" encoding="UTF-8"?>
<svg id="uuid-f4015ef2-aabf-4cbf-9f4a-34b9b0e87a12" data-name="Ebene 1" xmlns="http://www.w3.org/2000/svg" viewBox="0 0 1140.534809 1049.4504319">
  <defs>
    <style>
      .uuid-d22272dc-71ea-4987-8f57-7431ac68566e, .uuid-e0936ac9-ff12-4962-8033-6bcedb226def, .uuid-2447a659-ad84-4f2a-953e-f6b7a18f1823, .uuid-04e97260-4c39-4835-83c8-75b97e48a453, .uuid-7b5a3a27-026d-44da-83fb-d517a0dcef9a, .uuid-60a2d0c5-1241-40f0-96b1-7d00dbfa7df6, .uuid-8ace16ab-4420-4d26-aeda-9948f0312b5e, .uuid-988ee662-b86e-4855-bfcd-006df98fd42c, .uuid-4bd45ff9-b018-4596-8b7f-163c22cf7c27, .uuid-61b0ca40-5812-44c8-b293-d4791a91e20f, .uuid-2ae5bba1-4bf1-4368-95f4-996c63963d93, .uuid-a30f586e-bc15-4a46-8641-5ba200003849 {
        stroke: #1d2b47;
        stroke-miterlimit: 10;
        stroke-width: 1.4px;
      }

      .uuid-d22272dc-71ea-4987-8f57-7431ac68566e, .uuid-c86ed6e0-67a4-4765-8c82-c38a594c9fd7, .uuid-04e97260-4c39-4835-83c8-75b97e48a453 {
        fill: #dad9f3;
      }

      .uuid-e0936ac9-ff12-4962-8033-6bcedb226def, .uuid-2447a659-ad84-4f2a-953e-f6b7a18f1823, .uuid-04e97260-4c39-4835-83c8-75b97e48a453, .uuid-988ee662-b86e-4855-bfcd-006df98fd42c, .uuid-4bd45ff9-b018-4596-8b7f-163c22cf7c27, .uuid-2ae5bba1-4bf1-4368-95f4-996c63963d93 {
        stroke-linecap: round;
      }

      .uuid-e0936ac9-ff12-4962-8033-6bcedb226def, .uuid-60a2d0c5-1241-40f0-96b1-7d00dbfa7df6, .uuid-bc9612b0-47c6-48e8-8e02-d6902cf48dc8 {
        fill: #fff;
      }

      .uuid-2447a659-ad84-4f2a-953e-f6b7a18f1823, .uuid-072995ae-a4a5-4b70-9365-37a67bb69bf6, .uuid-a30f586e-bc15-4a46-8641-5ba200003849 {
        fill: #0d00ad;
      }

      .uuid-7b5a3a27-026d-44da-83fb-d517a0dcef9a, .uuid-988ee662-b86e-4855-bfcd-006df98fd42c, .uuid-b25a9178-a014-491c-9424-ee98d3ee656f {
        fill: #f2f2fb;
      }

      .uuid-8ace16ab-4420-4d26-aeda-9948f0312b5e, .uuid-4bd45ff9-b018-4596-8b7f-163c22cf7c27 {
        fill: #8480ce;
      }

      .uuid-61b0ca40-5812-44c8-b293-d4791a91e20f, .uuid-2ae5bba1-4bf1-4368-95f4-996c63963d93 {
        fill: none;
      }
    </style>
  </defs>
  <g>
    <path class="uuid-8ace16ab-4420-4d26-aeda-9948f0312b5e" d="M1040.4832036,263.153008l-319.7099609,220.1499939v32.9500122l319.7099609,234.8699646"/>
    <path class="uuid-d22272dc-71ea-4987-8f57-7431ac68566e" d="M480.3231999,422.153008l-57.7200012-71.6400146c-8.2216492-10.1992188-17.8121948-19.2143555-28.5-26.7900085l-14-9.9400024-26.7000122,69.269989-6.4200134,38.3200073c26.8999939,30.1499939,90.7099915,92.9500122,204.3800049,104.1499939l6.1600037-19.6000061-7.4899902-68.2900085-69.7099915-15.47995Z"/>
    <path class="uuid-a30f586e-bc15-4a46-8641-5ba200003849" d="M536.4832036,503.0230031c-2.127594,10.3036499,4.5003967,20.3811646,14.8040466,22.5087891.0019836.0003967.0039673.000824.0059509.0012207,10.3080444,2.1217346,20.3849487-4.5126343,22.5100098-14.8200073l3.3399963-16.2200012-37.75-5.6000061-2.9100037,14.1300049Z"/>
    <path class="uuid-7b5a3a27-026d-44da-83fb-d517a0dcef9a" d="M587.2031743,445.8629994l-37.2099915-8.269989-10.5700073,51.2999878,37.75,5.6000061,38.0699768,5.6600037,11.3599854-45.5400085-39.3999634-8.75Z"/>
    <path class="uuid-60a2d0c5-1241-40f0-96b1-7d00dbfa7df6" d="M289.8531987,688.4230275l-26.3200073-243.5700073s51.3500061-7.6700134,108,39.8099976c25.3699951,99.9000244,21.1499939,282.0899658,16.7799988,376.5899658l-119.2099915,17,20.75-189.8299561Z"/>
    <path class="uuid-2447a659-ad84-4f2a-953e-f6b7a18f1823" d="M286.2632023,861.2529836h23.9499969l-.7299957,34.1599731h-23.1999969c-9.4291229-.0055542-17.0700073-7.6508789-17.0699921-17.0800171-.0000305-9.4213257,7.6286926-17.0634766,17.0500031-17.0800171l-.0000153.000061Z"/>
    <path class="uuid-60a2d0c5-1241-40f0-96b1-7d00dbfa7df6" d="M248.4131962,444.2930226s43.3500061-37.5299988,80.6400146,26.3099976c-10,103.4400024-79.4299927,281.4700317-116.8800049,371.6000366l-120.5400009-27.789978,79.5100021-148.3900146,20-102.5100098c5.6780548-29.1891785,16.9226837-57.0121765,33.1199951-81.9500122l24.1499939-37.2700195Z"/>
    <path class="uuid-2447a659-ad84-4f2a-953e-f6b7a18f1823" d="M91.6032044,814.6329885c3.3545055-8.7963867,13.1942463-13.2197876,22.0000019-9.8900146l25.409996,9.6599731-12.2299995,31.8800049-25.2999992-9.6099854c-8.8098927-3.3627319-13.2312374-13.225708-9.8799992-22.039978Z"/>
    <path class="uuid-7b5a3a27-026d-44da-83fb-d517a0dcef9a" d="M100.8832051,913.653008l25.9000015-67.3699951,12.2600021-31.8800049,73.1299973,27.7999878c-5.1000061,12.2600098-9.6000061,22.8900146-13.2799988,31.4899902-6.5899963,15.3800049-10.5400009,24.2600098-10.5400009,24.2600098l30.9500046,55.8900146-118.4200058-40.1900024Z"/>
    <path class="uuid-04e97260-4c39-4835-83c8-75b97e48a453" d="M398.2231938,364.6930165l-1.269989,5.769989c16.6686401,3.3925171,27.4310608,19.655304,24.0385132,36.3239441-3.3925171,16.6686401-19.655304,27.4310608-36.3239441,24.0385437-.3226318-.0656738-.6441956-.1365051-.9645691-.2124939l-11.7799988,53.5400085-123.7200012-39.6099854,54.3699951-112.9100037c8.1927643-16.9728088,25.0780945-28.0438385,43.9100037-28.7900085l1.8399963-4.5099945c1.3423157-3.3115845,5.1150208-4.9079895,8.4266052-3.5656738.1193237.0483551.2371826.1002655.3533936.1556702l31.25,14.8000031c2.9299622,1.3843994,4.3897095,4.717926,3.4200134,7.8099976l-2,6.2999878"/>
    <path class="uuid-a30f586e-bc15-4a46-8641-5ba200003849" d="M410.9632145,231.6230092l26.9200134,9.8600006c6.8400879,2.4735565,10.3798523,10.0237427,7.9062805,16.8638153-.5076904,1.4039001-1.2503662,2.7112427-2.1962891,3.8661804-2.556488,3.0475922-5.5289307,5.7204285-8.8299866,7.9400024-3.0604553,2.0653687-5.396637,5.0380402-6.6799927,8.5-2.4510803,6.7072144-9.8753662,10.1574707-16.58255,7.7063904-.0058289-.0021362-.0116577-.0042572-.0174561-.0063934l-8.3699951-3.0700073,7.8499756-51.6599884Z"/>
    <path class="uuid-a30f586e-bc15-4a46-8641-5ba200003849" d="M317.7532078,243.6830068c.4402008.158432.8709106.3420715,1.2899933.5500031l3-8.2400055c4.6208801-12.6215515,18.5975952-19.1085052,31.2200012-14.4900055l19.2099915,7-9.7399902,26.6499939c-6.0886841,16.6499786-24.5220337,25.2116089-41.1719971,19.1229248-.002655-.0009766-.0053406-.0019531-.0079956-.0029297l-11.9199982-4.3699951v-.0599976c-7.343399-1.8683014-11.7818451-9.3358765-9.9135437-16.6792755,1.8683014-7.3434143,9.3358765-11.7818604,16.6792755-9.913559.4514771.1148682.8968201.252655,1.3342743.4128265l.019989.0200195Z"/>
    <circle class="uuid-8ace16ab-4420-4d26-aeda-9948f0312b5e" cx="370.3732182" cy="234.3230062" r="10.640007"/>
  </g>
  <path class="uuid-b25a9178-a014-491c-9424-ee98d3ee656f" d="M374.6631962,263.3230062l-21.730011,46.3100128,26.4599915,22.2099915,21.3699951-58.3699951"/>
  <path class="uuid-2ae5bba1-4bf1-4368-95f4-996c63963d93" d="M379.3932072,331.8430104l21.3699951-58.3699951"/>
  <path class="uuid-072995ae-a4a5-4b70-9365-37a67bb69bf6" d="M393.4832036,293.2330098s-8.1600037-2.1399994-12.6000061-7.9400024c-1.6900024,9.5200043,6.6499939,24.2100067,6.6499939,24.2100067l5.9500122-16.2700043Z"/>
  <circle class="uuid-b25a9178-a014-491c-9424-ee98d3ee656f" cx="395.3332097" cy="271.1930013" r="22.1199951"/>
  <g>
    <path class="uuid-2ae5bba1-4bf1-4368-95f4-996c63963d93" d="M380.1832158,287.3130117c2.173645,2.0456848,4.743042,3.6247559,7.5499878,4.6399994,11.4682007,4.1973724,24.1676331-1.6967926,28.3650208-13.1649933,4.1973572-11.4682007-1.6968079-24.1676331-13.1650085-28.3650055"/>
    <path class="uuid-a30f586e-bc15-4a46-8641-5ba200003849" d="M365.1132084,255.7430043l1.8099976,23.8300018s11,4,16.769989-10c-5.8800049-5.1399994.9299927-14,5.0899963-10.6600037s-.4100037,14.1600037-.4100037,14.1600037c0,0,1.9200134-.0599976,5.1400146-6.7700043,1.6626892-3.4100342,5.5758057-5.0834351,9.1900024-3.9299927,7.2600098,2.1999969,17.4200134-.3999939,25.230011-7.1199951,4.3016357-3.6735229,7.5867615-8.3911438,9.5400085-13.6999969-13.7799988-5.3600006-29.5-11.0899963-41.0700073-15.2400055-12.2458801-4.4794312-25.8044434,1.8165131-30.2838745,14.0623932-1.129425,3.0875854-1.601532,6.3770142-1.3861389,9.657608l.3800049,5.7099915Z"/>
    <g>
      <path class="uuid-2ae5bba1-4bf1-4368-95f4-996c63963d93" d="M366.923206,279.5730062l-13.9899902,30.0600128"/>
      <path class="uuid-4bd45ff9-b018-4596-8b7f-163c22cf7c27" d="M318.5432011,243.9730153l14.1900024,5.1900024"/>
    </g>
  </g>
  <path class="uuid-c86ed6e0-67a4-4765-8c82-c38a594c9fd7" d="M388.3131901,316.2029958s-21.6700134-6.3399963-34.3500061-16.3800049c-2.5159302,6.739624-4.6329346,13.621521-6.3399963,20.6099854l35.3999939,16.9100037,5.2900085-21.1399841Z"/>
  <g>
    <g>
      <g>
        <path class="uuid-2ae5bba1-4bf1-4368-95f4-996c63963d93" d="M388.3131901,316.2029958s-21.6700134-6.3399963-34.3500061-16.3800049"/>
        <path class="uuid-2ae5bba1-4bf1-4368-95f4-996c63963d93" d="M353.6832158,302.6230092l-2.5799866,5.3900146"/>
        <path class="uuid-2ae5bba1-4bf1-4368-95f4-996c63963d93" d="M358.7231938,307.1030202l-2.5799866,5.3900146"/>
        <path class="uuid-2ae5bba1-4bf1-4368-95f4-996c63963d93" d="M364.3431889,311.0330129l-2.6199951,5.3699951"/>
        <path class="uuid-2ae5bba1-4bf1-4368-95f4-996c63963d93" d="M385.943195,318.2029958l-2.1400146,5.5899963"/>
        <path class="uuid-2ae5bba1-4bf1-4368-95f4-996c63963d93" d="M379.2231938,316.5230031l-2.1400146,5.5899963"/>
        <path class="uuid-2ae5bba1-4bf1-4368-95f4-996c63963d93" d="M371.943195,315.403008l-2.1300049,5.5899963"/>
      </g>
      <path class="uuid-61b0ca40-5812-44c8-b293-d4791a91e20f" d="M339.6832158,473.8230214s-4.4700012,64.5400085-17.9100037,100.9300232c-14.5599976,21.2800293-23.3600006,32.2799683-23.3600006,32.2799683"/>
      <g>
        <path class="uuid-2ae5bba1-4bf1-4368-95f4-996c63963d93" d="M287.6132084,487.9630055s-13.4400024,19-40.8800049,7.2799988"/>
        <path class="uuid-2ae5bba1-4bf1-4368-95f4-996c63963d93" d="M267.173206,498.9130178s-4.1999969,84.2399902-44.5099945,176.6300049c-40.3099976,92.3900146-61,147.460022-61,147.460022"/>
      </g>
    </g>
    <path class="uuid-7b5a3a27-026d-44da-83fb-d517a0dcef9a" d="M356.4832036,907.9230275h-47.3000031l.2799988-12.5100098.75-34.1599731h78.1299896c-.230011,5-.4599915,9.7199707-.6900024,14.1900024l-22.769989,20.1599731-8.3999939,12.3200073Z"/>
    <path class="uuid-8ace16ab-4420-4d26-aeda-9948f0312b5e" d="M308.2332036,951.153008l.9499969-43.1900024h33.8000031c7.4558411,0,13.5-6.0441284,13.5-13.5v-10.9899902c0-4.4182739,3.5817261-8,8-8h23.1400146c-.3800049,7.4400024-.7399902,14.1300049-1.0799866,20v.4899902c-.8459473,14.7105713,7.7899475,28.3203125,21.4599915,33.8200073v24.1199951l-99.7700195-2.75Z"/>
    <path class="uuid-60a2d0c5-1241-40f0-96b1-7d00dbfa7df6" d="M429.2831913,935.36303c14.8200073,5.0800171,25.75,15.1199951,27.4100037,30.5800171v4.7000122l-148.8099976-4.5700073.3300018-15,92.6399994,2.5300293c3.8314209.1049194,7.0224609-2.9159546,7.1274109-6.7473755.0017395-.064209.0026245-.128418.002594-.192627v-17c.5599976.2299805,1.1199951.4500122,1.7000122.6400146l19.5999756,5.0599365Z"/>
    <g>
      <path class="uuid-61b0ca40-5812-44c8-b293-d4791a91e20f" d="M356.4832036,894.4830251s-5,39.7600098,51.519989,46"/>
      <g>
        <path class="uuid-2ae5bba1-4bf1-4368-95f4-996c63963d93" d="M398.9131962,916.942986s-7.4599915-4.1699829-12.3299866,4.5800171"/>
        <path class="uuid-2ae5bba1-4bf1-4368-95f4-996c63963d93" d="M394.8431889,910.2330251s-7.4700012-4.1699829-12.3299866,4.5800171"/>
        <path class="uuid-2ae5bba1-4bf1-4368-95f4-996c63963d93" d="M390.7732121,903.5230031s-7.4700012-4.1699829-12.2900085,4.6300049"/>
        <path class="uuid-2ae5bba1-4bf1-4368-95f4-996c63963d93" d="M399.173206,905.5029836s12.4899902-21.4899902,17.6199951-13.4500122c5.1300049,8.039978-8.4100037,16.3800049-8.8500061,11.2399902-.4400024-5.1400146,11.7399902-7.460022,15.3500061-.7600098,3.6100159,6.7000122-10.9200134,9.8300171-21.9500122,7.7800293"/>
      </g>
    </g>
    <circle class="uuid-60a2d0c5-1241-40f0-96b1-7d00dbfa7df6" cx="335.7732121" cy="929.7629933" r="8.4000092"/>
    <path class="uuid-8ace16ab-4420-4d26-aeda-9948f0312b5e" d="M104.1732022,900.4630055l16.8199997-39.5299683,31.1599998,12.4899902c6.8773804,2.7481689,14.6804428-.5991821,17.4286346-7.4765625.0004578-.0011597.0009079-.0022583.0013657-.003418l4-10.1099854c1.6435471-4.0784302,6.2705536-6.0658569,10.3600006-4.4500122l21.340004,8.5499878c-3.0899963,6.7299805-5.8999939,12.7800293-8.3600006,18l-.2100067.4400024c-6.2090378,13.2723389-3.2731934,29.0253296,7.3000031,39.1699829l-8.8899994,22.2700195-90.9500008-39.3500366Z"/>
    <path class="uuid-60a2d0c5-1241-40f0-96b1-7d00dbfa7df6" d="M221.5932042,930.653008c11.8000031,10.1699829,18.1699982,23.4799805,14,38.3699951l-1.7100067,4.3499756-135.5299988-59.2199707,5.8199997-13.7000122,84.4899979,36.5800171c3.4861298,1.5115356,7.5375519-.0891724,9.0490875-3.5753174.0279694-.0644531.0549469-.1293945.0809174-.1947021l6.2599945-15.6900024c.4400024.4199829.8800049.8300171,1.3399963,1.2199707l16.2000122,11.8600464Z"/>
    <g>
      <path class="uuid-61b0ca40-5812-44c8-b293-d4791a91e20f" d="M169.5632054,866.0029836s-19.3199997,34.8499756,30.5399933,61.4799805"/>
      <g>
        <path class="uuid-2ae5bba1-4bf1-4368-95f4-996c63963d93" d="M200.3932072,902.4230275s-5.3399963-6.6099854-13.0599976-.3300171"/>
        <path class="uuid-2ae5bba1-4bf1-4368-95f4-996c63963d93" d="M199.1132084,894.7130055s-5.3399963-6.5999756-13-.3200073"/>
        <path class="uuid-2ae5bba1-4bf1-4368-95f4-996c63963d93" d="M197.8432042,887.0129933s-5.3499985-6.5999756-13.0599976-.3200073"/>
        <path class="uuid-2ae5bba1-4bf1-4368-95f4-996c63963d93" d="M204.8531987,891.9529958s19.4400024-15.2299805,21.2099915-5.9099731c1.769989,9.3200073-13.8000031,12-12.3099976,7.1099854,1.4900055-4.8900146,13.5800018-2.5599976,14.4400024,5,.8600006,7.5599976-13.6999969,5-23.1100006-.9199829"/>
      </g>
    </g>
    <ellipse class="uuid-60a2d0c5-1241-40f0-96b1-7d00dbfa7df6" cx="137.4432036" cy="890.9230275" rx="8.340003" ry="8.3599854"/>
    <path class="uuid-61b0ca40-5812-44c8-b293-d4791a91e20f" d="M329.0532109,549.0030141s19.5899963,112.5500183,8.4299927,312.2499695"/>
    <path class="uuid-04e97260-4c39-4835-83c8-75b97e48a453" d="M346.8632084,302.9730153l-104.6199951-37.6699982c-50.4100037-23.1499939-115.2799988-.1499939-119.2799988,40.1200104l-3.3600006,25.2000122-7.2799988,67.1900024,96.6800079-5.1700134,10.8300018-58.1000061,99.1100006,38.0700073"/>
    <path class="uuid-a30f586e-bc15-4a46-8641-5ba200003849" d="M133.673206,381.5230031c-10.4096794-1.5317993-20.0915184,5.6613159-21.6299973,16.0700073-1.5318184,10.409668,5.6613045,20.0915222,16.0699997,21.6300049l24.1100006,3.5599976,2.4800034-38.1499939-21.0300064-3.1100159Z"/>
    <path class="uuid-7b5a3a27-026d-44da-83fb-d517a0dcef9a" d="M154.7032048,384.633019l-2.4800034,38.1499939-2.0899963,31.9899902,38.9000015-9.9200134,11.7599945-6.7200012,8.2100067-45.4899902-54.3000031-8.0099792Z"/>
  </g>
  <g>
    <path class="uuid-b25a9178-a014-491c-9424-ee98d3ee656f" d="M637.423206,524.3629994l11.1599731,8.8399963,30.25-3.6199951c6.4205933-.7752991,10.9970703-6.6087646,10.2217407-13.0293579-.1673584-1.3858032-.5811157-2.7304993-1.2217407-3.9706421l-21.1099854-40.730011-32-8-24.0499878,30.2999878,3.4500122,7.769989c3.3999023,9.0207825,10.1941528,16.3533936,18.9299927,20.4299927l4.3699951,2.0100403Z"/>
    <path class="uuid-b25a9178-a014-491c-9424-ee98d3ee656f" d="M627.4131962,498.0030141c18.0999756,3.1300049,31.5800171-9.4700012,31.5800171-9.4700012l3.2700195,14.1900024c1.1895752,5.1390686,6.2471924,8.4030457,11.4199829,7.3699951l3.0800171-.6099854-1.8599854-27.4599915c-.2836914-4.1644287-2.5785522-7.9295044-6.1500244-10.0899963l-9.0599976-5.7799988c-12.7399902-8.2000122-21-8.9400024-32.7799683-11.1700134-2.4299927-.4700012-14.8900146,1.269989-17.3400269,1.769989l-11.25,32.5899963"/>
    <path class="uuid-988ee662-b86e-4855-bfcd-006df98fd42c" d="M611.5931889,495.2130055s4.6599731,19.4899902,19.789978,26.2799988"/>
    <path class="uuid-7b5a3a27-026d-44da-83fb-d517a0dcef9a" d="M154.8732029,386.0530019l-5.6800003,65.8899841,40.1800003-7.4899902-18.4100037,22.1700134c18.5800018,5.5700073,29.1999969-5.3900146,29.1999969-5.3900146l8.2400055,10.1300049c2.9882812,3.6472778,8.3273773,4.2748718,12.0800018,1.4200134l2.2299957-1.7099915-24.1999969-36.2999878"/>
    <path class="uuid-b25a9178-a014-491c-9424-ee98d3ee656f" d="M167.583202,486.4430165l42.6899948-14.1400146-.1799927-4.2099915c-.3026886-6.9910278-3.6179352-13.5084839-9.0899963-17.8699951l-26.5200043-21.1600037-25.2900009,22.8800049-.4300003,8.8800049c2.4234772,10.303009,8.7839813,19.2479248,17.7200012,24.9200134l1.0999985.6999817Z"/>
    <path class="uuid-b25a9178-a014-491c-9424-ee98d3ee656f" d="M194.5632054,469.0129933l7.3899994,36.5700073c.5148468,2.5707397,2.9724731,4.272522,5.5599976,3.8500061,2.455307-.3999023,4.2145233-2.5859985,4.0800018-5.0700073l-1.8500061-34.3299866-15.1799927-1.0200195Z"/>
  </g>
  <path class="uuid-2ae5bba1-4bf1-4368-95f4-996c63963d93" d="M196.3132054,478.5930104l5.6399994,27c.5148468,2.5707397,2.9724731,4.272522,5.5599976,3.8500061,2.455307-.3999023,4.2145233-2.5859985,4.0800018-5.0700073l-1.8099976-42.4599915"/>
  <path class="uuid-b25a9178-a014-491c-9424-ee98d3ee656f" d="M182.2232014,474.0030141l14.7000046,42.5700073c.8577423,2.4855042,3.5523376,3.8216858,6.0500031,3,2.3338623-.7764587,3.7087097-3.1856689,3.1900024-5.5899963l-9.2400055-42.8300171-14.7000046,2.8500061Z"/>
  <path class="uuid-2ae5bba1-4bf1-4368-95f4-996c63963d93" d="M186.2132069,485.5630117l10.7099991,31c.8577423,2.4855042,3.5523376,3.8216858,6.0500031,3,2.3338623-.7764587,3.7087097-3.1856689,3.1900024-5.5899963l-9.2400055-42.8200073"/>
  <path class="uuid-b25a9178-a014-491c-9424-ee98d3ee656f" d="M172.2932011,474.153008l4.1900024,12,2,5.7900085,8.5299988,24.7399902c.8533783,2.463501,3.5171661,3.7954102,6,3,2.3323975-.7723083,3.70784-3.1782532,3.1900024-5.5799866l-9.2200012-42.8599854-14.6900024,2.9099731Z"/>
  <path class="uuid-2ae5bba1-4bf1-4368-95f4-996c63963d93" d="M177.0532032,487.9829946l1.3799973,4,8.5299988,24.7399902c.8533783,2.463501,3.5171661,3.7954102,6,3,2.3323975-.7723083,3.70784-3.1782532,3.1900024-5.5799866l-8.4400024-39.2999878"/>
  <path class="uuid-2ae5bba1-4bf1-4368-95f4-996c63963d93" d="M167.583202,486.4430165l-1.1100006-.7000122c-8.1167984-5.1439514-14.1880341-12.9548645-17.1699982-22.0899963-.5550156-1.7735596-.7554932-3.6390076-.5899963-5.4899902l.75-8.769989"/>
  <path class="uuid-b25a9178-a014-491c-9424-ee98d3ee656f" d="M165.1132008,468.2230153l6.0500031,44.6300049c.3527908,2.6043396,2.7306213,4.4433899,5.340004,4.1300049,2.4431305-.2964478,4.2683945-2.3892517,4.2300034-4.8500061l-.6500015-43.8399963h-8.2399979l-6.730011-.0700073Z"/>
  <g>
    <path class="uuid-2ae5bba1-4bf1-4368-95f4-996c63963d93" d="M167.4832036,486.2230153l3.7200012,26.6300049c.3527908,2.6043396,2.7306137,4.4433899,5.3399963,4.1300049,2.4431305-.2964478,4.2683945-2.3892517,4.2300034-4.8500061l-.6200027-34.980011"/>
    <path class="uuid-e0936ac9-ff12-4962-8033-6bcedb226def" d="M713.0032231,515.7930226l-85.1199951-6.7900085c-4.1665649-.3343811-7.3733521-3.8200684-7.3599854-8-.0133667-4.1799316,3.1934204-7.6656189,7.3599854-8l85.1199951-6.7900085v29.5800171Z"/>
    <path class="uuid-e0936ac9-ff12-4962-8033-6bcedb226def" d="M688.173206,494.403008c2.3772583-8.1333923,9.8363037-13.7225952,18.3099976-13.7200012h19v38.0799866h-19c-7.0975952.0074463-13.607605-3.9417419-16.8800049-10.2399902"/>
    <path class="uuid-4bd45ff9-b018-4596-8b7f-163c22cf7c27" d="M725.2831913,480.6830068c-1.539978,0-3,1-4.210022,2.7000122,2.3900146,3.3299866,4,9.3999939,4,16.3399963s-1.5999756,13-4,16.3399963c1.2299805,1.7099915,2.6699829,2.7000122,4.210022,2.7000122,4.5200195,0,8.1900024-8.519989,8.1900024-19s-3.6699829-19.0799866-8.1900024-19.0799866v-.0000305Z"/>
    <ellipse class="uuid-2447a659-ad84-4f2a-953e-f6b7a18f1823" cx="721.0732304" cy="499.7230153" rx="3.9799805" ry="16.3399963"/>
    <path class="uuid-e0936ac9-ff12-4962-8033-6bcedb226def" d="M639.6031987,492.153008h-.4699707c-4.6213379.3654175-8.18396,4.2242432-8.1799927,8.8599854.0008545,4.6338501,3.5609131,8.4898987,8.1799927,8.8599854l2,.1600037"/>
    <g>
      <path class="uuid-988ee662-b86e-4855-bfcd-006df98fd42c" d="M658.2731816,485.153008l4,17.5599976c1.1895752,5.1390686,6.2471924,8.4030457,11.4199829,7.3699951l3.0800171-.6099854-1.8599854-27.4599915c-.2836914-4.1644287-2.5785522-7.9295044-6.1500244-10.0899963l-9.0700073-5.769989c-14.8400269-9.5499878-19.3400269-7.8200073-36.7000122-12.2900085"/>
      <path class="uuid-988ee662-b86e-4855-bfcd-006df98fd42c" d="M642.2332036,533.883019c-5.0255737-.3277893-9.2006226-3.9979248-10.1699829-8.9400024l-3-15.2099915c-.5886841-2.6260681,1.0068359-5.2469788,3.6099854-5.9299927,2.4682007-.6481323,5.0284424.6664734,5.9400024,3.0499878l14.7700195,25.8900146-11.1500244,1.1399841Z"/>
      <path class="uuid-988ee662-b86e-4855-bfcd-006df98fd42c" d="M654.3632084,532.7230153c-4.3400269.371582-8.3776245-2.2528992-9.7999878-6.3699951l-6.75-19.5c-1.0553589-2.7249756.2351074-5.7964478,2.9199829-6.9500122,2.5438232-1.0995789,5.5073242-.1030884,6.8699951,2.3099976l19.8800049,28.5400085-13.1199951,1.9700012Z"/>
    </g>
  </g>
  <path class="uuid-b25a9178-a014-491c-9424-ee98d3ee656f" d="M667.4832036,530.8330007c-4.5056152.6318665-8.9180908-1.6546021-11-5.7000122l-10.6699829-20.7000122c-1.3922119-2.5643005-.5089722-5.7704468,2-7.2600098,2.3900146-1.3999939,9,0,10.6500244,2.230011l18.8800049,20.8999939c2.1506958,2.3813171,1.9637451,6.0552673-.4176025,8.2059631-.8657227.7818909-1.9467773,1.2850647-3.102417,1.4440308l-6.3400269.8800354Z"/>
  <path class="uuid-2ae5bba1-4bf1-4368-95f4-996c63963d93" d="M678.9832036,529.4829946l-11.5,1.3500061c-4.5056152.6318665-8.9180908-1.6546021-11-5.7000122l-10.6699829-20.7000122c-1.3922119-2.5643005-.5089722-5.7704468,2-7.2600098,2.3901978-1.3974915,5.4491577-.7727966,7.0999756,1.4500122l13.2199707,18.9500122"/>
  <path class="uuid-b25a9178-a014-491c-9424-ee98d3ee656f" d="M678.7731816,529.2629933c-4.5056152.6318665-8.9180908-1.6546021-11-5.7000122l-10.6699829-20.7000122c-1.3922119-2.5643005-.5089722-5.7704468,2-7.2600098,2.3900146-1.3999939,5.8300171-.9200134,8.6300049,3.5599976l10.8099976,16.1199951,5.8800049,4-5.6500244,9.9800415Z"/>
  <g>
    <path class="uuid-2ae5bba1-4bf1-4368-95f4-996c63963d93" d="M678.7731816,529.2629933c-4.5056152.6318665-8.9180908-1.6546021-11-5.7000122l-10.6699829-20.7000122c-1.3922119-2.5643005-.5089722-5.7704468,2-7.2600098,2.3901978-1.3974915,5.4491577-.7727966,7.0999756,1.4500122l13.2199707,19"/>
    <path class="uuid-2ae5bba1-4bf1-4368-95f4-996c63963d93" d="M659.3931767,490.7629933l-8.5.7000122c-5.2706909.4365845-10.4595337-1.5119934-14.1400146-5.3099976l-2.5599976-2.6499939"/>
    <g>
      <path class="uuid-4bd45ff9-b018-4596-8b7f-163c22cf7c27" d="M927.8732182,708.2330251l29.8800049,26.0599976"/>
      <path class="uuid-4bd45ff9-b018-4596-8b7f-163c22cf7c27" d="M897.9932133,682.1730275l13.6799927,11.9299927"/>
      <path class="uuid-4bd45ff9-b018-4596-8b7f-163c22cf7c27" d="M878.6031987,665.2330251l7.6400146,6.6699829"/>
      <path class="uuid-4bd45ff9-b018-4596-8b7f-163c22cf7c27" d="M727.0931889,533.0830007l141.789978,123.6799927"/>
      <path class="uuid-4bd45ff9-b018-4596-8b7f-163c22cf7c27" d="M915.923206,315.4430165l107.7299805-84.5400085"/>
      <path class="uuid-4bd45ff9-b018-4596-8b7f-163c22cf7c27" d="M888.5532109,336.922997l12.3800049-9.7200012"/>
      <path class="uuid-4bd45ff9-b018-4596-8b7f-163c22cf7c27" d="M849.8732182,367.2730031l17.3900146-13.6400146"/>
      <path class="uuid-4bd45ff9-b018-4596-8b7f-163c22cf7c27" d="M720.7831913,468.5730214l79.7000122-62.5400085"/>
    </g>
  </g>
  <path class="uuid-c86ed6e0-67a4-4765-8c82-c38a594c9fd7" d="M768.8032109,304.5530019c-39.4927368-28.8510132-93.0831909-28.9479523-132.6799927-.2399902l-25.4199829,18.4299927,24.8900146,18.1900024c39.4884644,28.860321,93.0830688,28.9613037,132.6799927.25l25.4199829-18.4400024-24.8900146-18.1900024Z"/>
  <circle class="uuid-bc9612b0-47c6-48e8-8e02-d6902cf48dc8" cx="702.5532109" cy="308.0230031" r="34.3499908"/>
  <circle class="uuid-bc9612b0-47c6-48e8-8e02-d6902cf48dc8" cx="702.5532109" cy="308.0230031" r="34.3499908"/>
  <path class="uuid-c86ed6e0-67a4-4765-8c82-c38a594c9fd7" d="M918.5831791,181.153008c-30.4923706-22.2976227-71.8894653-22.3703461-102.460022-.1799927l-19.6400146,14.1799927,19.2299805,14.0500031c30.4902954,22.2927704,71.8815918,22.3654785,102.4500122.1799927l19.6400146-14.2299957-19.2199707-14Z"/>
  <circle class="uuid-bc9612b0-47c6-48e8-8e02-d6902cf48dc8" cx="867.423206" cy="183.8130117" r="26.530014"/>
  <circle class="uuid-bc9612b0-47c6-48e8-8e02-d6902cf48dc8" cx="867.423206" cy="183.8130117" r="26.530014"/>
  <path class="uuid-c86ed6e0-67a4-4765-8c82-c38a594c9fd7" d="M629.9731938,140.9430089c-23.0230103-16.832489-54.2762146-16.8890457-77.3599854-.1399994l-14.8200073,10.7399979,14.5100098,10.6100006c23.0229797,16.832489,54.2762451,16.8890381,77.3599854.1399994l14.8200073-10.75-14.5100098-10.5999985Z"/>
  <circle class="uuid-bc9612b0-47c6-48e8-8e02-d6902cf48dc8" cx="591.3431965" cy="142.9630055" r="20.0299982" transform="translate(355.5035208 703.7703204) rotate(-80.7825249)"/>
  <circle class="uuid-bc9612b0-47c6-48e8-8e02-d6902cf48dc8" cx="591.3431965" cy="142.9630055" r="20.0299982" transform="translate(355.5035208 703.7703204) rotate(-80.7825249)"/>
  <path class="uuid-c86ed6e0-67a4-4765-8c82-c38a594c9fd7" d="M575.2831913,769.153008c-23.0250549-16.8261719-54.2741699-16.8827515-77.3599854-.1400146l-14.8200073,10.75,14.5100098,10.5999756c23.0271606,16.8310547,54.282074,16.8875732,77.3699951.1400146l14.8200073-10.7399902-14.5200195-10.6099854Z"/>
  <circle class="uuid-bc9612b0-47c6-48e8-8e02-d6902cf48dc8" cx="536.653217" cy="771.153008" r="20.030014"/>
  <circle class="uuid-bc9612b0-47c6-48e8-8e02-d6902cf48dc8" cx="536.653217" cy="771.153008" r="20.030014"/>
  <path class="uuid-c86ed6e0-67a4-4765-8c82-c38a594c9fd7" d="M685.8132206,598.9930348c-30.4923706-22.2976074-71.8894653-22.3703613-102.460022-.1799927l-19.6199951,14.2299805,19.2199707,14.0499878c30.4902954,22.2927856,71.8815918,22.3654785,102.4500122.1799927l19.6300049-14.2299805-19.2199707-14.0499878Z"/>
  <circle class="uuid-bc9612b0-47c6-48e8-8e02-d6902cf48dc8" cx="634.6531865" cy="601.6730275" r="26.5300293"/>
  <circle class="uuid-bc9612b0-47c6-48e8-8e02-d6902cf48dc8" cx="634.6531865" cy="601.6730275" r="26.5300293"/>
  <path class="uuid-c86ed6e0-67a4-4765-8c82-c38a594c9fd7" d="M838.5732304,713.7830129c-37.3048706-27.2632446-87.9353638-27.3561401-125.3400269-.2299805l-24,17.4099731,23.5100098,17.1900024c37.3027344,27.2583618,87.9274902,27.3512573,125.3300171.2299805l24-17.4099731-23.5-17.1900024Z"/>
  <g>
    <circle class="uuid-bc9612b0-47c6-48e8-8e02-d6902cf48dc8" cx="775.9832036" cy="717.0530324" r="32.4500122"/>
    <circle class="uuid-bc9612b0-47c6-48e8-8e02-d6902cf48dc8" cx="775.9832036" cy="717.0530324" r="32.4500122"/>
  </g>
</svg>