<?xml version="1.0" encoding="UTF-8"?>
<svg id="uuid-3a9a7d83-2d26-4883-9f10-79d85e68d2a6" data-name="Ebene 1" xmlns="http://www.w3.org/2000/svg" viewBox="0 0 1119.9086314 1028.6269537">
  <defs>
    <style>
      .uuid-940118e4-7652-4be7-b7fe-ef5a285a8094, .uuid-92bf6352-7b7a-4dc9-bd0c-0cb5c85f1535, .uuid-6c5c0137-1be8-4fec-8706-108d29797bc0, .uuid-d8edde95-9a3a-40ee-ba8f-425b09ec770a, .uuid-d7c97273-554d-421b-8f72-5c7db1a9e895, .uuid-37bc435b-23e6-4236-8ddd-8c9d5d56d2f7, .uuid-6c1b9c36-ce7b-4c43-b906-c8aea4a2bb7a, .uuid-6e0d9247-af69-4fd5-8ec9-746a0ba58a9a, .uuid-f393d36e-4baf-4784-ac9c-48dbf69fa3de, .uuid-00c0046f-ce1c-4dfc-b3fb-736b3ac5916b, .uuid-feee49af-c97e-4577-b216-d3af7fbf05b6, .uuid-273f1333-b69b-4f76-832b-083406912d30 {
        stroke: #1d2b47;
      }

      .uuid-940118e4-7652-4be7-b7fe-ef5a285a8094, .uuid-92bf6352-7b7a-4dc9-bd0c-0cb5c85f1535, .uuid-6c5c0137-1be8-4fec-8706-108d29797bc0, .uuid-d8edde95-9a3a-40ee-ba8f-425b09ec770a, .uuid-d7c97273-554d-421b-8f72-5c7db1a9e895, .uuid-37bc435b-23e6-4236-8ddd-8c9d5d56d2f7, .uuid-6e0d9247-af69-4fd5-8ec9-746a0ba58a9a, .uuid-f393d36e-4baf-4784-ac9c-48dbf69fa3de, .uuid-00c0046f-ce1c-4dfc-b3fb-736b3ac5916b, .uuid-feee49af-c97e-4577-b216-d3af7fbf05b6, .uuid-273f1333-b69b-4f76-832b-083406912d30 {
        stroke-miterlimit: 10;
        stroke-width: 1.47px;
      }

      .uuid-940118e4-7652-4be7-b7fe-ef5a285a8094, .uuid-2fd40e61-be2f-483b-baf9-49fca2498f32 {
        fill: #dad9f3;
      }

      .uuid-92bf6352-7b7a-4dc9-bd0c-0cb5c85f1535, .uuid-6c5c0137-1be8-4fec-8706-108d29797bc0, .uuid-6e0d9247-af69-4fd5-8ec9-746a0ba58a9a, .uuid-f393d36e-4baf-4784-ac9c-48dbf69fa3de, .uuid-feee49af-c97e-4577-b216-d3af7fbf05b6 {
        stroke-linecap: round;
      }

      .uuid-92bf6352-7b7a-4dc9-bd0c-0cb5c85f1535, .uuid-d7c97273-554d-421b-8f72-5c7db1a9e895, .uuid-e5260aca-810f-4cef-abcb-26fd792f0339 {
        fill: #fff;
      }

      .uuid-6c5c0137-1be8-4fec-8706-108d29797bc0, .uuid-d1289189-cdb1-4e5b-b762-366b12219827, .uuid-273f1333-b69b-4f76-832b-083406912d30 {
        fill: #0d00ad;
      }

      .uuid-d8edde95-9a3a-40ee-ba8f-425b09ec770a, .uuid-6e0d9247-af69-4fd5-8ec9-746a0ba58a9a, .uuid-4b8944e4-1e59-4161-9f04-f827ea448e40 {
        fill: #f2f2fb;
      }

      .uuid-37bc435b-23e6-4236-8ddd-8c9d5d56d2f7, .uuid-6c1b9c36-ce7b-4c43-b906-c8aea4a2bb7a, .uuid-f393d36e-4baf-4784-ac9c-48dbf69fa3de {
        fill: #8480ce;
      }

      .uuid-6c1b9c36-ce7b-4c43-b906-c8aea4a2bb7a {
        stroke-miterlimit: 10;
        stroke-width: 1.47px;
      }

      .uuid-00c0046f-ce1c-4dfc-b3fb-736b3ac5916b, .uuid-feee49af-c97e-4577-b216-d3af7fbf05b6 {
        fill: none;
      }
    </style>
  </defs>
  <rect class="uuid-d7c97273-554d-421b-8f72-5c7db1a9e895" x="25" y="83.6500015" width="438.730011" height="598.659996" rx="39.4000015" ry="39.4000015"/>
  <circle class="uuid-2fd40e61-be2f-483b-baf9-49fca2498f32" cx="253" cy="227.9600067" r="55.5400009"/>
  <circle class="uuid-e5260aca-810f-4cef-abcb-26fd792f0339" cx="250.8600044" cy="211.6799927" r="16.5599972" transform="translate(1.7300278 425.3933893) rotate(-80.7825276)"/>
  <path class="uuid-e5260aca-810f-4cef-abcb-26fd792f0339" d="M253.4799957,233.4900055c12.8240509.0000153,23.219986,10.3959503,23.219986,23.219986v30.8899841h-46.4400024v-30.8900146c0-12.8240509,10.3959503-23.2200012,23.2200012-23.2200012h0l.0000153.0000458Z"/>
  <circle class="uuid-2fd40e61-be2f-483b-baf9-49fca2498f32" cx="391.7200012" cy="335.1300049" r="54.1199951"/>
  <circle class="uuid-2fd40e61-be2f-483b-baf9-49fca2498f32" cx="245.7200012" cy="409.9599915" r="54.1199951"/>
  <circle class="uuid-e5260aca-810f-4cef-abcb-26fd792f0339" cx="389.6199951" cy="319.269989" r="16.1399994"/>
  <path class="uuid-e5260aca-810f-4cef-abcb-26fd792f0339" d="M392.1799927,340.519989c12.4981995,0,22.6300049,10.1318054,22.6300049,22.6300049h0v30.1100159h-45.2600098v-30.1099854c0-12.4981995,10.1318054-22.6300049,22.6300049-22.6300049h0v-.0000305Z"/>
  <circle class="uuid-2fd40e61-be2f-483b-baf9-49fca2498f32" cx="100.449996" cy="338.7999878" r="54.1199956"/>
  <circle class="uuid-e5260aca-810f-4cef-abcb-26fd792f0339" cx="98.3600006" cy="322.9299927" r="16.140007"/>
  <path class="uuid-e5260aca-810f-4cef-abcb-26fd792f0339" d="M100.9199982,344.1900024c12.4982071,0,22.6299973,10.1318054,22.6299973,22.6300049h0v30.1099854h-45.2600021v-30.1199951c.0055237-12.4942932,10.135704-22.6199951,22.6300049-22.6199951Z"/>
  <circle class="uuid-2fd40e61-be2f-483b-baf9-49fca2498f32" cx="155.4799957" cy="525.8800049" r="54.1199951"/>
  <circle class="uuid-e5260aca-810f-4cef-abcb-26fd792f0339" cx="153.3899994" cy="510.019989" r="16.1399918"/>
  <path class="uuid-e5260aca-810f-4cef-abcb-26fd792f0339" d="M155.9400024,531.2700195c12.4981995,0,22.6300049,10.1317749,22.6300049,22.6300049h0v30.0999756h-45.2599945v-30.0999756c0-12.49823,10.1317902-22.6300049,22.6299896-22.6300049h.0000153-.0000153Z"/>
  <path class="uuid-940118e4-7652-4be7-b7fe-ef5a285a8094" d="M25,157.6300049h438.730011v-50.7400055c-.0055237-12.8367157-10.413269-23.2399979-23.25-23.2399979H48.2400208c-12.8328094.0055161-23.2344799,10.4071884-23.2399998,23.2399979l-.000021,50.7400055Z"/>
  <g>
    <circle class="uuid-273f1333-b69b-4f76-832b-083406912d30" cx="65.8099976" cy="114.9199982" r="8.5299988"/>
    <circle class="uuid-273f1333-b69b-4f76-832b-083406912d30" cx="95.8000031" cy="114.9199982" r="8.5299988"/>
    <circle class="uuid-273f1333-b69b-4f76-832b-083406912d30" cx="125.7799988" cy="114.9199982" r="8.5299988"/>
  </g>
  <path class="uuid-37bc435b-23e6-4236-8ddd-8c9d5d56d2f7" d="M192.6499939,416.769989l-3.6499939-81.1000061c-1.7299957-38.0800171,26.3099976-70.4100037,62.5099945-72.0499878s67.0699921,28,68.8000031,66.0800171l3.4899902,76.7099915-15.8699951.7200012-3.480011-76.7099915c-1.3399963-29.3399963-24.7600098-52.1900024-52.2200012-50.9400024s-48.6999969,26.1300049-47.3699951,55.4700012l3.6900024,81.1000061-15.8999939.7199707Z"/>
  <path class="uuid-d1289189-cdb1-4e5b-b762-366b12219827" d="M200.0254073,398.955628l63.8042453-2.897334c24.2755214-1.102345,44.8483315,17.6832121,45.9506766,41.9587334l7.7765771,171.2535172h0l-134.1417667,6.0913423c-9.7157113.4411879-17.9495115-7.0773194-18.3907139-16.7930148l-6.9768274-153.6416612c-1.102345-24.2755214,17.6832121-44.8483315,41.9587334-45.9506766l.0190755-.0209064Z"/>
  <path class="uuid-6c1b9c36-ce7b-4c43-b906-c8aea4a2bb7a" d="M237.569639,397.2543907l63.8042606-2.8973347c24.2755214-1.102345,44.8483315,17.6832121,45.9506766,41.9587334h0l6.4356472,141.7239496c.7403243,16.303207-11.8758853,30.1197196-28.1790923,30.8600439l-92.6744886,4.2083241c-16.303207.7403243-30.1197348-11.8758846-30.8600591-28.1790916l-6.4351931-141.7139502c-1.102345-24.2755214,17.6832273-44.8483322,41.9587334-45.9506766h0l-.0004846-.0099981Z"/>
  <path class="uuid-273f1333-b69b-4f76-832b-083406912d30" d="M298.2799988,475.2799988c-.5335693-11.828949-10.5553589-20.9856873-22.3843384-20.4521179-11.828949.5335693-20.985672,10.5553589-20.4521027,22.3843384.3579559,7.935791,5.0744171,15.0231934,12.2564545,18.4177856l-5.1000061,48.8300171,35-1.5999756-9.5499878-48.3500061c6.65625-4.0699158,10.5747375-11.4356995,10.230011-19.230011l-.0000305-.0000305Z"/>
  <path class="uuid-d7c97273-554d-421b-8f72-5c7db1a9e895" d="M606.5,395.269989l54.5599976-67.7200012c7.7719727-9.6395874,16.8375244-18.1600342,26.9400024-25.3200073l13.2700195-9.3999939,25.2399902,65.4700012,6.0700073,36.230011c-25.4299927,28.4700012-85.7399902,87.8600159-193.1900024,98.4700012l-5.8200073-18.5299988,7.0700073-64.5500183,65.8599854-14.6499939Z"/>
  <path class="uuid-273f1333-b69b-4f76-832b-083406912d30" d="M553.3900146,471.75c2.0100098,9.7358093-4.2529907,19.2576599-13.9887695,21.2676697-.0037231.0007935-.0075073.0015564-.0112305.0023193-9.7346802,2.0153198-19.2600098-4.2424622-21.2753296-13.9771729-.0015869-.0075989-.0031128-.0151978-.0046997-.0228271l-3.1099854-15.3299866,35.6900024-5.2999878,2.7000122,13.3599854Z"/>
  <path class="uuid-d8edde95-9a3a-40ee-ba8f-425b09ec770a" d="M505.480011,417.7099915l35.1600037-7.8099976,10,48.4899902-35.6900024,5.2999878-35.9899902,5.3399963-10.730011-43.0400085,37.25-8.2799683Z"/>
  <path class="uuid-940118e4-7652-4be7-b7fe-ef5a285a8094" d="M786.539978,647l24.8800049-230.2399902s-48.539978-7.25-102.1099854,37.6300049c-24,94.4400024-20,266.6500244-15.8599854,356l112.6799927,16.0599976-19.5900269-179.4500122Z"/>
  <path class="uuid-6c5c0137-1be8-4fec-8706-108d29797bc0" d="M789.9299927,810.3699951h-22.6300049l.710022,32.2800293h21.9199829c8.9138794.0055542,16.1444702-7.2161255,16.1500244-16.1299438v-.0100708c-.0054932-8.9155273-7.2344971-16.1400146-16.1500244-16.1400146Z"/>
  <path class="uuid-940118e4-7652-4be7-b7fe-ef5a285a8094" d="M825.710022,416.230011s-41-35.4700012-76.2200317,24.8800049c9.4400024,97.769989,75.0800171,265.9999695,110.4799805,351.2499695l113.9400024-26.2700195-75.1599731-140.2600098-18.8599854-96.9000244c-5.3723145-27.5905457-15.9984131-53.8911133-31.2999878-77.4700012l-22.8800049-35.2299194Z"/>
  <path class="uuid-6c5c0137-1be8-4fec-8706-108d29797bc0" d="M973.9400024,766.2999878c-3.1881104-8.310791-12.5028687-12.4715576-20.8200073-9.2999878l-24,9.1300049,11.5900269,30.1400146,23.9000244-9.0900269c8.3354492-3.1741943,12.5194702-12.5046387,9.3452759-20.8401489-.0050659-.0133057-.0101318-.0265503-.0152588-.039856h-.000061Z"/>
  <path class="uuid-d8edde95-9a3a-40ee-ba8f-425b09ec770a" d="M965.1699829,859.9000244l-24.4799805-63.6799927-11.5900269-30.1400146-69.0999756,26.2800293c4.8200073,11.5900269,9.0800171,21.6400146,12.5599976,29.7700195,6.2199707,14.539978,10,22.9299927,10,22.9299927l-29.25,52.8300171,111.8599854-37.9900513Z"/>
  <path class="uuid-92bf6352-7b7a-4dc9-bd0c-0cb5c85f1535" d="M684.1099854,341l1.2000122,5.4599915c-15.7548828,3.20224-25.9307861,18.5700378-22.7285156,34.3248901,3.2022095,15.7548828,18.5700073,25.9307861,34.3248901,22.7285461.30896-.0628052.6168823-.1306152.923645-.2034302l11.1699829,50.5800171,117-37.4199829-51.4000244-106.730011c-7.7515869-16.0807495-23.7608032-26.5559998-41.5999756-27.2200012l-1.7299805-4.2600098c-1.2688599-3.1387329-4.8419189-4.6546021-7.9806519-3.3857422-.0975342.0393982-.1939697.0813293-.2893677.1257324l-29.539978,14c-2.7683105,1.3081665-4.1438599,4.4608765-3.2199707,7.3800049l1.9299927,6"/>
  <path class="uuid-273f1333-b69b-4f76-832b-083406912d30" d="M672.0599976,215.2100067l-25.4400024,9.3099976c-6.4668579,2.3362274-9.8154297,9.47258-7.479187,15.9394684.4802246,1.3293457,1.1833496,2.5672302,2.0791626,3.6605377,2.4152222,2.8845673,5.2264404,5.4129486,8.3499756,7.5099945,2.8895264,1.9421997,5.0993042,4.7394104,6.3200073,8,2.3109131,6.3291931,9.3151245,9.5866394,15.6442871,7.2757263.005249-.0019226.010437-.0038147.015686-.0057373l7.9199829-2.8900146-7.4099121-48.7999725Z"/>
  <path class="uuid-273f1333-b69b-4f76-832b-083406912d30" d="M760.1699829,226.6000061c-.4099731.1600037-.8200073.3300018-1.2199707.5200043l-2.8499756-7.7899933c-4.3674316-11.9251251-17.5734863-18.0536499-29.5-13.6900024l-18.1699829,6.6499939,9.2199707,25.1799927c5.7591553,15.7355194,23.184021,23.8229675,38.9194946,18.0638275.00354-.0012665.007019-.0025482.010498-.00383l11.2700195-4.1199951v-.0599976c.4299927-.1100006.8499756-.2400055,1.2700195-.3899994,6.8919678-2.0122375,10.8477173-9.2305145,8.8355103-16.122467-2.0122681-6.8919525-9.2305298-10.8477325-16.1224976-8.835495-.5570679.1626434-1.1026001.3624115-1.6329956.5979614h-.0300903Z"/>
  <circle class="uuid-37bc435b-23e6-4236-8ddd-8c9d5d56d2f7" cx="710.4400024" cy="217.75" r="10.0599976"/>
  <path class="uuid-4b8944e4-1e59-4161-9f04-f827ea448e40" d="M706.3800049,245.1699982l20.5300293,43.7700043-25,20.9899902-20.2000122-55.1699982"/>
  <path class="uuid-feee49af-c97e-4577-b216-d3af7fbf05b6" d="M701.9099731,309.9299927l-20.2000122-55.1699982"/>
  <path class="uuid-d1289189-cdb1-4e5b-b762-366b12219827" d="M688.5499878,273.4400024s7.710022-2,11.9000244-7.5c1.6099854,9-6.2700195,22.8800049-6.2700195,22.8800049l-5.6300049-15.3800049Z"/>
  <circle class="uuid-4b8944e4-1e59-4161-9f04-f827ea448e40" cx="686.8400269" cy="252.6000061" r="20.9099884"/>
  <path class="uuid-feee49af-c97e-4577-b216-d3af7fbf05b6" d="M701.1500244,267.8500061c-8.3920898,7.9331665-21.6263428,7.5611267-29.5595093-.8309631s-7.5611572-21.626358.8309326-29.5595245c2.0791016-1.9653778,4.5393677-3.4831848,7.2285767-4.4595184"/>
  <path class="uuid-273f1333-b69b-4f76-832b-083406912d30" d="M715.4099731,238l-1.7199707,22.5299988s-10.4299927,3.8200073-15.8400269-9.4199982c5.5499878-4.8500061-.8900146-13.1999969-4.8200073-10.0699921s.3900146,13.3800049.3900146,13.3800049c0,0-1.8200073,0-4.8599854-6.3999939-1.5758667-3.2208099-5.2717896-4.8029633-8.6900024-3.7200012-6.8599854,2.0899963-16.460022-.3699951-23.8499756-6.7200012-4.0657959-3.4892883-7.1651611-7.9661865-9-13,13-5.0700073,27.8800049-10.4900055,38.8200073-14.4100037,11.5707397-4.2351532,24.3839722,1.7115173,28.6191406,13.2822571,1.0692139,2.9212189,1.5157471,6.0337524,1.3108521,9.1377411l-.3600464,5.4099884Z"/>
  <g>
    <path class="uuid-feee49af-c97e-4577-b216-d3af7fbf05b6" d="M713.6900024,260.5299988l13.2199707,28.4100037"/>
    <path class="uuid-f393d36e-4baf-4784-ac9c-48dbf69fa3de" d="M759.4299927,226.8699951l-13.4199829,4.9199982"/>
  </g>
  <path class="uuid-e5260aca-810f-4cef-abcb-26fd792f0339" d="M693.4799805,295.1499939s20.4799805-6,32.460022-15.480011c2.3798828,6.3701782,4.3833618,12.8747253,6,19.480011l-33.4700317,16-4.9899902-20Z"/>
  <g>
    <g>
      <path class="uuid-feee49af-c97e-4577-b216-d3af7fbf05b6" d="M693.4799805,295.1499939s20.4799805-6,32.460022-15.480011"/>
      <path class="uuid-feee49af-c97e-4577-b216-d3af7fbf05b6" d="M726.2000122,282.3200073l2.4400024,5.0899963"/>
      <path class="uuid-feee49af-c97e-4577-b216-d3af7fbf05b6" d="M721.4400024,286.5499878l2.4400024,5.1000061"/>
      <path class="uuid-feee49af-c97e-4577-b216-d3af7fbf05b6" d="M716.1300049,290.2600098l2.4699707,5.0799866"/>
      <path class="uuid-feee49af-c97e-4577-b216-d3af7fbf05b6" d="M695.7199707,297.0499878l2.0100098,5.269989"/>
      <path class="uuid-feee49af-c97e-4577-b216-d3af7fbf05b6" d="M702.0700073,295.4599915l2.0100098,5.2799988"/>
      <path class="uuid-feee49af-c97e-4577-b216-d3af7fbf05b6" d="M708.9500122,294.3999939l2.0200195,5.2799988"/>
    </g>
    <path class="uuid-00c0046f-ce1c-4dfc-b3fb-736b3ac5916b" d="M739.4400024,444.1400146s4.2299805,61,16.9299927,95.4100342c13.7700195,20.1199951,22.0800171,30.5200195,22.0800171,30.5200195"/>
    <g>
      <path class="uuid-feee49af-c97e-4577-b216-d3af7fbf05b6" d="M788.6599731,457.5100098s12.7000122,18,38.6400146,6.8800049"/>
      <path class="uuid-feee49af-c97e-4577-b216-d3af7fbf05b6" d="M808,467.8599854s4,79.6300049,42.0800171,167,57.6599731,139.3800049,57.6599731,139.3800049"/>
    </g>
  </g>
  <path class="uuid-d8edde95-9a3a-40ee-ba8f-425b09ec770a" d="M723.5599976,854.4799805h44.710022l-.2700195-11.8300171-.710022-32.2799683h-73.8400269c.210022,4.710022.4299927,9.1900024.6500244,13.4099731l21.5200195,19.0599976,7.9400024,11.6400146Z"/>
  <path class="uuid-273f1333-b69b-4f76-832b-083406912d30" d="M769.1699829,895.3099976l-.9000244-40.8300171h-31.9400024c-7.0471802.0055542-12.7644653-5.7028198-12.7700195-12.75v-10.3599854c0-4.1918335-3.3981323-7.5900269-7.5899658-7.5900269h-21.8700562c.3499756,7,.7000122,13.3599854,1,18.8699951v.4699707c.8145142,13.9152832-7.3487549,26.7961426-20.2800293,32v22.7999878l94.3500977-2.6099243Z"/>
  <path class="uuid-d7c97273-554d-421b-8f72-5c7db1a9e895" d="M654.75,880.4199829c-14,4.7999878-24.3499756,14.289978-25.9099731,28.9000244v4.4400024l140.6799927-4.3099976-.3200073-14.1400146-87.5999756,2.3900146c-3.6216431.0994263-6.6381226-2.7559204-6.7375488-6.3775635-.0016479-.060791-.0024414-.121582-.0024414-.1824341v-16c-.5300293.210022-1.0599976.4199829-1.6099854.6099854l-18.500061,4.6699829Z"/>
  <g>
    <path class="uuid-00c0046f-ce1c-4dfc-b3fb-736b3ac5916b" d="M723.5599976,841.7800293s4.7600098,37.5800171-48.7000122,43.4400024"/>
    <g>
      <path class="uuid-feee49af-c97e-4577-b216-d3af7fbf05b6" d="M683.4500122,863s7.0599976-3.9299927,11.6599731,4.3400269"/>
      <path class="uuid-feee49af-c97e-4577-b216-d3af7fbf05b6" d="M687.2999878,856.6599731s7.0599976-3.9299927,11.6599731,4.3400269"/>
      <path class="uuid-feee49af-c97e-4577-b216-d3af7fbf05b6" d="M691.1500244,850.3200073s7.0599976-3.9400024,11.6599731,4.3300171"/>
      <path class="uuid-feee49af-c97e-4577-b216-d3af7fbf05b6" d="M683.210022,852.1900024s-11.8099976-20.3099976-16.6599731-12.710022,8,15.4899902,8.3699951,10.6199951-11.0900269-7.0499878-14.5200195-.7199707,10.3300171,9.2999878,20.75,7.3599854"/>
    </g>
  </g>
  <circle class="uuid-d7c97273-554d-421b-8f72-5c7db1a9e895" cx="743.1400146" cy="875.1300049" r="7.9400024"/>
  <path class="uuid-273f1333-b69b-4f76-832b-083406912d30" d="M962.0599976,847.4299927l-15.9000244-37.3699951-29.4500122,11.8099976c-6.4958496,2.6016235-13.8707886-.5552368-16.4724121-7.0510864-.0025024-.0062866-.0050659-.0126343-.0075684-.0189209l-3.8200073-9.5599976c-1.541687-3.8623657-5.9225464-5.7437134-9.7849121-4.2020264-.001709.0006714-.0033569.0013428-.0050659.0020142l-20.1699829,8.0800171c2.9199829,6.3599854,5.5700073,12.0800171,7.9000244,17l.2000122.4199829c5.8504028,12.5414429,3.0725708,27.4154663-6.9099731,37l8.4099731,21,86.0099487-37.1099854Z"/>
  <path class="uuid-d7c97273-554d-421b-8f72-5c7db1a9e895" d="M851.0599976,876c-11.1500244,9.6099854-17.1699829,22.2000122-13.2199707,36.2700195l1.6099854,4.1099854,128.1099854-56-5.5-13-79.8599854,34.6199951c-3.3007202,1.4255371-7.1320801-.0946655-8.5575562-3.3953247-.0250244-.0578613-.0491333-.1160889-.0724487-.1746826l-5.9299927-14.8200073c-.4099731.3900146-.8200073.7700195-1.2600098,1.1500244l-15.3200073,11.2399902Z"/>
  <g>
    <path class="uuid-00c0046f-ce1c-4dfc-b3fb-736b3ac5916b" d="M900.25,814.8599854s18.2600098,32.9400024-28.8699951,58.1400146"/>
    <g>
      <path class="uuid-feee49af-c97e-4577-b216-d3af7fbf05b6" d="M871.0999756,849.2800293s5.0599976-6.25,12.3499756-.3099976"/>
      <path class="uuid-feee49af-c97e-4577-b216-d3af7fbf05b6" d="M872.3099976,842s5.0599976-6.25,12.3499756-.3099976"/>
      <path class="uuid-feee49af-c97e-4577-b216-d3af7fbf05b6" d="M873.5200195,834.7199707s5.0499878-6.25,12.3499756-.3099976"/>
      <path class="uuid-feee49af-c97e-4577-b216-d3af7fbf05b6" d="M866.8900146,839.3800049s-18.3800049-14.3900146-20-5.5800171,13,11.3599854,11.6400146,6.7199707-12.8400269-2.4199829-13.6500244,4.7000122,12.9500122,4.7600098,21.8400269-.8800049"/>
    </g>
  </g>
  <ellipse class="uuid-d7c97273-554d-421b-8f72-5c7db1a9e895" cx="930.6099854" cy="838.4099731" rx="7.8800049" ry="7.9000244"/>
  <path class="uuid-00c0046f-ce1c-4dfc-b3fb-736b3ac5916b" d="M749.4899902,515.210022s-18.4899902,106.3800049-7.9400024,295.1599731"/>
  <path class="uuid-92bf6352-7b7a-4dc9-bd0c-0cb5c85f1535" d="M732.6599731,282.6499939l98.8900146-35.6499939c47.6500244-21.8899994,109-.1300049,112.75,37.9199829l3.1799927,23.8200073,6.8800049,63.519989-91.3599854-4.8500061-10.2399902-54.9199829-93.6799927,36"/>
  <path class="uuid-273f1333-b69b-4f76-832b-083406912d30" d="M934.1699829,356.8999939c9.8335571-1.4585876,18.9876099,5.330658,20.446228,15.1641846.0012207.008606.0025024.0172119.0037842.0258179,1.4585571,9.8335266-5.3306274,18.9876099-15.1641846,20.4461975-.008606.0012817-.0172119.0025635-.0258179.0038147l-22.789978,3.3599854-2.3499756-36.0700073,19.8799438-2.9299927Z"/>
  <path class="uuid-d8edde95-9a3a-40ee-ba8f-425b09ec770a" d="M914.289978,359.8299866l2.3499756,36.0700073,1.9799805,30.2399902-36.7799683-9.3800049-11.1099854-6.3500061-7.7600098-43,51.3200073-7.5799866Z"/>
  <path class="uuid-4b8944e4-1e59-4161-9f04-f827ea448e40" d="M458,491.9200134l-10.5499878,8.3599854-28.5899963-3.4299927c-6.0710449-.7216187-10.4076538-6.2281494-9.6860352-12.2992249.1573181-1.3234863.5523376-2.607666,1.1660461-3.7907715l20-38.5,30.25-7.6000061,22.75,28.6799927-3.3399963,7.3399963c-3.2002869,8.5262146-9.6109924,15.4609985-17.8600159,19.3200073l-4.1400146,1.9200134Z"/>
  <path class="uuid-4b8944e4-1e59-4161-9f04-f827ea448e40" d="M467.4599915,467c-17.1100159,3-29.8500061-8.9500122-29.8500061-8.9500122l-3.0899963,13.4100037c-1.1113281,4.8723145-5.8985901,7.9751892-10.7999878,7l-2.9100037-.5799866,1.7600098-26c.2690735-3.9385376,2.4410095-7.4987183,5.8200073-9.5400085l8.5599976-5.5100098c12-7.75,19.8699951-8.4500122,31-10.5700073,2.2999878-.4299927,14.0700073,1.2099915,16.3900146,1.6900024l10.6600037,30.8200073"/>
  <path class="uuid-6e0d9247-af69-4fd5-8ec9-746a0ba58a9a" d="M482.4100037,464.3599854s-4.3999939,18.4299927-18.7000122,24.8500061"/>
  <path class="uuid-feee49af-c97e-4577-b216-d3af7fbf05b6" d="M437.2399902,460.1600037l8,.6600037c4.9777222.4205933,9.8815002-1.4146423,13.3599854-5l2.4299927-2.5"/>
  <path class="uuid-37bc435b-23e6-4236-8ddd-8c9d5d56d2f7" d="M790.1400146,489.7900085l-375-30.6000061c-16.0241394-1.3490906-30.1085205,10.546051-31.4599915,26.5700073l-1.6799927,19.3500061-4.4200134,52.3899841,29.8299866,2.5,3.5899963-42.2999878c.4660034-5.5641479,5.3543701-9.6969604,10.9184875-9.2309875.0038147.0003357.0076599.0006409.0115051.0009766,5.5636597.4714661,9.6916809,5.3639221,9.2202148,10.9275818-.000061.0007935-.0001526.0016479-.0002136.0024414l-1.5299988,18.1300049,29.8299866,2.5200195,1.4299927-16.9299927c.5187378-6.2247925,5.9854126-10.8504028,12.2101746-10.331665.0066223.0005493.0132141.0010986.0198364.0016479,6.2145386.5353394,10.8275024,5.9931641,10.3200073,12.210022l-1.4299927,17,29.8200073,2.5200195,2.3800049-28.2199707,271.8599854,21.9000244,4.0800171-48.4101257Z"/>
  <path class="uuid-37bc435b-23e6-4236-8ddd-8c9d5d56d2f7" d="M769.4299927,541.4400024c4.0900269,49.7999878,37.8200073,90,82,93.6799927,50.2799683,4.2399902,95.0700073-40.1900024,100-99.2399902s-31.7299805-110.3500061-82-114.5899963-95.0599976,40.1900024-100,99.2400208M855.4299927,587.6100464c-27.9299927-2.3599854-48.3200073-30.8599854-45.5599976-63.6699829s27.6500244-57.4899902,55.5800171-55.1300049,48.3300171,30.8599854,45.5599976,63.6599731-27.5999756,57.5299683-55.5300293,55.1400146h-.0499878Z"/>
  <g>
    <path class="uuid-6e0d9247-af69-4fd5-8ec9-746a0ba58a9a" d="M438.2999878,454.8699951l-3.7799988,16.5899963c-1.1113281,4.8723145-5.8985901,7.9751892-10.7999878,7l-2.9100037-.5799866,1.7600098-26c.2690735-3.9385376,2.4410095-7.4987183,5.8200073-9.5400085l8.5599976-5.5100098c14-9,18.2799988-7.3900146,34.6900024-11.6199951"/>
    <path class="uuid-d8edde95-9a3a-40ee-ba8f-425b09ec770a" d="M914.1300049,361.1799927l5.3699951,62.2900085-38-7.0799866,17.3900146,20.9500122c-17.5599976,5.269989-27.5900269-5.1000061-27.5900269-5.1000061l-7.7999878,9.5799866c-2.8279419,3.4665833-7.8980713,4.0599365-11.4500122,1.3399963l-2.0499878-1.6199951,22.8800049-34.3099976"/>
  </g>
  <path class="uuid-4b8944e4-1e59-4161-9f04-f827ea448e40" d="M902.1199951,456.0799866l-40.3499756-13.3699951.1699829-4c.2826538-6.6082153,3.4161377-12.7693787,8.5900269-16.8899841l25.0999756-20,23.8699951,21.6400146.4099731,8.3800049c-2.2880859,9.7385559-8.2965698,18.1949768-16.7399902,23.5599976l-1.0499878.6799622Z"/>
  <path class="uuid-4b8944e4-1e59-4161-9f04-f827ea448e40" d="M876.6199951,439.5899963l-7,34.5799866c-.4893188,2.4338379-2.8215942,4.0403137-5.2700195,3.6300049-2.3180542-.3795166-3.9778442-2.4445496-3.8499756-4.7900085l1.75-32.4500122,14.3699951-.9699707Z"/>
  <path class="uuid-feee49af-c97e-4577-b216-d3af7fbf05b6" d="M875,448.6600037l-5.3200073,25.5100098c-.4893188,2.4338379-2.8215942,4.0403137-5.2700195,3.6300049-2.3180542-.3795166-3.9778442-2.4445496-3.8499756-4.7900085l1.710022-40.1300049"/>
  <path class="uuid-4b8944e4-1e59-4161-9f04-f827ea448e40" d="M888.2800293,444.3200073l-13.8900146,40.230011c-.8104858,2.3504639-3.357605,3.6151123-5.7199707,2.8399963-2.2000122-.7375793-3.4926147-3.0125122-3-5.2799988l8.7399902-40.5100098,13.8699951,2.7200012Z"/>
  <path class="uuid-feee49af-c97e-4577-b216-d3af7fbf05b6" d="M884.5100098,455.2399902l-10.1199951,29.3099976c-.8104858,2.3504639-3.357605,3.6151123-5.7199707,2.8399963-2.2000122-.7375793-3.4926147-3.0125122-3-5.2799988l8.7399902-40.5100098"/>
  <path class="uuid-4b8944e4-1e59-4161-9f04-f827ea448e40" d="M897.6699829,444.4500122l-3.9199829,11.3900146-1.8900146,5.4700012-8.0599976,23.3899841c-.8102417,2.3503113-3.3600464,3.6118774-5.7199707,2.8299866-2.1985474-.7333984-3.4917603-3.0050964-3-5.269989l8.7199707-40.519989,13.8699951,2.7099915Z"/>
  <path class="uuid-feee49af-c97e-4577-b216-d3af7fbf05b6" d="M893.1699829,457.5299988l-1.3099976,3.7799988-8.0599976,23.3900146c-.8102417,2.3503113-3.3600464,3.6118774-5.7199707,2.8299866-2.1985474-.7333984-3.4917603-3.0050964-3-5.269989l8-37.1499939"/>
  <path class="uuid-feee49af-c97e-4577-b216-d3af7fbf05b6" d="M902.1199951,456.0799866l1-.6700134c7.6697388-4.8605042,13.4081421-12.2394714,16.2299805-20.8699951.5245972-1.6766663.7148438-3.440033.5599976-5.1900024l-.710022-8.2900085"/>
  <path class="uuid-4b8944e4-1e59-4161-9f04-f827ea448e40" d="M904.4500122,438.8599854l-5.710022,42.1400146c-.3322754,2.4414062-2.5511475,4.1721497-5,3.8999939-2.3074951-.2807617-4.0323486-2.2557068-4-4.5799866l.6099854-41.4400024h7.7999878l6.3000488-.0200195Z"/>
  <path class="uuid-feee49af-c97e-4577-b216-d3af7fbf05b6" d="M902.25,455.8699951l-3.5100098,25.1300049c-.3322754,2.4414062-2.5511475,4.1721497-5,3.8999939-2.3074951-.2807617-4.0323486-2.2557068-4-4.5799866l.5499878-33"/>
  <g>
    <rect class="uuid-d7c97273-554d-421b-8f72-5c7db1a9e895" x="355.1499939" y="181.2299957" width="82.1700134" height="36.6800079" rx="16.8000031" ry="16.8000031"/>
    <path class="uuid-d7c97273-554d-421b-8f72-5c7db1a9e895" d="M77.8199997,613.3499756h45.4899979"/>
    <path class="uuid-d7c97273-554d-421b-8f72-5c7db1a9e895" d="M54.3499985,632.4299927h68.9599991"/>
    <path class="uuid-d7c97273-554d-421b-8f72-5c7db1a9e895" d="M54.3499985,651.5h46.2200012"/>
  </g>
</svg>