<?xml version="1.0" encoding="UTF-8"?>
<svg id="uuid-5d695662-7015-48f2-9bb7-4582553d872e" data-name="Ebene 1" xmlns="http://www.w3.org/2000/svg" viewBox="0 0 1140.534809 1049.4504319">
  <defs>
    <style>
      .uuid-0d100895-a14e-4126-983f-d7133a512c32 {
        fill: #fff;
      }

      .uuid-0d100895-a14e-4126-983f-d7133a512c32, .uuid-3770b8de-1e2c-490d-93d2-e511def8b85d, .uuid-a0f0b984-bd8d-4eef-8b4c-571df9697e64, .uuid-6cd971b3-bb6d-4288-9599-ccf81c706c67, .uuid-0c9e8c5a-07eb-4494-9702-57a1d615d219 {
        stroke: #1d2b47;
        stroke-linecap: round;
        stroke-miterlimit: 10;
        stroke-width: 1.62px;
      }

      .uuid-3770b8de-1e2c-490d-93d2-e511def8b85d {
        fill: #0d00ad;
      }

      .uuid-a0f0b984-bd8d-4eef-8b4c-571df9697e64, .uuid-66d9366d-ce6f-49dd-abcf-ca2407e7e517 {
        fill: #f2f2fb;
      }

      .uuid-6cd971b3-bb6d-4288-9599-ccf81c706c67 {
        fill: #8480ce;
      }

      .uuid-0c9e8c5a-07eb-4494-9702-57a1d615d219 {
        fill: none;
      }
    </style>
  </defs>
  <path class="uuid-6cd971b3-bb6d-4288-9599-ccf81c706c67" d="M430.540232,701.0952187l-222.9199982-9.25,140.8099823-96.289978-164.2700043-113.2900085,188.5399933-21.0400085-89.8200073-192.5899963,187.730011,104.3899841,58.269989-203.1100006,72.8199768,191.7799835,152.9400024-111.6699982-52.5900269,185.3000031,167.5-10.519989-122.1900024,122.9999695,122.1900024,67.1699829-114.9099731,85.7700195"/>
  <path class="uuid-0d100895-a14e-4126-983f-d7133a512c32" d="M1020.060221,909.5152016h-260.1099854v-256.3500366h260.1099854"/>
  <path class="uuid-66d9366d-ce6f-49dd-abcf-ca2407e7e517" d="M702.0902503,652.8652382h105.1500244v175.7399902h-105.1500244v-175.7399902Z"/>
  <path class="uuid-66d9366d-ce6f-49dd-abcf-ca2407e7e517" d="M545.2202247,708.4052163l-.8500061-159.1799927c-.0283508-8.0822144,6.448761-14.6841125,14.5300293-14.8099976,7.5643311-.1256104,13.9989624,5.4884644,14.9000244,13l17,154.5299683-45.5800476,6.460022Z"/>
  <path class="uuid-0c9e8c5a-07eb-4494-9702-57a1d615d219" d="M545.2202247,708.4052163l-.8500061-159.1799927c-.0283508-8.0822144,6.448761-14.6841125,14.5300293-14.8099976,7.5643311-.1256104,13.9989624,5.4884644,14.9000244,13l17,154.5299683-45.5800476,6.460022Z"/>
  <path class="uuid-66d9366d-ce6f-49dd-abcf-ca2407e7e517" d="M573.060221,659.5852089l-3.8300171-159.1400146c-.1799927-8.0803833,6.1723633-14.8027344,14.25-15.0799866,7.5496216-.2697144,14.0858765,5.2008972,15.1500244,12.6799927l19.8300171,154.1800232-45.4000244,7.3599854Z"/>
  <path class="uuid-0c9e8c5a-07eb-4494-9702-57a1d615d219" d="M576.9902137,627.0452309l-7.7700195-126.6000061c-.1799927-8.0803833,6.1723633-14.8027344,14.25-15.0799866,7.5496216-.2697144,14.0858765,5.2008972,15.1500244,12.6799927l19.8300171,154.1799927"/>
  <path class="uuid-66d9366d-ce6f-49dd-abcf-ca2407e7e517" d="M606.4502356,650.2752114l-4.4299927-174c-.1744995-8.0783081,6.1747437-14.7973938,14.25-15.0799866,7.5458374-.2644653,14.0762329,5.204834,15.1400146,12.6799927l20.4500122,169.0400085-45.4100342,7.3599854Z"/>
  <path class="uuid-0c9e8c5a-07eb-4494-9702-57a1d615d219" d="M605.7902015,624.0552407l-3.7299805-147.8099976c-.1744995-8.0783081,6.1747437-14.7973938,14.25-15.0799866,7.5458374-.2644653,14.0762329,5.204834,15.1400146,12.6799927l20.4099731,169.0700378"/>
  <path class="uuid-66d9366d-ce6f-49dd-abcf-ca2407e7e517" d="M641.5002234,656.7852211l-3.8300171-159.1400146c-.1744995-8.0783081,6.1747437-14.7973938,14.25-15.0799866,7.5458374-.2644653,14.0762329,5.204834,15.1400146,12.6799927l19.8300171,154.1899719-45.3900146,7.3500366Z"/>
  <path class="uuid-0c9e8c5a-07eb-4494-9702-57a1d615d219" d="M640.6502478,621.4052163l-3-123.7600098c-.1744995-8.0783081,6.1747437-14.7973938,14.25-15.0799866,7.5533447-.2749023,14.095459,5.1969604,15.1599731,12.6799927l19.8300171,154.1899719"/>
  <path class="uuid-66d9366d-ce6f-49dd-abcf-ca2407e7e517" d="M683.2302039,828.5952187h-24.5300293c-62.6677246.0055542-113.4744873-50.7922363-113.480011-113.460022v-59.289978s37.730011-18.8699951,71.480011-19.8599854c27.7999878-3,66.5299683,6,66.5299683,6l.000061,186.6099854Z"/>
  <path class="uuid-0c9e8c5a-07eb-4494-9702-57a1d615d219" d="M683.2302039,641.9351845s-60.5700073-18.8599854-124.1099854,7.9500122"/>
  <path class="uuid-66d9366d-ce6f-49dd-abcf-ca2407e7e517" d="M658.4002478,804.7752114l4.7600098-183.4099731c.5-14.5300293,14-26.0900269,30.5800171-26.0900269h9.8300171l12.4199829,231.3400269-32.7600098,2-24.8300171-23.8400269Z"/>
  <g>
    <path class="uuid-0c9e8c5a-07eb-4494-9702-57a1d615d219" d="M710.4902137,724.1152382l-6.9199829-128.8399658h-9.8300171c-16.539978,0-30.0800171,11.5599976-30.5800171,26.0900269l-1.7800293,65.25s-67.5100098,8.9400024-85.3800049,54.6099854"/>
    <path class="uuid-0c9e8c5a-07eb-4494-9702-57a1d615d219" d="M807.2402137,652.8652382h-100.5800171"/>
    <path class="uuid-0c9e8c5a-07eb-4494-9702-57a1d615d219" d="M545.2202247,641.9351845v73.1900024c-.0000305,62.6677246,50.8022156,113.4700317,113.4700012,113.4700317h148.5499878"/>
  </g>
  <path class="uuid-66d9366d-ce6f-49dd-abcf-ca2407e7e517" d="M450.3902076,828.5952187h-113.1700134v-175.7399902h113.1699829l.0000305,175.7399902Z"/>
  <path class="uuid-66d9366d-ce6f-49dd-abcf-ca2407e7e517" d="M430.540232,828.5952187h24.519989c62.6732483.0054932,113.484436-50.7966919,113.4899902-113.4699707v-59.2800293s-37.730011-18.8699951-71.4899902-19.8599854c-27.7999878-3-66.519989,6-66.519989,6v186.6099854Z"/>
  <path class="uuid-0c9e8c5a-07eb-4494-9702-57a1d615d219" d="M430.540232,641.9351845s60.5700073-18.8599854,124.1100159,7.9500122"/>
  <path class="uuid-0c9e8c5a-07eb-4494-9702-57a1d615d219" d="M568.5502112,715.125187c-.0054932,62.6732788-50.8167114,113.4755249-113.4899597,113.4700317h-117.8500366v-175.7299805h69.8999939"/>
  <path class="uuid-66d9366d-ce6f-49dd-abcf-ca2407e7e517" d="M404.4102271,701.0952187l12.8299866-158.6699829c.6697693-8.0497131,7.6817627-14.0682983,15.7399902-13.5100098,7.5400696.5175171,13.4709778,6.6470032,13.7399902,14.2000122l3.6099854,155.4100342-45.9199524,2.5699463Z"/>
  <path class="uuid-0c9e8c5a-07eb-4494-9702-57a1d615d219" d="M446.7202247,543.1152382c-.2690125-7.553009-6.1999207-13.6824951-13.7399902-14.2000122-8.0582275-.5582886-15.0702209,5.4602966-15.7399902,13.5100098l-9.7399902,110.5800171"/>
  <path class="uuid-66d9366d-ce6f-49dd-abcf-ca2407e7e517" d="M436.33021,654.8452187l9.8599854-158.8800049c.5149231-8.0662231,7.4177551-14.2204285,15.4899902-13.8099976,7.5409851.391449,13.5761719,6.4007568,14,13.9400024l6.519989,155.3200073-45.8699646,3.4299927Z"/>
  <path class="uuid-0c9e8c5a-07eb-4494-9702-57a1d615d219" d="M443.060221,622.7652016l3.1400146-126.7999878c.5149231-8.0662231,7.4177551-14.2204285,15.4899902-13.8099976,7.5409851.391449,13.5761719,6.4007568,14,13.9400024l6.2600098,140.7199707"/>
  <path class="uuid-66d9366d-ce6f-49dd-abcf-ca2407e7e517" d="M470.4202063,648.4351845l10.519989-173.7200012c.5149231-8.0662231,7.4177551-14.2204285,15.4899902-13.8099976,7.5449829.3824463,13.585144,6.3967285,14,13.9400024l5.8500061,170.1899719-45.8599854,3.4000244Z"/>
  <path class="uuid-0c9e8c5a-07eb-4494-9702-57a1d615d219" d="M472.0002234,622.2551918l8.9400024-147.539978c.5149231-8.0662231,7.4177551-14.2204285,15.4899902-13.8099976,7.5449829.3824463,13.585144,6.3967285,14,13.9400024l5.8500061,170.1900024"/>
  <path class="uuid-66d9366d-ce6f-49dd-abcf-ca2407e7e517" d="M504.7702124,657.9351845l9.8500061-158.8800049c.5201416-8.0677795,7.4259033-14.2205811,15.5-13.8099976,7.5409851.391449,13.5761719,6.4007568,14,13.9400024l6.519989,155.3200073-45.8699951,3.4299927Z"/>
  <path class="uuid-0c9e8c5a-07eb-4494-9702-57a1d615d219" d="M506.9602149,622.6152382l7.6600037-123.5599976c.5201416-8.0677795,7.4259033-14.2205811,15.5-13.8099976,7.5409851.391449,13.5761719,6.4007568,14,13.9400024l6.519989,155.3200073"/>
  <path class="uuid-a0f0b984-bd8d-4eef-8b4c-571df9697e64" d="M544.7802222,784.6152382l33.9999695-47.6300049c8.5484619-11.9691772,12.9901123-26.3853149,12.6599731-41.0900269l-1.9099731-85.1799927c-.4282837-18.5407715-15.8057251-33.223877-34.3464966-32.7955933-.071167.0016479-.142334.00354-.213501.0056152l-7.5299988.2299805.7200012,82.6500244"/>
  <path class="uuid-0d100895-a14e-4126-983f-d7133a512c32" d="M70.060221,653.0051918h302.6400146v213.6300049c0,23.6819458-19.1980286,42.8800049-42.8800049,42.8800049H127.5102179"/>
  <path class="uuid-3770b8de-1e2c-490d-93d2-e511def8b85d" d="M721.4701941,866.6351967c0,23.6819458,19.1980591,42.8800049,42.8800049,42.8800049h0c23.6819458.0055542,42.8844604-19.1879883,42.8900146-42.8699951v-38.0100098h-85.7700195v38Z"/>
  <path class="uuid-0c9e8c5a-07eb-4494-9702-57a1d615d219" d="M721.4602454,828.5952187h85.7800293v-175.5899658h-85.7800293"/>
  <path class="uuid-0d100895-a14e-4126-983f-d7133a512c32" d="M910.4902137,654.8452187v195.6900024c0,32.5847778-26.4152222,59-59,59h-22.1699829"/>
  <path class="uuid-0d100895-a14e-4126-983f-d7133a512c32" d="M265.560221,654.8452187v195.6900024c0,32.5847778-26.4152069,59-59,59h-22.1799927"/>
  <g>
    <path class="uuid-0c9e8c5a-07eb-4494-9702-57a1d615d219" d="M418.8202308,627.915226s5.6700134,5.6699829,15.3800049,1.6199951"/>
    <path class="uuid-0c9e8c5a-07eb-4494-9702-57a1d615d219" d="M448.7702124,631.1552163s5.6600037,5.6599731,15.3699951,1.6199951"/>
    <path class="uuid-0c9e8c5a-07eb-4494-9702-57a1d615d219" d="M481.1302283,633.5852089s5.6700134,5.6599731,15.3800049,1.6199951"/>
    <path class="uuid-0c9e8c5a-07eb-4494-9702-57a1d615d219" d="M514.310221,633.5852089s5.6600037,5.6599731,15.3800049,1.6199951"/>
  </g>
  <g>
    <path class="uuid-6cd971b3-bb6d-4288-9599-ccf81c706c67" d="M613.0802405,290.1252175l20.2999878-150.2100067,57.6199951,21.3999939-77.9199829,128.8100128Z"/>
    <path class="uuid-6cd971b3-bb6d-4288-9599-ccf81c706c67" d="M775.6802161,373.0252114l42.0800171-44.5100098,11.3300171,44.5100098h-53.4100342Z"/>
    <path class="uuid-6cd971b3-bb6d-4288-9599-ccf81c706c67" d="M456.0502112,292.9052163l-48.5499878-136.75-42.8900146,26.6999969,91.4400024,110.0500031Z"/>
    <path class="uuid-6cd971b3-bb6d-4288-9599-ccf81c706c67" d="M311.2002356,421.5751992l-67.1600037-55.0299988-16.9900055,38.0299988,84.1500092,17Z"/>
    <path class="uuid-6cd971b3-bb6d-4288-9599-ccf81c706c67" d="M829.0902503,529.1952248l81.7299805-16.1799927-11.3300171,34.7900085-70.3999634-18.6100159Z"/>
    <path class="uuid-6cd971b3-bb6d-4288-9599-ccf81c706c67" d="M257.7902167,590.6951943l-36.4100037,9.710022,3.2400055,10.5200195,33.1699982-20.2300415Z"/>
  </g>
</svg>