<?xml version="1.0" encoding="UTF-8"?>
<svg id="uuid-c28259a9-5b8e-441c-8017-15c189324c4f" data-name="Ebene 1" xmlns="http://www.w3.org/2000/svg" viewBox="0 0 1140.534809 1049.4504319">
  <defs>
    <style>
      .uuid-564231c0-5908-42a6-adbf-39dce5b24bd8, .uuid-3851bf6d-f2aa-4e76-b29b-5e698c2bf8a3, .uuid-503ac0fd-92dc-40cc-be93-f86b006230d0, .uuid-4d8ccde2-1898-4caa-a092-7b89228b578a, .uuid-648177d5-dc25-4389-90c0-cdc3c97bbdd8, .uuid-af309b75-ec0c-478e-9c6f-4e061dc47cf5, .uuid-452d3359-0947-4725-9eb5-76ed1d4ed5c8, .uuid-cc9dd4c8-1236-47d3-ac7f-e450bc6b3489, .uuid-68ed6aac-8212-48c2-b80e-733ee94d2384, .uuid-73a27ed4-898a-4382-87b5-297b7c35e98b, .uuid-6cc1a06c-719d-426a-be9a-576321681369, .uuid-f7ad53ea-23c9-49f3-91da-0667529524a9 {
        stroke: #1d2b47;
      }

      .uuid-564231c0-5908-42a6-adbf-39dce5b24bd8, .uuid-3851bf6d-f2aa-4e76-b29b-5e698c2bf8a3, .uuid-503ac0fd-92dc-40cc-be93-f86b006230d0, .uuid-af309b75-ec0c-478e-9c6f-4e061dc47cf5, .uuid-cc9dd4c8-1236-47d3-ac7f-e450bc6b3489, .uuid-68ed6aac-8212-48c2-b80e-733ee94d2384, .uuid-73a27ed4-898a-4382-87b5-297b7c35e98b, .uuid-f7ad53ea-23c9-49f3-91da-0667529524a9, .uuid-ef816083-667d-46ac-84ef-5f028fa0aaed {
        stroke-miterlimit: 10;
        stroke-width: 1.53px;
      }

      .uuid-564231c0-5908-42a6-adbf-39dce5b24bd8, .uuid-abf975f6-ec04-4abe-bb88-27c99f7a18c2 {
        fill: #dad9f3;
      }

      .uuid-3851bf6d-f2aa-4e76-b29b-5e698c2bf8a3, .uuid-4d8ccde2-1898-4caa-a092-7b89228b578a, .uuid-648177d5-dc25-4389-90c0-cdc3c97bbdd8, .uuid-af309b75-ec0c-478e-9c6f-4e061dc47cf5, .uuid-452d3359-0947-4725-9eb5-76ed1d4ed5c8, .uuid-089cd38f-e897-4e09-a34b-5811b50ea67a, .uuid-ef816083-667d-46ac-84ef-5f028fa0aaed {
        fill: #fff;
      }

      .uuid-3851bf6d-f2aa-4e76-b29b-5e698c2bf8a3, .uuid-73a27ed4-898a-4382-87b5-297b7c35e98b {
        stroke-linecap: round;
      }

      .uuid-503ac0fd-92dc-40cc-be93-f86b006230d0, .uuid-2a38ee75-15d0-4384-b356-d1fee2082342 {
        fill: #f2f2fb;
      }

      .uuid-4d8ccde2-1898-4caa-a092-7b89228b578a {
        stroke-miterlimit: 10.0000001;
        stroke-width: 1.53px;
      }

      .uuid-648177d5-dc25-4389-90c0-cdc3c97bbdd8, .uuid-6cc1a06c-719d-426a-be9a-576321681369 {
        stroke-miterlimit: 10.0000002;
        stroke-width: 1.53px;
      }

      .uuid-452d3359-0947-4725-9eb5-76ed1d4ed5c8 {
        stroke-miterlimit: 10;
        stroke-width: 1.53px;
      }

      .uuid-fdd5b942-5f0e-434b-b3cb-95c92b6c74e3, .uuid-6cc1a06c-719d-426a-be9a-576321681369, .uuid-f7ad53ea-23c9-49f3-91da-0667529524a9 {
        fill: #0d00ad;
      }

      .uuid-cc9dd4c8-1236-47d3-ac7f-e450bc6b3489 {
        fill: #8480ce;
      }

      .uuid-68ed6aac-8212-48c2-b80e-733ee94d2384, .uuid-73a27ed4-898a-4382-87b5-297b7c35e98b {
        fill: none;
      }

      .uuid-ef816083-667d-46ac-84ef-5f028fa0aaed {
        stroke: #0d00ad;
      }
    </style>
  </defs>
  <g>
    <g>
      <path class="uuid-564231c0-5908-42a6-adbf-39dce5b24bd8" d="M365.9053422,533.8597999l209.6499939-236.8399963c26.5964966-30.0682068,65.5621338-46.2070618,105.6300049-43.75l72.8699951,4.4600067-49.2000122,294.7899933"/>
      <path class="uuid-564231c0-5908-42a6-adbf-39dce5b24bd8" d="M708.4253313,337.7498145l-38.2600098-27.2099915c-6.3209839-4.083313-13.588501-6.4667816-21.0999756-6.9199982l-104.4500122-6.3500061-20.4100037-1.0899963c-18.2999878.0599976-33.0499878,23.3400116-32.9500122,52.0000153,0,13.0499878,3.1600037,25,8.269989,34.0700073l35.0899963-38.230011"/>
      <path class="uuid-564231c0-5908-42a6-adbf-39dce5b24bd8" d="M992.3153459,616.499784l-188.2299805,63.6500244c-27.3764038,9.2581177-56.5578613,11.8935547-85.1500244,7.6900024l-492.6199951-72.3599854,43.8999939-218.1300049,41.9100037,22.3999939c18.2985077,9.7800293,38.1513977,16.3198547,58.6799927,19.3299866l613.6199951,90.1900024c24.612793,3.6328125,41.6236572,26.5259094,38,51.1400146-2.4729614,16.7253418-14.0985718,30.6599121-30.1099854,36.0900269v-.000061Z"/>
    </g>
    <ellipse class="uuid-648177d5-dc25-4389-90c0-cdc3c97bbdd8" cx="242.5987285" cy="504.715542" rx="111.9800002" ry="65.0799881" transform="translate(-292.0257402 671.3546697) rotate(-81.6400015)"/>
    <ellipse class="uuid-648177d5-dc25-4389-90c0-cdc3c97bbdd8" cx="242.5987285" cy="504.715542" rx="111.9800002" ry="65.0799881" transform="translate(-292.0257402 671.3546697) rotate(-81.6400015)"/>
    <ellipse class="uuid-6cc1a06c-719d-426a-be9a-576321681369" cx="242.3150958" cy="502.1718594" rx="85.1700001" ry="46.5299998" transform="translate(-289.7514837 668.9001922) rotate(-81.6400006)"/>
    <path class="uuid-f7ad53ea-23c9-49f3-91da-0667529524a9" d="M1012.5253068,507.959806l-43.789978-41.7999878c-7.9824219-7.618866-18.4053345-12.1642761-29.4199829-12.8299866l-24.8800049-1.5100098c-3.3964233-.1960449-6.3086548,2.3983765-6.5046997,5.7947998-.0496216.859375.0814209,1.7196045.3847046,2.5252075l18.5800171,49"/>
    <path class="uuid-68ed6aac-8212-48c2-b80e-733ee94d2384" d="M267.2153398,337.0598121c44,6.4599915,73.8000183,62.0799866,75.7799988,132.7599792"/>
    <path class="uuid-564231c0-5908-42a6-adbf-39dce5b24bd8" d="M887.2753068,524.1498084l63.3400269-91.7399902c5-7.3299866,15.0800171-11.1199951,25.3699951-9.6099854l42.9000244,6.2999878c14,2.0499878,24,13.1300049,22.25,24.75l-18.5200195,126.2999878"/>
    <path class="uuid-f7ad53ea-23c9-49f3-91da-0667529524a9" d="M363.4653398,564.1498084s16.1600037,53.25-32.2299957,66.7700195l138.2400055,20.2800293-106.0100098-87.0500488Z"/>
  </g>
  <path class="uuid-abf975f6-ec04-4abe-bb88-27c99f7a18c2" d="M363.7753374,564.459806l195.6000061,248.5700073c24.8184509,31.5457153,62.7818604,49.9040527,102.9199829,49.7700195l73-.25-32.0599976-297.1300049"/>
  <g>
    <path class="uuid-564231c0-5908-42a6-adbf-39dce5b24bd8" d="M548.6153337,799.2698035l-116.6699829.3900146-.3299866-103.7600098,105.8399963-.3599854c7.1794739-.0241089,14.3186951,1.0723877,21.1600037,3.25l93.5600281,29.7800293"/>
    <ellipse class="uuid-4d8ccde2-1898-4caa-a092-7b89228b578a" cx="432.0731832" cy="747.7938754" rx="33.1199956" ry="51.8900154" transform="translate(-2.4773985 1.4369181) rotate(-.19)"/>
    <path class="uuid-f7ad53ea-23c9-49f3-91da-0667529524a9" d="M514.5053483,756.0097937l1.7999878,7.8099976c1.1656189,4.8823242,1.2543335,9.9598999.2600098,14.8800049-1.9400024,9.1599731-7.1600037,16.3099976-17.5499878,20.7399902l49.6000061-.1699829-34.1100159-43.2600098Z"/>
    <path class="uuid-f7ad53ea-23c9-49f3-91da-0667529524a9" d="M451.9253313,706.1098304c-11.6499939,5-20.1799927,21.6599731-20.1199951,41.4799805s8.7099915,36.4700317,20.3900146,41.3400269c8-9.4899902,13.0899963-24.539978,13-41.4500122s-5.2399902-31.9199829-13.269989-41.3699951h-.0000305Z"/>
    <path class="uuid-68ed6aac-8212-48c2-b80e-733ee94d2384" d="M514.6153337,756.1698279l44.75,56.8599854c24.8184509,31.5457153,62.7818604,49.9040527,102.9199829,49.7700195l73-.25-27.75-257.6099854"/>
    <path class="uuid-68ed6aac-8212-48c2-b80e-733ee94d2384" d="M363.7753374,564.459806l103.6199951,131.3200073"/>
    <path class="uuid-f7ad53ea-23c9-49f3-91da-0667529524a9" d="M945.9853288,517.7498145s4.0999756,1.1600037,5.789978,17.3800049c2.347229,22.9549561,19.3758545,41.7026672,42,46.2400208,15.1199951,3,27.5800171,4.4099731,27.5800171,4.4099731,0,0,15.3499756-33.1699829,3.2000122-55.6400146"/>
    <path class="uuid-f7ad53ea-23c9-49f3-91da-0667529524a9" d="M523.0753251,518.0097937l90.0699768,13.6499939c31.1935425,4.7494812,62.2375488-9.4317017,79.0700073-36.1199951l5.3400269-8.4599915-241.460022-35.4700012,2.8599854,9.8999939c8.5799866,29.7600098,19.1000061,53.1900024,64.1199951,56.5h.0000305Z"/>
    <path class="uuid-68ed6aac-8212-48c2-b80e-733ee94d2384" d="M372.3253251,534.1498084l366.9999695,45c12.4929199,1.5391846,23.3083496,9.4135742,28.6099854,20.8300171,5.6362915,12.1384888,17.4805298,20.2036133,30.8400269,21l152.7399902,9.289978"/>
    <path class="uuid-af309b75-ec0c-478e-9c6f-4e061dc47cf5" d="M915.0953142,581.6698279l103.2299805,12.1199951"/>
    <path class="uuid-68ed6aac-8212-48c2-b80e-733ee94d2384" d="M671.8453142,517.3398108l88.2299805,10.8200073c12.491394,1.5369263,23.3048096,9.4125366,28.5999756,20.8299866,5.6466675,12.1340942,17.4904785,20.1963806,30.8499756,20.9999695l12.3900146,1.4799805"/>
    <path class="uuid-564231c0-5908-42a6-adbf-39dce5b24bd8" d="M946.0053483,517.479795l43.789978,41.7900085c7.9797974,7.6167297,18.3988037,12.1619873,29.4099731,12.8300171l24.8900146,1.5100098c3.3907471.1985474,6.3004761-2.3892212,6.4990234-5.7799683.0505981-.864624-.0819702-1.7301941-.3890381-2.5400391l-18.5900269-49.019989"/>
    <circle class="uuid-af309b75-ec0c-478e-9c6f-4e061dc47cf5" cx="874.2053605" cy="578.0198035" r="32.25"/>
    <g>
      <path class="uuid-cc9dd4c8-1236-47d3-ac7f-e450bc6b3489" d="M880.6153337,556.8398108l3.0700073,11.1099854c.2097168.7322693.7613525,1.3174438,1.4799805,1.5700073l10.9299927,3.75c1.2058105.416626,1.8455811,1.7319336,1.4289551,2.9377441-.1658936.4800415-.4853516.8920288-.9089355,1.1722412l-9.6199951,6.3599854c-.6210938.4296875-.9941406,1.1348267-1,1.8900146l-.2199707,11.5200195c-.0198975,1.2756348-1.0700684,2.2935791-2.3457031,2.2737427-.5109253-.0079956-1.0048218-.1851196-1.4042969-.5037231l-9-7.1799927c-.5914917-.4787598-1.3822021-.6323853-2.1099854-.4099731l-11,3.3599854c-1.2229614.3632202-2.5088501-.3336792-2.8720703-1.5567017-.140564-.4732056-.1258545-.9790649.0420532-1.4432983l4-10.7999878c.270874-.7106323.1695557-1.5094604-.2700195-2.1300049l-6.5999756-9.4500122c-.7303467-1.0460205-.4744873-2.486084.5715942-3.2164307.4175415-.2915649.9196777-.4369507,1.4284058-.4135742l11.5100098.5100098c.7407837.0126953,1.4430542-.3291626,1.8900146-.9200134l7-9.2000122c.8037109-.9907837,2.2584229-1.1424561,3.2492065-.3387451.354248.2873535.6154785.6731567.7507935,1.1087341h-.000061Z"/>
      <path class="uuid-cc9dd4c8-1236-47d3-ac7f-e450bc6b3489" d="M185.1653367,306.759809l-4.6399994,1.1199951c-3.2677689.7913208-5.392746,3.9440918-4.9000015,7.2700043l12.6200027,85.0499878c.1573639,1.0708618.4117432,2.1251831.7600021,3.1499939l27.8799973,82.5700073c.8623199,2.5588074,3.5337524,4.0376282,6.1600037,3.4100037l6.9199982-1.6700134c2.6229248-.6377258,4.3270111-3.1700134,3.9299927-5.8399963l-12.7899933-86.2000122c-.1584778-1.0739136-.4128265-2.1314697-.7599945-3.1600037l-27.5-81.4599915c-1.0842667-3.1817627-4.4097672-5.0177307-7.6800003-4.2400055l-.0000076.0000305Z"/>
      <path class="uuid-cc9dd4c8-1236-47d3-ac7f-e450bc6b3489" d="M274.4253313,689.6598182l4.6399994-1.1199951c3.2718048-.7869873,5.4019775-3.94104,4.9100037-7.2700195l-12.6199951-85c-.1621094-1.0699463-.4163818-2.1239014-.7599945-3.1500244l-27.8800049-82.6199951c-.8665161-2.5602417-3.5411682-4.0384521-6.1699982-3.4100037l-6.9299927,1.6700134c-2.6298676.6292114-4.341217,3.1658325-3.9400024,5.8399963l12.7899933,86.1999817c.1620789,1.0731812.4163513,2.1304321.7599945,3.1599731l27.5099945,81.460022c1.0728912,3.196228,4.4144745,5.0386353,7.6900024,4.2399902v.000061Z"/>
    </g>
    <ellipse class="uuid-648177d5-dc25-4389-90c0-cdc3c97bbdd8" cx="229.8815405" cy="501.6898584" rx="25.0899969" ry="14.5799869" transform="translate(-299.900416 656.1868332) rotate(-81.6400006)"/>
    <path class="uuid-503ac0fd-92dc-40cc-be93-f86b006230d0" d="M229.0753404,507.0798011c-.4777527,3.0943909-3.3620605,5.2241211-6.4600067,4.769989l-3.3600006-.4899902c-8.1600037-1.2000122-14.1199951-6.7000122-13.2899933-12.2900085l.2599945-1.8099976c.8200073-5.5899963,8.1100006-9.1400146,16.2700043-7.9400024l3.4199982.5c3.1093292.4554138,5.2607269,3.3452148,4.8053131,6.4545593-.0017395.0118103-.0035095.0236206-.0053101.0354309l-1.6399994,10.7700195Z"/>
    <g>
      <path class="uuid-68ed6aac-8212-48c2-b80e-733ee94d2384" d="M150.1053316,594.6797767c-8.3000031-30-10.5299988-66.2000122-4.9300003-104.2999878,10.6500015-72.5499878,46.5099945-130.3999939,87.4199982-148.2299805"/>
      <path class="uuid-68ed6aac-8212-48c2-b80e-733ee94d2384" d="M340.0153276,518.9998145c-13.6000061,92.5899963-68.2399902,161.230011-122,153.3299866-19.7799988-2.9099731-36.6999969-15.7700195-49.5099945-35.4700317"/>
      <path class="uuid-68ed6aac-8212-48c2-b80e-733ee94d2384" d="M119.4653322,415.6498084c30.75-93.769989,94.3700027-156.3800049,157.5199966-147.0700073,65.230011,9.5800018,108.8900146,92.7200012,108.6900024,196"/>
      <path class="uuid-68ed6aac-8212-48c2-b80e-733ee94d2384" d="M334.7153398,651.6897864c-33.5800018,53.3400269-79.6100006,84.3900146-125.4100037,77.6599731-76.4499969-11.2299805-123.2699966-123.4799805-104.5800018-250.710022"/>
    </g>
    <path class="uuid-af309b75-ec0c-478e-9c6f-4e061dc47cf5" d="M572.7553483,284.2698035c3.7099915.2299957,7-4.1699982,7.3500061-9.8300018s-2.3999939-10.4199982-6.1099854-10.6499939l-6.730011-.3999939-1.2399902,20.4799957,6.7299805.3999939Z"/>
    <ellipse class="uuid-452d3359-0947-4725-9eb5-76ed1d4ed5c8" cx="566.3273056" cy="273.643235" rx="10.2600097" ry="6.7400055" transform="translate(259.0040588 822.4233905) rotate(-86.5399997)"/>
    <path class="uuid-cc9dd4c8-1236-47d3-ac7f-e450bc6b3489" d="M571.0053483,288.8798041l-6.769989,28.9999847c-2.0154724,8.6433411,3.3575134,17.2839966,12.0008545,19.299469.8804626.2053223,1.7767029.3359375,2.6791382.3905334l17.8600159,1.0799866,3.1199951-51.5-28.8900146,1.7300262Z"/>
    <path class="uuid-f7ad53ea-23c9-49f3-91da-0667529524a9" d="M652.1653215,480.4098182l-3.1699829,48.4599915c17.8969727-5.6453247,33.2114868-17.4554443,43.2199707-33.3299866l5.3400269-8.4599915-45.3900146-6.6700134Z"/>
  </g>
  <path class="uuid-089cd38f-e897-4e09-a34b-5811b50ea67a" d="M656.3253557,416.7398047c1.7401733-26.5406494-16.3453369-50.3047791-42.3900146-55.7000122-26.9628296-5.5927429-53.7502747,10.2621765-61.8200073,36.5899963l-20,65.1499939,120,17.6300049,4.210022-63.6699829Z"/>
  <path class="uuid-089cd38f-e897-4e09-a34b-5811b50ea67a" d="M532.1453325,462.7798133l-16.6900024,54.4299927c2.4299927.3399963,5,.6099854,7.6199951.7999878l90.0699768,13.6499939c12.0058594,1.8309326,24.2719727.8763428,35.8499756-2.7900085l3.1699829-48.4599915-120.019928-17.6299744Z"/>
  <g>
    <path class="uuid-af309b75-ec0c-478e-9c6f-4e061dc47cf5" d="M604.5353166,433.6598182l-23.5299988,16.4899902-26.5,18.5799866c-16.7962952,11.7674255-35.4730225,20.5900879-55.230011,26.0899963l-25.6600037-3.8800049c-40.8999939-3-53.3200073-22.6400146-61.6900024-48.5l53.8399963.6600037,11.3299866-8.2099915,101.8800049-73.8399963"/>
    <path class="uuid-f7ad53ea-23c9-49f3-91da-0667529524a9" d="M652.1653215,480.4098182l-3.1699829,48.4599915c17.8969727-5.6453247,33.2114868-17.4554443,43.2199707-33.3299866l5.3400269-8.4599915-45.3900146-6.6700134Z"/>
    <path class="uuid-af309b75-ec0c-478e-9c6f-4e061dc47cf5" d="M553.6153337,392.8698096l-21.3800049,69.9299927,119.9299927,17.6100159,4.1599731-63.6699829c1.7401733-26.5406494-16.3453369-50.3047791-42.3900146-55.7000122"/>
    <path class="uuid-af309b75-ec0c-478e-9c6f-4e061dc47cf5" d="M532.2353288,462.7998023l-16.6199951,54.4700012c2.3800049.3333435,4.8733215.5933533,7.480011.7799988l90.0699768,13.6499939c12.0058594,1.8309326,24.2719727.8763428,35.8499756-2.7900085l3.1699829-48.4599915-119.9499512-17.6499939Z"/>
    <path class="uuid-f7ad53ea-23c9-49f3-91da-0667529524a9" d="M697.5553361,487.0798011l-.4799805-.0700073c.0599976.1900024.1099854.3800049.1699829.5599976l.3099976-.4899902Z"/>
    <path class="uuid-af309b75-ec0c-478e-9c6f-4e061dc47cf5" d="M697.2453386,487.5697913l-5,8c-16.8324585,26.6882935-47.8764648,40.8694763-79.0700073,36.1199951l-67-10.1499939,13.6900024-54.6600037,22.3399963-89.1600037,27.7499695-12.4500122,30.2800293-5.2200012c21.710022,6.6499939,27.2800293,33.4899902,29.3499756,59.1600037,1.3001709,16.3019714,6.2855835,32.0957947,14.5800171,46.1900024l13.0800171,22.1700134Z"/>
    <path class="uuid-3851bf6d-f2aa-4e76-b29b-5e698c2bf8a3" d="M640.2353288,360.0498023s-3.3200073-13.1199951-26.9400024-11c-18.6699829,1.6499939-42.1600037,4.4700012-49.3200073,25.6199951-.5769348,1.6646423.3048096,3.4818115,1.9694519,4.0587463.4622192.1602173.9551086.2119751,1.4405518.1512451l4.7900085-.6000061"/>
    <path class="uuid-f7ad53ea-23c9-49f3-91da-0667529524a9" d="M582.1253435,274.509809c-4.5273132,3.2362671-8.2835083,7.4329834-11,12.2899933-4.5299988,8.0899963-4,24.2900085,8.519989,27.2799988,12.519989,2.9899902,19.1499939-19,15.6399841-25.6600037-3.5100098-6.6600037-13.1600037-13.9100037-13.1600037-13.9100037l.0000305.0000153Z"/>
  </g>
  <path class="uuid-2a38ee75-15d0-4384-b356-d1fee2082342" d="M623.8453142,317.1397986l-5.3800049,53.2799988-35.7099915,5.730011,12.1899719-63.9299927"/>
  <path class="uuid-73a27ed4-898a-4382-87b5-297b7c35e98b" d="M582.7553483,376.1498084l12.1900024-63.9299927"/>
  <path class="uuid-73a27ed4-898a-4382-87b5-297b7c35e98b" d="M623.8453142,317.1297889l-5.3800049,53.2900085"/>
  <path class="uuid-fdd5b942-5f0e-434b-b3cb-95c92b6c74e3" d="M590.8153459,333.8698096s8.4799805,2.4599915,15.5900269-.3599854c-3.5999756,9.4599915-19,18.1700134-19,18.1700134l3.4099731-17.8100281Z"/>
  <circle class="uuid-2a38ee75-15d0-4384-b356-d1fee2082342" cx="601.0453187" cy="313.0898108" r="23.1600043" transform="translate(195.7214841 856.2226619) rotate(-80.7825233)"/>
  <path class="uuid-73a27ed4-898a-4382-87b5-297b7c35e98b" d="M605.9853288,335.7198157c-12.4974976,2.723877-24.8369141-5.1992188-27.5607605-17.6967468-2.723877-12.4975281,5.1992188-24.8368988,17.6967468-27.5607758,3.0482178-.6643829,6.1992798-.7060394,9.2640381-.1224823"/>
  <path class="uuid-cc9dd4c8-1236-47d3-ac7f-e450bc6b3489" d="M605.2753068,309.779798c-.6900024,7.6999969,1,8.780014,1,8.780014,0,0,1.7299805-12.2100067,7.25-13,5.5200195-.7899933,6.8800049,10.8699951-1.1599731,12.3200073-2.3900146,15.6600037,9.710022,18,9.710022,18,0,0,27.5100098-34.7400055,10.3200073-54.1300049s-47.769989-18.6600037-61.2399902,5c10.2000122,9.1000061,35.3699951,8.5299988,35.3699951,8.5299988l-1.250061,14.4999847Z"/>
  <path class="uuid-089cd38f-e897-4e09-a34b-5811b50ea67a" d="M570.7153398,382.8698096l-18.0499878,7.1300049-45.6300049,69.0899963,39.5100098,5.8099976,24.1699829-82.0299988Z"/>
  <path class="uuid-089cd38f-e897-4e09-a34b-5811b50ea67a" d="M507.0353471,459.0898108l-28,42.3399963c9.2999878,9,22.8399963,15,44,16.5799866l7.4899902,1.1300049,16-54.2399902-39.4899902-5.8099976Z"/>
  <g>
    <path class="uuid-68ed6aac-8212-48c2-b80e-733ee94d2384" d="M536.6453325,497.6898169l38.5-129.8299866"/>
    <path class="uuid-68ed6aac-8212-48c2-b80e-733ee94d2384" d="M546.2553483,401.8497901l-37.7099915,89.5299988"/>
    <path class="uuid-af309b75-ec0c-478e-9c6f-4e061dc47cf5" d="M619.2353288,394.6097999l-92.6799927,67.3500061-11.3299866,8.2099915-53.8399963-.6600037c8.3699951,25.8599854,20.7900085,45.4899902,61.6900024,48.5l25.6600037,3.8900146c19.7566223-5.5057068,38.4329529-14.3315735,55.230011-26.1000061l26.5-18.5299988,23.5300293-16.4899902"/>
  </g>
  <path class="uuid-089cd38f-e897-4e09-a34b-5811b50ea67a" d="M582.70533,377.1297889c.6174927-2.3935242,2.072052-4.4866333,4.1000061-5.8999939,6.5200195-4.5499878,22.8900146-14,47.8200073-15.6300049,5.2000122-.0799866,6.5,5.3500061,6.5599976,10.0799866.0202026,3.306366-2.0726929,6.2565308-5.2000122,7.3299866-6.8800049,2.3900146-15,4.6700134-15,4.6700134l-.75-.8399963c-2.539978-2.8699951-26.1199951,2.8099976-36.5499878,3.8699951-4.6199951.4700012.730011-3.769989-1-3.5799866h.019989Z"/>
  <g>
    <g>
      <path class="uuid-73a27ed4-898a-4382-87b5-297b7c35e98b" d="M593.0753557,372.4698157l12.539978-1.2600098c5.4957886-.611145,10.9454956,1.4888916,14.6099854,5.6300049l.75.8399963s8.1500244-2.2799988,15-4.6700134c3.1332397-1.0674133,5.2318726-4.019989,5.210022-7.3299866,0,0,.4000244-6.3699951-3.8300171-10.3200073"/>
      <path class="uuid-73a27ed4-898a-4382-87b5-297b7c35e98b" d="M628.1253435,356.209806c-20.5,2.5499878-34.3300171,10.2799988-40.6300049,14.5400085l-.6700134.5c-4.4200134,2.9299927-4.4400024,6.8800049-5.3999939,9.3299866"/>
      <path class="uuid-cc9dd4c8-1236-47d3-ac7f-e450bc6b3489" d="M603.4653093,315.459806l.289978-4.8300018c.364502-6.0143738-4.2156372-11.1854706-10.2299805-11.5500031l-35.1600037-2.1300049c-3.0047607-.1767578-5.2973022-2.7558746-5.1205444-5.7606354.0001831-.0031281.0003662-.0062408.0005493-.0093689.2894897-4.7485199,4.3711853-8.3647614,9.1199951-8.0800018,3.5503845.2118835,6.7965393-1.9987946,7.8999939-5.3800049,5.276825-16.2911072,20.9071045-26.9485168,38-25.9100037l1.1199951.0700073c18.8751221,1.1370087,33.960144,16.1320343,35.210022,35l.4000244,26.4200134c.0939331,6.0246887-4.7139282,10.9848022-10.7385864,11.0787354-.2772827.0043335-.5546265-.0019226-.8314209-.0187378l-23.2800293-1.4100037c-3.9094238-.230896-6.8961182-3.5797119-6.6799927-7.4899902Z"/>
      <path class="uuid-af309b75-ec0c-478e-9c6f-4e061dc47cf5" d="M592.8853532,266.7998023l6.1300049.3699951c3.6987305.2229614,6.8537598,2.7566071,7.8699951,6.3200073,1.0214233,3.5599213,4.1735229,6.0911713,7.8699951,6.3200073l28.9000244,1.75c2.0393677.1184692,3.6786499,1.7235565,3.8400269,3.7599945.1807251,2.2626801-1.5070801,4.2434387-3.7697754,4.4241486-.1896973.015152-.380249.0171051-.5702515.0058441l-55-3.3300018,4.7299805-19.6199951Z"/>
      <path class="uuid-cc9dd4c8-1236-47d3-ac7f-e450bc6b3489" d="M610.3553239,307.9997992l2.2600098,17.8899994c1.7613525,13.7637634,13.0593262,24.3312378,26.9099731,25.1700134l20.0900269,1.2099915c4.93396.2981873,9.376709-2.9707336,10.5599976-7.769989l.4099731-1.6600037c1.2563477-5.1150513-1.5725098-10.348877-6.539978-12.1000061-11.6196289-4.0967102-19.3643188-15.1095581-19.289978-27.4299927v-2.2799988"/>
      <g>
        <circle class="uuid-af309b75-ec0c-478e-9c6f-4e061dc47cf5" cx="654.8153459" cy="340.3797889" r="5.8599854"/>
        <path class="uuid-af309b75-ec0c-478e-9c6f-4e061dc47cf5" d="M589.6153337,286.509809c3.710022.2299957,7-4.1799927,7.3499756-9.8300018s-2.3499756-10.4100037-6.0700073-10.6499939l-6.730011-.4100037-1.2399902,20.4799957,6.690033.4100037Z"/>
        <path class="uuid-af309b75-ec0c-478e-9c6f-4e061dc47cf5" d="M579.1253435,271.1898017l-6-.3600006c-1.2826233-.0589294-2.4605408.7049103-2.9299927,1.8999939l-.6400146,1.7100067c-.5878601,1.5135651.1625977,3.2171021,1.676178,3.8049469.289093.1122894.5941467.1781158.9038086.1950531l7.0799866.4299927-.0899658-7.6799927Z"/>
        <ellipse class="uuid-452d3359-0947-4725-9eb5-76ed1d4ed5c8" cx="583.2332229" cy="275.8368131" rx="10.2600097" ry="6.7400055" transform="translate(272.7000956 841.3596832) rotate(-86.5399997)"/>
      </g>
      <path class="uuid-564231c0-5908-42a6-adbf-39dce5b24bd8" d="M523.0753251,518.0097937l-12.1799927-2c-22.3392639-3.7005005-37.4489441-24.809906-33.7484436-47.1491394.1972351-1.1907349.4469604-2.3721619.7484436-3.540863l12.1099854-46.8999939c2.3088074-8.9523315-3.0768433-18.0812683-12.0291443-20.3900757-1.0385132-.2678223-2.1003418-.4352417-3.1708679-.4999084l-11.4700012-.7000122c-4.5333557-.2686462-8.9820251,1.311676-12.3299866,4.3800049l-43.8899841,43.4100037,1.1400146,1.1499939c14.7894897,14.7997437,22.6504822,35.1511536,21.6499939,56.0499878l-.6700134,14"/>
      <path class="uuid-cc9dd4c8-1236-47d3-ac7f-e450bc6b3489" d="M605.395363,404.6697974l-10.7800293,7.8299866,9.1699829,11.8599854c2.4172974,2.9556274,6.5162964,3.9230042,10,2.3599854,3.208252-1.2584839,4.7888794-4.8794861,3.5303955-8.087738-.2878418-.7337952-.7121582-1.4064026-1.2503662-1.9822693l-10.6699829-11.97995Z"/>
    </g>
    <path class="uuid-ef816083-667d-46ac-84ef-5f028fa0aaed" d="M499.6153337,507.1997962s90.6099854-22.1300049,130.4299927-78.4500122"/>
  </g>
</svg>